<svg xmlns="http://www.w3.org/2000/svg" xmlns:xlink="http://www.w3.org/1999/xlink" viewBox="0 0 48 48"><defs><style>.cls-1,.cls-2{fill:#0072ad;}.cls-2{fill-rule:evenodd;}.cls-3{opacity:0;}.cls-4{clip-path:url(#clip-path);}</style><clipPath id="clip-path"><rect class="cls-1" width="48" height="48"/></clipPath></defs><g id="icones"><path class="cls-2" d="M35,19.35V15.7a11,11,0,0,0-19.51-7,2,2,0,1,0,3.09,2.54A7,7,0,0,1,31,15.7V19H15a6,6,0,0,0-6,6V38a6,6,0,0,0,6,6H33a6,6,0,0,0,6-6V25a6,6,0,0,0-4-5.65M35,38a2,2,0,0,1-2,2H15a2,2,0,0,1-2-2V25a2,2,0,0,1,2-2H33a2,2,0,0,1,2,2Z"/><path class="cls-2" d="M24,27.14A2.86,2.86,0,0,0,22,32v2a2,2,0,0,0,4,0V32a2.86,2.86,0,0,0-2-4.9"/><g class="cls-3"><rect class="cls-1" width="48" height="48"/><g class="cls-4"><g class="cls-3"><rect class="cls-1" width="48" height="48"/><g class="cls-4"><rect class="cls-1" width="48" height="48"/></g></g></g></g></g></svg>