<svg xmlns="http://www.w3.org/2000/svg" xmlns:xlink="http://www.w3.org/1999/xlink" viewBox="0 0 48 48"><defs><style>.cls-1{fill:#0072ad;}.cls-2{opacity:0;}.cls-3{clip-path:url(#clip-path);}</style><clipPath id="clip-path"><rect class="cls-1" width="48" height="48"/></clipPath></defs><g id="icones"><g class="cls-2"><rect class="cls-1" width="48" height="48"/><g class="cls-3"><rect class="cls-1" width="48" height="48"/></g></g><path class="cls-1" d="M38,13H34.26a2,2,0,0,1-1.71-1l-.67-1.12A6,6,0,0,0,26.73,8H21.26a6,6,0,0,0-5.14,2.91L15.45,12a2,2,0,0,1-1.72,1H13v-.5A2.5,2.5,0,0,0,10.5,10h-1A2.5,2.5,0,0,0,7,12.5v1a2.58,2.58,0,0,0,0,.29A6,6,0,0,0,4,19V34a6,6,0,0,0,6,6H38a6,6,0,0,0,6-6V19a6,6,0,0,0-6-6m2,21a2,2,0,0,1-2,2H10a2,2,0,0,1-2-2V19a2,2,0,0,1,2-2h3.73a6,6,0,0,0,5.15-2.91L19.55,13a2,2,0,0,1,1.71-1h5.47a2,2,0,0,1,1.72,1l.67,1.12A6,6,0,0,0,34.26,17H38a2,2,0,0,1,2,2Z"/><path class="cls-1" d="M24,17a8,8,0,1,0,8,8,8,8,0,0,0-8-8m0,12a4,4,0,1,1,4-4,4,4,0,0,1-4,4"/></g></svg>