<svg xmlns="http://www.w3.org/2000/svg" xmlns:xlink="http://www.w3.org/1999/xlink" viewBox="0 0 48 48"><defs><style>.cls-1{fill:#0072ad;}.cls-2{opacity:0;}.cls-3{clip-path:url(#clip-path);}</style><clipPath id="clip-path"><rect class="cls-1" width="48" height="48"/></clipPath></defs><g id="icones"><path class="cls-1" d="M39.28,16.81a3.44,3.44,0,0,0-.28-.69V15a2,2,0,0,0-2-2H35.26L26.4,6.91a6,6,0,0,0-6.8,0L10.74,13H9a2,2,0,0,0-2,2v1.12a3.44,3.44,0,0,0-.28.69A6,6,0,0,0,5,21V35a6,6,0,0,0,6,6H35a6,6,0,0,0,6-6V21a6,6,0,0,0-1.72-4.19M35,17v1L24.16,25.71a2,2,0,0,1-2.32,0L11,18V17ZM21.87,10.21a2,2,0,0,1,2.26,0L28.2,13H17.8ZM35,37H11a2,2,0,0,1-2-2V21.8l10.6,7.29a6,6,0,0,0,6.8,0L37,21.8V35a2,2,0,0,1-2,2"/><g class="cls-2"><rect class="cls-1" width="48" height="48"/><g class="cls-3"><g class="cls-2"><rect class="cls-1" width="48" height="48"/><g class="cls-3"><rect class="cls-1" width="48" height="48"/></g></g></g></g></g></svg>