<svg xmlns="http://www.w3.org/2000/svg" xmlns:xlink="http://www.w3.org/1999/xlink" viewBox="0 0 48 48"><defs><style>.cls-1{fill:#0072ad;}.cls-2{opacity:0;}.cls-3{clip-path:url(#clip-path);}</style><clipPath id="clip-path"><rect class="cls-1" width="48" height="48"/></clipPath></defs><g id="icones"><path class="cls-1" d="M40.28,17.8a4.08,4.08,0,0,0-1.54-2.1L27.4,7.91a6,6,0,0,0-6.8,0L9.26,15.7a4.08,4.08,0,0,0-1.54,2.1A6,6,0,0,0,6,22V36a6,6,0,0,0,6,6H36a6,6,0,0,0,6-6V22a6,6,0,0,0-1.72-4.2M22.87,11.21a2,2,0,0,1,2.26,0L36.47,19,25.13,26.79a2,2,0,0,1-2.26,0L11.53,19ZM36,38H12a2,2,0,0,1-2-2V22.8l10.6,7.29a6,6,0,0,0,6.8,0L38,22.8V36a2,2,0,0,1-2,2"/><g class="cls-2"><rect class="cls-1" width="48" height="48"/><g class="cls-3"><g class="cls-2"><rect class="cls-1" width="48" height="48"/><g class="cls-3"><rect class="cls-1" width="48" height="48"/></g></g></g></g></g></svg>