<svg xmlns="http://www.w3.org/2000/svg" xmlns:xlink="http://www.w3.org/1999/xlink" viewBox="0 0 48 48"><defs><style>.cls-1{fill:#0072ad;}.cls-2{opacity:0;}.cls-3{clip-path:url(#clip-path);}</style><clipPath id="clip-path"><rect class="cls-1" width="48" height="48"/></clipPath></defs><g id="icones"><path class="cls-1" d="M38,10v0c0-4.15-7-6-14-6S10,5.85,10,10V38h0c0,4,7,6,14,6s14-2,14-6h0ZM24,8c5.53,0,8.88,1.26,9.82,2-.94.74-4.29,2-9.82,2s-8.88-1.26-9.82-2c.94-.74,4.29-2,9.82-2m0,32c-6,0-9.43-1.48-10-2.17V14.39A27.86,27.86,0,0,0,24,16a27.86,27.86,0,0,0,10-1.61V37.83c-.57.69-4,2.17-10,2.17"/><g class="cls-2"><rect class="cls-1" width="48" height="48"/><g class="cls-3"><rect class="cls-1" width="48" height="48"/></g></g></g></svg>