<svg xmlns="http://www.w3.org/2000/svg" xmlns:xlink="http://www.w3.org/1999/xlink" viewBox="0 0 48 48"><defs><style>.cls-1{fill:#0072ad;}.cls-2{opacity:0;}.cls-3{clip-path:url(#clip-path);}</style><clipPath id="clip-path"><rect class="cls-1" width="48" height="48"/></clipPath></defs><g id="icones"><g class="cls-2"><rect class="cls-1" width="48" height="48"/><g class="cls-3"><g class="cls-2"><rect class="cls-1" width="48" height="48"/><g class="cls-3"><rect class="cls-1" width="48" height="48"/></g></g></g></g><g class="cls-2"><rect class="cls-1" width="48" height="48"/><g class="cls-3"><g class="cls-2"><rect class="cls-1" width="48" height="48"/><g class="cls-3"><rect class="cls-1" width="48" height="48"/></g></g></g></g><path class="cls-1" d="M34,18H31a2,2,0,0,0,0,4h3a2,2,0,0,1,2,2V38a2,2,0,0,1-2,2H14a2,2,0,0,1-2-2V24a2,2,0,0,1,2-2h2a2,2,0,0,0,0-4H14a6,6,0,0,0-6,6V38a6,6,0,0,0,6,6H34a6,6,0,0,0,6-6V24a6,6,0,0,0-6-6"/><path class="cls-1" d="M33.2,10.46l-8-6a2,2,0,0,0-2.4,0l-8,6a2,2,0,1,0,2.4,3.19l4.8-3.6V30.94a2,2,0,0,0,3.41,1.41A2,2,0,0,0,26,30.94V10.06l4.8,3.61a2,2,0,0,0,2.4-3.21"/></g></svg>