<svg xmlns="http://www.w3.org/2000/svg" xmlns:xlink="http://www.w3.org/1999/xlink" viewBox="0 0 48 48"><defs><style>.cls-1{fill:#0072ad;}.cls-2{opacity:0;}.cls-3{clip-path:url(#clip-path);}</style><clipPath id="clip-path"><rect class="cls-1" width="48" height="48"/></clipPath></defs><g id="icones"><g class="cls-2"><rect class="cls-1" width="48" height="48"/><g class="cls-3"><g class="cls-2"><rect class="cls-1" width="48" height="48"/><g class="cls-3"><rect class="cls-1" width="48" height="48"/></g></g></g></g><path class="cls-1" d="M34,4H14a6,6,0,0,0-6,6v18.4c0,3,2.39,7.64,6,7.64h2v5a2,2,0,0,0,1.3,1.87A1.89,1.89,0,0,0,18,43a2,2,0,0,0,1.51-.69L25,36h9c3.61,0,6-4.6,6-7.64V10a6,6,0,0,0-6-6m2,24.36C36,30,34.64,32,34,32H24.1a2,2,0,0,0-1.51.69l-2.59,3V34a2,2,0,0,0-2-2H14c-.64,0-2-2-2-3.64V10a2,2,0,0,1,2-2H34a2,2,0,0,1,2,2Z"/><path class="cls-1" d="M17.36,21.24a5.5,5.5,0,0,1,0-7.24h0a4.22,4.22,0,0,1,6.35,0l.25.29.14-.16a4.38,4.38,0,0,1,6.58,0h0a5.27,5.27,0,0,1,0,7L24,28.5Z"/></g></svg>