<svg xmlns="http://www.w3.org/2000/svg" xmlns:xlink="http://www.w3.org/1999/xlink" viewBox="0 0 48 48"><defs><style>.cls-1{fill:#0072ad;}.cls-2{opacity:0;}.cls-3{clip-path:url(#clip-path);}</style><clipPath id="clip-path"><rect class="cls-1" width="48" height="48"/></clipPath></defs><g id="icones"><g class="cls-2"><rect class="cls-1" width="48" height="48"/><g class="cls-3"><rect class="cls-1" width="48" height="48"/></g></g><path class="cls-1" d="M24,18.36c1.71,0,2.91,1,2.91,1.82h4c0-2.56-2-4.74-4.73-5.51V14a2,2,0,0,0-2-2h-.36a2,2,0,0,0-2,2v.67c-2.74.77-4.73,3-4.73,5.51,0,3.21,3.1,5.82,6.91,5.82,1.71,0,2.91,1,2.91,1.82s-1.2,1.82-2.91,1.82-2.91-1-2.91-1.82h-4c0,2.56,2,4.74,4.73,5.51V34a2,2,0,0,0,2,2h.36a2,2,0,0,0,2-2v-.67c2.74-.77,4.73-2.95,4.73-5.51,0-3.21-3.1-5.82-6.91-5.82-1.71,0-2.91-1-2.91-1.82s1.2-1.82,2.91-1.82"/><path class="cls-1" d="M24,4A20,20,0,1,0,44,24,20,20,0,0,0,24,4m0,36A16,16,0,1,1,40,24,16,16,0,0,1,24,40"/></g></svg>