<svg xmlns="http://www.w3.org/2000/svg" xmlns:xlink="http://www.w3.org/1999/xlink" viewBox="0 0 48 48"><defs><style>.cls-1{fill:#0072ad;}.cls-2{opacity:0;}.cls-3{clip-path:url(#clip-path);}</style><clipPath id="clip-path"><rect class="cls-1" width="48" height="48"/></clipPath></defs><g id="icones"><path class="cls-1" d="M34,4H14a6,6,0,0,0-6,6v18.4c0,3,2.39,7.64,6,7.64h2v5a2,2,0,0,0,1.3,1.87A1.89,1.89,0,0,0,18,43a2,2,0,0,0,1.51-.69L25,36h9c3.61,0,6-4.6,6-7.64V10a6,6,0,0,0-6-6m2,24.36C36,30,34.64,32,34,32H24.1a2,2,0,0,0-1.51.69l-2.59,3V34a2,2,0,0,0-2-2H14c-.64,0-2-2-2-3.64V10a2,2,0,0,1,2-2H34a2,2,0,0,1,2,2Z"/><path class="cls-1" d="M24,10.86A5.11,5.11,0,0,0,18.73,16h4s.57-1.14,1.27-1.14a1.34,1.34,0,0,1,1.27,1.35c0,.61-.55,1.2-1.39,2A4.56,4.56,0,0,0,22,21.44V23h4V21.75c.15-.16.41-.4.61-.59,1.06-1,2.66-2.56,2.66-4.95A5.34,5.34,0,0,0,24,10.86"/><path class="cls-1" d="M24,25a2,2,0,1,0,2,2,2,2,0,0,0-2-2"/><g class="cls-2"><rect class="cls-1" width="48" height="48"/><g class="cls-3"><g class="cls-2"><rect class="cls-1" width="48" height="48"/><g class="cls-3"><rect class="cls-1" width="48" height="48"/></g></g></g></g></g></svg>