<svg xmlns="http://www.w3.org/2000/svg" xmlns:xlink="http://www.w3.org/1999/xlink" viewBox="0 0 48 48"><defs><style>.cls-1{fill:#0072ad;}.cls-2{opacity:0;}.cls-3{clip-path:url(#clip-path);}</style><clipPath id="clip-path"><rect class="cls-1" width="48" height="48"/></clipPath></defs><g id="icones"><g class="cls-2"><rect class="cls-1" width="48" height="48"/><g class="cls-3"><g class="cls-2"><rect class="cls-1" width="48" height="48"/><g class="cls-3"><rect class="cls-1" width="48" height="48"/></g></g></g></g><path class="cls-1" d="M36,42H12a6,6,0,0,1-6-6V22a6,6,0,0,1,6-6h6a2,2,0,0,0,2-2V12a6,6,0,0,1,6-6H36a6,6,0,0,1,6,6V36A6,6,0,0,1,36,42ZM12,20a2,2,0,0,0-2,2V36a2,2,0,0,0,2,2H36a2,2,0,0,0,2-2V12a2,2,0,0,0-2-2H26a2,2,0,0,0-2,2v2a6,6,0,0,1-6,6Z"/><path class="cls-1" d="M20.76,34.49,19.39,29l1.37-5.49a1,1,0,0,0-1.53-1.08l-6.87,5.81a1,1,0,0,0,0,1.52l6.87,5.81A1,1,0,0,0,20.76,34.49Z"/><path class="cls-1" d="M30,22v3a2,2,0,0,1-2,2H18v4H30a4,4,0,0,0,4-4V22a2,2,0,0,0-2-2h0A2,2,0,0,0,30,22Z"/></g></svg>