<svg xmlns="http://www.w3.org/2000/svg" xmlns:xlink="http://www.w3.org/1999/xlink" viewBox="0 0 48 48"><defs><style>.cls-1{fill:#0072ad;}.cls-2{opacity:0;}.cls-3{clip-path:url(#clip-path);}</style><clipPath id="clip-path"><rect class="cls-1" width="48" height="48"/></clipPath></defs><g id="icones"><g class="cls-2"><rect class="cls-1" width="48" height="48"/><g class="cls-3"><g class="cls-2"><rect class="cls-1" width="48" height="48"/><g class="cls-3"><rect class="cls-1" width="48" height="48"/></g></g></g></g><path class="cls-1" d="M34,4H18a6,6,0,0,0-6,6v6a2,2,0,0,0,4,0V10a2,2,0,0,1,2-2H34a2,2,0,0,1,2,2V38a2,2,0,0,1-2,2H18a2,2,0,0,1-2-2V32a2,2,0,0,0-4,0v6a6,6,0,0,0,6,6H34a6,6,0,0,0,6-6V10a6,6,0,0,0-6-6"/><path class="cls-1" d="M22.4,30.8a2,2,0,1,0,3.2,2.4l6-8a2,2,0,0,0,0-2.4l-6-8a2,2,0,0,0-3.2,2.4L26,22H10a2,2,0,0,0,0,4H26Z"/></g></svg>