<svg xmlns="http://www.w3.org/2000/svg" xmlns:xlink="http://www.w3.org/1999/xlink" viewBox="0 0 48 48"><defs><style>.cls-1{fill:#0072ad;}.cls-2{opacity:0;}.cls-3{clip-path:url(#clip-path);}</style><clipPath id="clip-path"><rect class="cls-1" width="48" height="48"/></clipPath></defs><g id="icones"><g class="cls-2"><rect class="cls-1" width="48" height="48"/><g class="cls-3"><g class="cls-2"><rect class="cls-1" width="48" height="48"/><g class="cls-3"><rect class="cls-1" width="48" height="48"/></g></g></g></g><path class="cls-1" d="M28,9A15,15,0,0,0,13,24L8.2,20.4a2,2,0,0,0-2.4,3.2l8,6A2,2,0,0,0,15,30a2,2,0,0,0,1.2-.4l8-6a2,2,0,1,0-2.4-3.2L17,24A11,11,0,1,1,28,35a2,2,0,0,0,0,4A15,15,0,0,0,28,9"/></g></svg>