<svg xmlns="http://www.w3.org/2000/svg" xmlns:xlink="http://www.w3.org/1999/xlink" viewBox="0 0 48 48"><defs><style>.cls-1{fill:#0072ad;}.cls-2{opacity:0;}.cls-3{clip-path:url(#clip-path);}</style><clipPath id="clip-path"><rect class="cls-1" width="48" height="48"/></clipPath></defs><g id="icones"><path class="cls-1" d="M22,32a2,2,0,0,0,2-2V16a2,2,0,0,0-4,0V30a2,2,0,0,0,2,2"/><path class="cls-1" d="M42,36H10a2,2,0,0,1-2-2V10a2,2,0,0,0-4,0V34a6,6,0,0,0,6,6H42a2,2,0,0,0,0-4"/><path class="cls-1" d="M14,32a2,2,0,0,0,2-2V28a2,2,0,0,0-4,0v2a2,2,0,0,0,2,2"/><path class="cls-1" d="M30,32a2,2,0,0,0,2-2V22a2,2,0,0,0-4,0v8a2,2,0,0,0,2,2"/><path class="cls-1" d="M38,32a2,2,0,0,0,2-2V10a2,2,0,0,0-4,0V30a2,2,0,0,0,2,2"/><g class="cls-2"><rect class="cls-1" width="48" height="48"/><g class="cls-3"><rect class="cls-1" width="48" height="48"/></g></g></g></svg>