<svg xmlns="http://www.w3.org/2000/svg" xmlns:xlink="http://www.w3.org/1999/xlink" viewBox="0 0 48 48"><defs><style>.cls-1{fill:#0072ad;}.cls-2{opacity:0;}.cls-3{clip-path:url(#clip-path);}</style><clipPath id="clip-path"><rect class="cls-1" width="48" height="48"/></clipPath></defs><g id="icones"><g class="cls-2"><rect class="cls-1" width="48" height="48"/><g class="cls-3"><g class="cls-2"><rect class="cls-1" width="48" height="48"/><g class="cls-3"><rect class="cls-1" width="48" height="48"/></g></g></g></g><g class="cls-2"><rect class="cls-1" width="48" height="48"/><g class="cls-3"><g class="cls-2"><rect class="cls-1" width="48" height="48"/><g class="cls-3"><rect class="cls-1" width="48" height="48"/></g></g></g></g><path class="cls-1" d="M36,16H33a2,2,0,1,0,0,4h3a2,2,0,0,1,2,2V36a2,2,0,0,1-2,2H12a2,2,0,0,1-2-2V22a2,2,0,0,1,2-2h2a2,2,0,1,0,0-4H12a6,6,0,0,0-6,6V36a6,6,0,0,0,6,6H36a6,6,0,0,0,6-6V22a6,6,0,0,0-6-6"/><path class="cls-1" d="M14.8,28.47l8,6a2,2,0,0,0,2.4,0l8-6a2,2,0,0,0-2.4-3.2L26,28.87V8a2,2,0,0,0-2-2,2,2,0,0,0-1.41.59A2,2,0,0,0,22,8V28.87l-4.8-3.6a2,2,0,0,0-2.4,3.2"/></g></svg>