<svg xmlns="http://www.w3.org/2000/svg" xmlns:xlink="http://www.w3.org/1999/xlink" viewBox="0 0 48 48"><defs><style>.cls-1{fill:#0072ad;}.cls-2{opacity:0;}.cls-3{clip-path:url(#clip-path);}</style><clipPath id="clip-path"><rect class="cls-1" width="48" height="48"/></clipPath></defs><g id="icones"><g class="cls-2"><rect class="cls-1" width="48" height="48"/><g class="cls-3"><g class="cls-2"><rect class="cls-1" width="48" height="48"/><g class="cls-3"><rect class="cls-1" width="48" height="48"/></g></g></g></g><path class="cls-1" d="M24,25a2,2,0,0,0,2-2V7a2,2,0,0,0-4,0V23a2,2,0,0,0,2,2"/><path class="cls-1" d="M33.08,10.65A2,2,0,0,0,30,12.33,1.94,1.94,0,0,0,30.89,14,13,13,0,1,1,17.1,14a2,2,0,0,0,.9-1.66h0a2,2,0,0,0-3.06-1.68,17,17,0,1,0,18.14,0"/></g></svg>