<svg xmlns="http://www.w3.org/2000/svg" xmlns:xlink="http://www.w3.org/1999/xlink" viewBox="0 0 48 48"><defs><style>.cls-1{fill:#0072ad;}.cls-2{opacity:0;}.cls-3{clip-path:url(#clip-path);}</style><clipPath id="clip-path"><rect class="cls-1" width="48" height="48"/></clipPath></defs><g id="icones"><path class="cls-1" d="M39.83,34.17l-5-5a4,4,0,0,0-3.85-1L29.2,26.37a14,14,0,1,0-2.83,2.83L28.15,31a4,4,0,0,0,1,3.85l5,5a4,4,0,0,0,5.66-5.66M18,28A10,10,0,1,1,28,18,10,10,0,0,1,18,28"/><g class="cls-2"><rect class="cls-1" width="48" height="48"/><g class="cls-3"><g class="cls-2"><rect class="cls-1" width="48" height="48"/><g class="cls-3"><rect class="cls-1" width="48" height="48"/></g></g></g></g></g></svg>