<svg xmlns="http://www.w3.org/2000/svg" xmlns:xlink="http://www.w3.org/1999/xlink" viewBox="0 0 48 48"><defs><style>.cls-1{fill:#0072ad;}.cls-2{opacity:0;}.cls-3{clip-path:url(#clip-path);}</style><clipPath id="clip-path"><rect class="cls-1" width="48" height="48"/></clipPath></defs><g id="icones"><path class="cls-1" d="M42.1,9.83a4,4,0,0,0-3.89-.17l-7.32,3.66a2,2,0,0,1-1.78,0L19.79,8.66a4,4,0,0,0-3.58,0l-10,5A4,4,0,0,0,4,17.24V34.76a4,4,0,0,0,5.79,3.58l7.32-3.66a2,2,0,0,1,1.78,0l9.47,4.74a4.05,4.05,0,0,0,1.79.42,4.26,4.26,0,0,0,1.27-.2l9.84-3.29A4,4,0,0,0,44,32.56V13.24a4,4,0,0,0-1.9-3.41M8,34.77V17.24l8-4V30.82a4.48,4.48,0,0,0-.68.29Zm12-4V13.24l7.32,3.65a4.48,4.48,0,0,0,.68.29V34.76l-7.32-3.65a4.48,4.48,0,0,0-.68-.29m20,1.74-8,2.66v-18a4.48,4.48,0,0,0,.68-.29L40,13.24Z"/><g class="cls-2"><rect class="cls-1" width="48" height="48"/><g class="cls-3"><g class="cls-2"><rect class="cls-1" width="48" height="48"/><g class="cls-3"><rect class="cls-1" width="48" height="48"/></g></g></g></g></g></svg>