<svg xmlns="http://www.w3.org/2000/svg" xmlns:xlink="http://www.w3.org/1999/xlink" viewBox="0 0 48 48"><defs><style>.cls-1{fill:#0072ad;}.cls-2{opacity:0;}.cls-3{clip-path:url(#clip-path);}</style><clipPath id="clip-path"><rect class="cls-1" width="48" height="48"/></clipPath></defs><g id="icones"><path class="cls-1" d="M36,6H12a6,6,0,0,0-6,6V29a6,6,0,0,0,6,6h7a3,3,0,0,1-3,3h-.89A2.07,2.07,0,0,0,13,39.66,2,2,0,0,0,15,42H33a2,2,0,0,0,2-2.34A2.07,2.07,0,0,0,32.89,38H32a3,3,0,0,1-3-3h7a6,6,0,0,0,6-6V12a6,6,0,0,0-6-6m2,23a2,2,0,0,1-2,2H12a2,2,0,0,1-2-2V12a2,2,0,0,1,2-2H36a2,2,0,0,1,2,2Z"/><g class="cls-2"><rect class="cls-1" width="48" height="48"/><g class="cls-3"><g class="cls-2"><rect class="cls-1" width="48" height="48"/><g class="cls-3"><rect class="cls-1" width="48" height="48"/></g></g></g></g></g></svg>