<svg xmlns="http://www.w3.org/2000/svg" xmlns:xlink="http://www.w3.org/1999/xlink" viewBox="0 0 48 48"><defs><style>.cls-1{fill:#0072ad;}.cls-2{opacity:0;}.cls-3{clip-path:url(#clip-path);}</style><clipPath id="clip-path"><rect class="cls-1" width="48" height="48"/></clipPath></defs><g id="icones"><g class="cls-2"><rect class="cls-1" width="48" height="48"/><g class="cls-3"><g class="cls-2"><rect class="cls-1" width="48" height="48"/><g class="cls-3"><rect class="cls-1" width="48" height="48"/></g></g></g></g><path class="cls-1" d="M24,31H10a2,2,0,0,1-2-2V15.36l10.16,8.13a6,6,0,0,0,7.66-.13L35,15.49V20a2,2,0,0,0,4,0V14a6,6,0,0,0-6-6H10a6,6,0,0,0-6,6V29a6,6,0,0,0,6,6H24a2,2,0,0,0,0-4m-.79-10.67a2,2,0,0,1-2.55,0L10.2,12H32.93Z"/><path class="cls-1" d="M42,31H39V28a2,2,0,0,0-4,0v3H32a2,2,0,0,0,0,4h3v3a2,2,0,0,0,4,0V35h3a2,2,0,0,0,0-4"/></g></svg>