<svg xmlns="http://www.w3.org/2000/svg" xmlns:xlink="http://www.w3.org/1999/xlink" viewBox="0 0 48 48"><defs><style>.cls-1,.cls-4{fill:#0072ad;}.cls-2{opacity:0;}.cls-3{clip-path:url(#clip-path);}.cls-4{fill-rule:evenodd;}</style><clipPath id="clip-path"><rect class="cls-1" width="48" height="48"/></clipPath></defs><g id="icones"><g class="cls-2"><rect class="cls-1" width="48" height="48"/><g class="cls-3"><g class="cls-2"><rect class="cls-1" width="48" height="48"/><g class="cls-3"><rect class="cls-1" width="48" height="48"/></g></g></g></g><rect class="cls-1" x="6" y="28" width="8" height="8" rx="2" transform="translate(-22 42) rotate(-90)"/><rect class="cls-1" x="20" y="6" width="8" height="8" rx="2" transform="translate(14 34) rotate(-90)"/><rect class="cls-1" x="20" y="34" width="8" height="8" rx="2" transform="translate(-14 62) rotate(-90)"/><rect class="cls-1" x="34" y="28" width="8" height="8" rx="2" transform="translate(6 70) rotate(-90)"/><rect class="cls-1" x="22" y="14" width="4" height="20"/><path class="cls-4" d="M38,20H10a2,2,0,0,0-2,2v6h4V25a1,1,0,0,1,1-1H35a1,1,0,0,1,1,1v3h4V22a2,2,0,0,0-2-2Z"/></g></svg>