<svg xmlns="http://www.w3.org/2000/svg" xmlns:xlink="http://www.w3.org/1999/xlink" viewBox="0 0 48 48"><defs><style>.cls-1{fill:#0072ad;}.cls-2{opacity:0;}.cls-3{clip-path:url(#clip-path);}</style><clipPath id="clip-path"><rect class="cls-1" width="48" height="48"/></clipPath></defs><g id="icones"><path class="cls-1" d="M31,15H10a6,6,0,0,0-6,6V34a6,6,0,0,0,6,6H31a6,6,0,0,0,6-6V21a6,6,0,0,0-6-6m-.17,4-9,7.92a2.13,2.13,0,0,1-2.64,0l-9-7.92ZM31,36H10a2,2,0,0,1-2-2V22.42l8.54,7.5a6.07,6.07,0,0,0,7.92,0L33,22.42V34a2,2,0,0,1-2,2"/><path class="cls-1" d="M38,8H15.78A3.78,3.78,0,0,0,12,12,.18.18,0,0,1,12,12H38a2,2,0,0,1,2,2V33a4,4,0,0,0,4-4V14a6,6,0,0,0-6-6"/><g class="cls-2"><rect class="cls-1" width="48" height="48"/><g class="cls-3"><g class="cls-2"><rect class="cls-1" width="48" height="48"/><g class="cls-3"><rect class="cls-1" width="48" height="48"/></g></g></g></g></g></svg>