<svg xmlns="http://www.w3.org/2000/svg" viewBox="0 0 48 48"><defs><style>.cls-1{opacity:0;}.cls-2{fill:#0072ad;}</style></defs><g id="icones"><g class="cls-1"><g class="cls-1"><rect class="cls-2" width="48" height="48"/></g></g><path class="cls-2" d="M6,6V18H18V6Zm8,8H10V10h4Z"/><path class="cls-2" d="M6,32V44H18V32Zm8,8H10V36h4Z"/><path class="cls-2" d="M30,6V18H42V6Zm8,8H34V10h4Z"/><rect class="cls-2" x="6" y="23" width="4" height="4" transform="translate(33 17) rotate(90)"/><rect class="cls-2" x="22" y="6" width="4" height="4" transform="translate(32 -16) rotate(90)"/><rect class="cls-2" x="32" y="25" width="8" height="4" transform="translate(63 -9) rotate(90)"/><rect class="cls-2" x="22" y="10" width="4" height="4" transform="translate(36 -12) rotate(90)"/><rect class="cls-2" x="22" y="32" width="4" height="4" transform="translate(58 10) rotate(90)"/><rect class="cls-2" x="22" y="40" width="4" height="4" transform="translate(66 18) rotate(90)"/><rect class="cls-2" x="21.5" y="18.5" width="5" height="4" transform="translate(44.5 -3.5) rotate(90)"/><rect class="cls-2" x="20" y="17" width="4" height="16" transform="translate(47 3) rotate(90)"/><rect class="cls-2" x="23.5" y="34.5" width="4" height="7" transform="translate(63.5 12.5) rotate(90)"/><rect class="cls-2" x="36.5" y="21.5" width="4" height="7" transform="translate(63.5 -13.5) rotate(90)"/><rect class="cls-2" x="33" y="35" width="8" height="8" transform="translate(76 2) rotate(90)"/></g></svg>