<svg xmlns="http://www.w3.org/2000/svg" xmlns:xlink="http://www.w3.org/1999/xlink" viewBox="0 0 48 48"><defs><style>.cls-1,.cls-4{fill:#0072ad;}.cls-2{opacity:0;}.cls-3{clip-path:url(#clip-path);}.cls-4{fill-rule:evenodd;}</style><clipPath id="clip-path"><rect class="cls-1" width="48" height="48"/></clipPath></defs><g id="icones"><g class="cls-2"><rect class="cls-1" width="48" height="48"/><g class="cls-3"><rect class="cls-1" width="48" height="48"/></g></g><path class="cls-4" d="M41.93,16.48a2,2,0,0,0-1.34-2.39l-26-8a2,2,0,1,0-1.18,3.82L30,15H10a6,6,0,0,0-6,6V34a6,6,0,0,0,6,6H38a6,6,0,0,0,6-6V21a6,6,0,0,0-2.07-4.52M40,34a2,2,0,0,1-2,2H10a2,2,0,0,1-2-2V21a2,2,0,0,1,2-2H38a2,2,0,0,1,2,2Z"/><path class="cls-4" d="M31.5,22A5.5,5.5,0,1,0,37,27.5,5.5,5.5,0,0,0,31.5,22"/><path class="cls-4" d="M20,22H13a2,2,0,0,0,0,4h7a2,2,0,0,0,0-4"/><path class="cls-4" d="M20,29H13a2,2,0,0,0,0,4h7a2,2,0,0,0,0-4"/></g></svg>