<svg xmlns="http://www.w3.org/2000/svg" xmlns:xlink="http://www.w3.org/1999/xlink" viewBox="0 0 48 48"><defs><style>.cls-1{fill:#0072ad;}.cls-2{opacity:0;}.cls-3{clip-path:url(#clip-path);}</style><clipPath id="clip-path"><rect class="cls-1" width="48" height="48"/></clipPath></defs><g id="icones"><g class="cls-2"><rect class="cls-1" width="48" height="48"/><g class="cls-3"><g class="cls-2"><rect class="cls-1" width="48" height="48"/><g class="cls-3"><rect class="cls-1" width="48" height="48"/></g></g></g></g><path class="cls-1" d="M24,4A20,20,0,1,0,44,24,20,20,0,0,0,24,4m0,36A16,16,0,1,1,40,24,16,16,0,0,1,24,40"/><path class="cls-1" d="M31.24,17.66A2,2,0,0,0,29,19.36l-.85,5.94-8.72-8.71a2,2,0,0,0-2.82,2.82l8.71,8.72L19.36,29a2,2,0,0,0,.28,4l.29,0,9.9-1.42a2,2,0,0,0,1.69-1.69l1.42-9.9a2,2,0,0,0-1.7-2.27"/></g></svg>