<svg xmlns="http://www.w3.org/2000/svg" xmlns:xlink="http://www.w3.org/1999/xlink" viewBox="0 0 48 48"><defs><style>.cls-1{fill:#0072ad;}.cls-2{opacity:0;}.cls-3{clip-path:url(#clip-path);}</style><clipPath id="clip-path"><rect class="cls-1" width="48" height="48"/></clipPath></defs><g id="icones"><g class="cls-2"><rect class="cls-1" width="48" height="48"/><g class="cls-3"><rect class="cls-1" x="-0.11" y="0.11" width="48" height="48"/></g></g><path class="cls-1" d="M24,4A20,20,0,1,0,44,24,20,20,0,0,0,24,4m0,36A16,16,0,1,1,40,24,16,16,0,0,1,24,40"/><path class="cls-1" d="M32.06,26.17C31.83,26,27,26,24,26c-2.42,0-7.64,0-8.06.18a2.07,2.07,0,0,0-.76,3A10.54,10.54,0,0,0,24,34.2a10.54,10.54,0,0,0,8.82-5.07,2.11,2.11,0,0,0-.76-3"/><path class="cls-1" d="M17,21a2,2,0,1,0-2-2,2,2,0,0,0,2,2"/><path class="cls-1" d="M31,21a2,2,0,1,0-2-2,2,2,0,0,0,2,2"/></g></svg>