<svg xmlns="http://www.w3.org/2000/svg" xmlns:xlink="http://www.w3.org/1999/xlink" viewBox="0 0 48 48"><defs><style>.cls-1{fill:#0072ad;}.cls-2{opacity:0;}.cls-3{clip-path:url(#clip-path);}</style><clipPath id="clip-path"><rect class="cls-1" width="48" height="48"/></clipPath></defs><g id="icones"><g class="cls-2"><rect class="cls-1" width="48" height="48"/><g class="cls-3"><g class="cls-2"><rect class="cls-1" width="48" height="48"/><g class="cls-3"><rect class="cls-1" width="48" height="48"/></g></g></g></g><path class="cls-1" d="M23.53,9.13a4,4,0,0,0-4.36.87l-6,6H8a4,4,0,0,0-4,4v8a4,4,0,0,0,4,4h4.23l7.08,6.44A4,4,0,0,0,22,39.49a4.13,4.13,0,0,0,1.64-.35A4,4,0,0,0,26,35.48V12.83A4,4,0,0,0,23.53,9.13ZM22,35.48,14.92,29a4,4,0,0,0-2.69-1H12V20h1.17A4,4,0,0,0,16,18.83l6-6V35.48Z"/><path class="cls-1" d="M31.66,31.66a2,2,0,0,1-1.42-3.42,6,6,0,0,0,0-8.48,2,2,0,0,1,2.83-2.83,10,10,0,0,1,0,14.14A2,2,0,0,1,31.66,31.66Z"/><circle class="cls-1" cx="25.5" cy="24.5" r="2.5"/></g></svg>