<svg xmlns="http://www.w3.org/2000/svg" xmlns:xlink="http://www.w3.org/1999/xlink" viewBox="0 0 48 48"><defs><style>.cls-1{fill:#0072ad;}.cls-2{opacity:0;}.cls-3{clip-path:url(#clip-path);}</style><clipPath id="clip-path"><rect class="cls-1" width="48" height="48"/></clipPath></defs><g id="icones"><g class="cls-2"><rect class="cls-1" width="48" height="48"/><g class="cls-3"><g class="cls-2"><rect class="cls-1" width="48" height="48"/><g class="cls-3"><rect class="cls-1" width="48" height="48"/></g></g></g></g><path class="cls-1" d="M21,33v5a4,4,0,0,0,4,4h0a2,2,0,0,0,2-2h0a2,2,0,0,0-2-2h0V33h6a2,2,0,0,0,2,2h0a2,2,0,0,0,2-2h0a4,4,0,0,0-4-4H25A4,4,0,0,0,21,33Z"/><path class="cls-1" d="M42,38V33a4,4,0,0,0-4-4h0a2,2,0,0,0-2,2h0a2,2,0,0,0,2,2h0v5H32a2,2,0,0,0-2-2h0a2,2,0,0,0-2,2h0a4,4,0,0,0,4,4h6A4,4,0,0,0,42,38Z"/><path class="cls-1" d="M28.24,22.31A10,10,0,0,0,14,8.25a10,10,0,0,0-.29,14.05A14.88,14.88,0,0,0,6,32.21,4,4,0,0,0,6.24,35a3.78,3.78,0,0,0,3.37,2H15a2,2,0,0,0,2-2h0a2,2,0,0,0-2-2H9.87a10.91,10.91,0,0,1,5.88-7.24A3.76,3.76,0,0,0,17.82,23a3.83,3.83,0,0,0-1-3.25,6.17,6.17,0,0,1-1.51-2.33,6,6,0,0,1,5.87-8,6,6,0,0,1,4,10.28,3.69,3.69,0,0,0-1.07,3.24,7.34,7.34,0,0,0,3.09,3.82,2,2,0,0,0,2.68-.91C30.69,24.81,29.06,22.87,28.24,22.31Z"/></g></svg>