<svg xmlns="http://www.w3.org/2000/svg" xmlns:xlink="http://www.w3.org/1999/xlink" viewBox="0 0 48 48"><defs><style>.cls-1{fill:#0072ad;}.cls-2{opacity:0;}.cls-3{clip-path:url(#clip-path);}</style><clipPath id="clip-path"><rect class="cls-1" width="48" height="48"/></clipPath></defs><g id="icones"><g class="cls-2"><rect class="cls-1" width="48" height="48"/><g class="cls-3"><g class="cls-2"><rect class="cls-1" width="48" height="48"/><g class="cls-3"><rect class="cls-1" width="48" height="48"/></g></g></g></g><path class="cls-1" d="M42,12.59h0L38.83,9.41a4,4,0,0,0-5.66,0L18,24.59l-4.17-4.18a4,4,0,0,0-5.66,0L5,23.59a4,4,0,0,0,0,5.65L13.76,38a6,6,0,0,0,8.48,0L42,18.24a4,4,0,0,0,0-5.65M19.41,35.17a2,2,0,0,1-2.82,0L7.83,26.41,11,23.24l5.59,5.59a2,2,0,0,0,2.82,0L36,12.24l3.17,3.17Z"/></g></svg>