<svg xmlns="http://www.w3.org/2000/svg" viewBox="0 0 48 48">
    <defs>
        <style>.cls-1{fill:#ffffff;}.cls-2{opacity:0;}.cls-3{clip-path:url(#clip-path);}</style>
        <clipPath id="clip-path">
            <rect class="cls-1" width="48" height="48"/>
        </clipPath>
    </defs>
    <g id="icones">
        <path class="cls-1"
              d="M38,40H27.74L39.66,22.11A2,2,0,0,0,38,19H23.05L18.91,5.42a2,2,0,0,0-3.82,0L11,19H10a2,2,0,0,0-2,2,2,2,0,0,0,1.74,2L8.09,28.42a2,2,0,0,0,3.82,1.16l2-6.58h6.16l2,6.58A2,2,0,0,0,24,31a2,2,0,0,0,.58-.09,2,2,0,0,0,1.33-2.49L24.26,23h10L22.34,40.89A2,2,0,0,0,24,44H38a2,2,0,0,0,0-4M15.13,19,17,12.87,18.87,19Z"/>
        <g class="cls-2">
            <rect class="cls-1" width="48" height="48"/>
            <g class="cls-3">
                <rect class="cls-1" width="48" height="48"/>
            </g>
        </g>
    </g>
</svg>