<svg xmlns="http://www.w3.org/2000/svg" xmlns:xlink="http://www.w3.org/1999/xlink" viewBox="0 0 48 48"><defs><style>.cls-1{fill:#ffffff;}.cls-2{opacity:0;}.cls-3{clip-path:url(#clip-path);}</style><clipPath id="clip-path"><rect class="cls-1" width="48" height="48"/></clipPath></defs><g id="icones"><g class="cls-2"><rect class="cls-1" width="48" height="48"/><g class="cls-3"><g class="cls-2"><rect class="cls-1" width="48" height="48"/><g class="cls-3"><rect class="cls-1" width="48" height="48"/></g></g></g></g><path class="cls-1" d="M37,18H29.76c1.53-2,2.82-4.67,2.19-7.44-.51-2.23-3.52-2.95-4.43-3.12-3.1-.57-5.78.35-7.18,2.45-1.56,2.33-5.55,4.65-8.49,6.09A4,4,0,0,0,4,17V34a4,4,0,0,0,7.27,2.29c1.92.78,4.68,1.92,5.84,2.5A13.16,13.16,0,0,0,23,40h9.21c4.6,0,7.75-2,9.61-6.18A23.49,23.49,0,0,0,44,24c0-2.74-1.21-6-7-6m1.18,14.18a5.82,5.82,0,0,1-6,3.82H23a9.17,9.17,0,0,1-4.11-.79c-1.45-.73-5-2.17-6.89-2.94v-12c2.78-1.22,9.08-4.33,11.66-8.21a2.11,2.11,0,0,1,1.6-.8,5.26,5.26,0,0,1,2.84.49c.2,2.5-3.09,5.66-4.32,6.61A2,2,0,0,0,25,22H37c3,0,3,.84,3,2a19.77,19.77,0,0,1-1.82,8.18"/></g></svg>