<svg xmlns="http://www.w3.org/2000/svg" viewBox="0 0 48 48">
    <defs>
        <style>.cls-1{fill:#ffffff;}.cls-2{opacity:0;}.cls-3{clip-path:url(#clip-path);}</style>
        <clipPath id="clip-path">
            <rect class="cls-1" width="48" height="48"/>
        </clipPath>
    </defs>
    <g id="icones">
        <path class="cls-1"
              d="M40.41,37.59,36.23,33.4A7.89,7.89,0,0,0,37,30a8,8,0,1,0-8,8,7.91,7.91,0,0,0,4.66-1.51l3.93,3.92a2,2,0,0,0,2.82,0,2,2,0,0,0,0-2.82M29,34a4,4,0,1,1,4-4,4,4,0,0,1-4,4"/>
        <path class="cls-1"
              d="M16,33H13.5A1.38,1.38,0,0,1,12,31.78V9.22A1.4,1.4,0,0,1,13.5,8H22v4a3,3,0,0,0,3,3h4v2a2,2,0,0,0,4,0V11a2,2,0,0,0-.72-1.54l-6-5A2,2,0,0,0,25,4H13.5A5.37,5.37,0,0,0,8,9.22V31.78A5.37,5.37,0,0,0,13.5,37H16a2,2,0,0,0,0-4"/>
        <g class="cls-2">
            <rect class="cls-1" width="48" height="48"/>
            <g class="cls-3">
                <g class="cls-2">
                    <rect class="cls-1" width="48" height="48"/>
                    <g class="cls-3">
                        <rect class="cls-1" width="48" height="48"/>
                    </g>
                </g>
            </g>
        </g>
    </g>
</svg>