<svg xmlns="http://www.w3.org/2000/svg" viewBox="0 0 48 48"><defs><style>.cls-1{opacity:0;}.cls-2{fill:#000000;}</style></defs><g id="icones"><g class="cls-1"><g class="cls-1"><rect class="cls-2" width="48" height="48"/></g></g><path class="cls-2" d="M28.86,36.29a5.68,5.68,0,0,1,0-7.49h0a4.34,4.34,0,0,1,6.56,0l.27.29.14-.16a4.52,4.52,0,0,1,6.81,0h0a5.48,5.48,0,0,1,0,7.22l-7,7.65Z"/><path class="cls-2" d="M36.56,6.4a4,4,0,0,1,3.79,3l3.55,11.7a2.38,2.38,0,0,1-.28,2A2,2,0,0,1,42,24H12V39.4h4V29.5a2.51,2.51,0,0,1,.11-.72,2.15,2.15,0,0,1,.46-.82,2.07,2.07,0,0,1,.77-.54A1.78,1.78,0,0,1,18,27.3h6a2.1,2.1,0,0,1,2,2.2h0a2.1,2.1,0,0,1-2,2.2H20v9.9a2.11,2.11,0,0,1-2,2.2H10a2.11,2.11,0,0,1-2-2.2V24H6a2,2,0,0,1-1.62-.91,2.38,2.38,0,0,1-.28-2L7.65,9.41a4,4,0,0,1,3.79-3Zm-.06,4.4h-25s-1.27,4-2.73,8.8H39.23Z"/></g></svg>