<svg xmlns="http://www.w3.org/2000/svg" xmlns:xlink="http://www.w3.org/1999/xlink" viewBox="0 0 48 48"><defs><style>.cls-1{fill:#a65718;}.cls-2{opacity:0;}.cls-3{clip-path:url(#clip-path);}</style><clipPath id="clip-path"><rect class="cls-1" width="48" height="48"/></clipPath></defs><g id="icones"><g class="cls-2"><rect class="cls-1" width="48" height="48"/><g class="cls-3"><g class="cls-2"><rect class="cls-1" width="48" height="48"/><g class="cls-3"><rect class="cls-1" width="48" height="48"/></g></g></g></g><path class="cls-1" d="M43.9,21.37,40,9.67V8a2,2,0,0,0-2-2H10A2,2,0,0,0,8,8V9.67L4.1,21.37A2,2,0,0,0,6,24H8V40a2,2,0,0,0,2,2H38a2,2,0,0,0,2-2V24h2a2,2,0,0,0,1.9-2.63M10,20H8.77l2.67-8H36.56l2.67,8H10ZM33,38V29a2,2,0,0,0-2-2H27a2,2,0,0,0-2,2v9H12V24H36V38Z"/><path class="cls-1" d="M20,27H17a2,2,0,0,0-2,2v3a2,2,0,0,0,2,2h3a2,2,0,0,0,2-2V29a2,2,0,0,0-2-2"/></g></svg>