<svg xmlns="http://www.w3.org/2000/svg" xmlns:xlink="http://www.w3.org/1999/xlink" viewBox="0 0 48 48"><defs><style>.cls-1{fill:#fff333;}.cls-2{opacity:0;}.cls-3{clip-path:url(#clip-path);}</style><clipPath id="clip-path"><rect class="cls-1" width="48" height="48"/></clipPath></defs><g id="icones"><path class="cls-1" d="M36,10H34V8a2,2,0,0,0-4,0v2H18V8a2,2,0,0,0-4,0v2H12a6,6,0,0,0-6,6V36a6,6,0,0,0,6,6H36a6,6,0,0,0,6-6V16a6,6,0,0,0-6-6m2,26a2,2,0,0,1-2,2H12a2,2,0,0,1-2-2V18H38Z"/><path class="cls-1" d="M16,26a2,2,0,1,0-2-2,2,2,0,0,0,2,2"/><path class="cls-1" d="M24,26a2,2,0,1,0-2-2,2,2,0,0,0,2,2"/><path class="cls-1" d="M32,26a2,2,0,1,0-2-2,2,2,0,0,0,2,2"/><path class="cls-1" d="M16,34a2,2,0,1,0-2-2,2,2,0,0,0,2,2"/><path class="cls-1" d="M24,34a2,2,0,1,0-2-2,2,2,0,0,0,2,2"/><path class="cls-1" d="M32,34a2,2,0,1,0-2-2,2,2,0,0,0,2,2"/><g class="cls-2"><rect class="cls-1" width="48" height="48"/><g class="cls-3"><g class="cls-2"><rect class="cls-1" width="48" height="48"/><g class="cls-3"><rect class="cls-1" width="48" height="48"/></g></g></g></g></g></svg>