<svg xmlns="http://www.w3.org/2000/svg" xmlns:xlink="http://www.w3.org/1999/xlink" viewBox="0 0 48 48"><defs><style>.cls-1{fill:#000000;}.cls-2{opacity:0;}.cls-3{clip-path:url(#clip-path);}</style><clipPath id="clip-path"><rect class="cls-1" width="48" height="48"/></clipPath></defs><g id="icones"><g class="cls-2"><rect class="cls-1" width="48" height="48"/><g class="cls-3"><g class="cls-2"><rect class="cls-1" width="48" height="48"/><g class="cls-3"><rect class="cls-1" width="48" height="48"/></g></g></g></g><path class="cls-1" d="M42.54,12.25a2,2,0,0,0-3.28-.68L34.2,16.63,31.37,13.8l5.06-5.06a2,2,0,0,0-.68-3.28,12,12,0,0,0-16,14.28l-11,11a6,6,0,0,0,8.49,8.49l11-11a12,12,0,0,0,14.28-16M37,22.29a8,8,0,0,1-8.57,1.79,2,2,0,0,0-2.15.45L14.4,36.43a2,2,0,1,1-2.83-2.83l11.9-11.9a2,2,0,0,0,.45-2.15,8,8,0,0,1,6.94-10.9l-3.74,3.74a2,2,0,0,0,0,2.83l5.66,5.66a2.06,2.06,0,0,0,2.83,0l3.74-3.74A8,8,0,0,1,37,22.29"/></g></svg>