<svg xmlns="http://www.w3.org/2000/svg" xmlns:xlink="http://www.w3.org/1999/xlink" viewBox="0 0 48 48"><defs><style>.cls-1{fill:#fff333;}.cls-2{opacity:0;}.cls-3{clip-path:url(#clip-path);}</style><clipPath id="clip-path"><rect class="cls-1" width="48" height="48"/></clipPath></defs><g id="icones"><path class="cls-1" d="M40,12H28.83L26,9.17A4,4,0,0,0,23.17,8H15a4,4,0,0,0-4,4V29a4,4,0,0,0,4,4H40a4,4,0,0,0,4-4V16a4,4,0,0,0-4-4M15,29V12h8.17L26,14.83A4,4,0,0,0,28.83,16H40V29Z"/><path class="cls-1" d="M10,36a2,2,0,0,1-2-2V15a4,4,0,0,0-4,4V34a6,6,0,0,0,6,6H32.22a3.78,3.78,0,0,0,3.79-4,.13.13,0,0,1,0,0Z"/><g class="cls-2"><rect class="cls-1" width="48" height="48"/><g class="cls-3"><g class="cls-2"><rect class="cls-1" width="48" height="48"/><g class="cls-3"><rect class="cls-1" width="48" height="48"/></g></g></g></g></g></svg>