<svg xmlns="http://www.w3.org/2000/svg" xmlns:xlink="http://www.w3.org/1999/xlink" viewBox="0 0 48 48"><defs><style>.cls-1{fill:#000000;}.cls-2{opacity:0;}.cls-3{clip-path:url(#clip-path);}</style><clipPath id="clip-path"><rect class="cls-1" width="48" height="48"/></clipPath></defs><g id="icones"><path class="cls-1" d="M44,30.27A10.51,10.51,0,0,0,38.24,23a1.44,1.44,0,0,1-.42-2.32,6.51,6.51,0,0,0,2-4.43,6.62,6.62,0,0,0-6.35-6.78,6.46,6.46,0,0,0-3.17.72,13.88,13.88,0,0,1,1.59,14.09C34,25,38,29,38,32h4.54A1.45,1.45,0,0,0,44,30.27"/><path class="cls-1" d="M26.35,25.36a10,10,0,1,0-14.49,0A14.77,14.77,0,0,0,4.07,35.52a3.71,3.71,0,0,0,.79,3.1A3.76,3.76,0,0,0,7.78,40H30.43a3.75,3.75,0,0,0,2.92-1.38,3.71,3.71,0,0,0,.79-3.1,14.77,14.77,0,0,0-7.79-10.16M8.05,36a10.86,10.86,0,0,1,5.85-7.19A3.71,3.71,0,0,0,16,26.05a3.84,3.84,0,0,0-1.08-3.32,6,6,0,1,1,8.41,0h0A3.74,3.74,0,0,0,22.23,26a3.82,3.82,0,0,0,2.08,2.8A10.83,10.83,0,0,1,30.16,36Z"/><g class="cls-2"><rect class="cls-1" width="48" height="48"/><g class="cls-3"><g class="cls-2"><rect class="cls-1" width="48" height="48"/><g class="cls-3"><rect class="cls-1" width="48" height="48"/></g></g></g></g></g></svg>