<svg xmlns="http://www.w3.org/2000/svg" xmlns:xlink="http://www.w3.org/1999/xlink" viewBox="0 0 48 48"><defs><style>.cls-1{fill:#a65718;}.cls-2{opacity:0;}.cls-3{clip-path:url(#clip-path);}</style><clipPath id="clip-path"><rect class="cls-1" width="48" height="48"/></clipPath></defs><g id="icones"><path class="cls-1" d="M43.94,30.56a12.6,12.6,0,0,0-6.24-8.43,11.18,11.18,0,0,0,2.3-6,7.48,7.48,0,0,0-1.87-5.78A8.29,8.29,0,0,0,32,8a2,2,0,0,0,0,4,4.56,4.56,0,0,1,3.22,1.08A3.64,3.64,0,0,1,36,15.89a6.81,6.81,0,0,1-1.59,3.92,3.56,3.56,0,0,0-1,3.05,3.5,3.5,0,0,0,1.89,2.54,8.63,8.63,0,0,1,4.56,5.38,2,2,0,0,0,.65,3.9,3.48,3.48,0,0,0,3.41-4.12"/><path class="cls-1" d="M26.35,25.36a10,10,0,1,0-14.49,0A14.77,14.77,0,0,0,4.07,35.52a3.71,3.71,0,0,0,.79,3.1A3.76,3.76,0,0,0,7.78,40H30.43a3.75,3.75,0,0,0,2.92-1.38,3.71,3.71,0,0,0,.79-3.1,14.77,14.77,0,0,0-7.79-10.16M8.05,36a10.86,10.86,0,0,1,5.85-7.19A3.71,3.71,0,0,0,16,26.05a3.84,3.84,0,0,0-1.08-3.32,6,6,0,1,1,8.41,0h0A3.74,3.74,0,0,0,22.23,26a3.82,3.82,0,0,0,2.08,2.8A10.83,10.83,0,0,1,30.16,36Z"/><g class="cls-2"><rect class="cls-1" width="48" height="48"/><g class="cls-3"><g class="cls-2"><rect class="cls-1" width="48" height="48"/><g class="cls-3"><rect class="cls-1" width="48" height="48"/></g></g></g></g></g></svg>