<svg xmlns="http://www.w3.org/2000/svg" xmlns:xlink="http://www.w3.org/1999/xlink" viewBox="0 0 48 48"><defs><style>.cls-1{fill:#000000;}.cls-2{opacity:0;}.cls-3{clip-path:url(#clip-path);}</style><clipPath id="clip-path"><rect class="cls-1" width="48" height="48"/></clipPath></defs><g id="icones"><g class="cls-2"><rect class="cls-1" width="48" height="48"/><g class="cls-3"><g class="cls-2"><rect class="cls-1" width="48" height="48"/><g class="cls-3"><rect class="cls-1" width="48" height="48"/></g></g></g></g><path class="cls-1" d="M12,28.17h4L31.59,12.59a2,2,0,0,0,0-2.83L30.41,8.59a2,2,0,0,0-2.82,0L12,24.17Z"/><path class="cls-1" d="M38,16H32a2,2,0,0,0,0,4h6a2,2,0,0,1,2,2v8H36a4,4,0,0,0-4,4v2H10a2,2,0,0,1-2-2V22a2,2,0,0,1,2-2h2a2,2,0,0,0,0-4H10a6,6,0,0,0-6,6V34a6,6,0,0,0,5.71,6A1.41,1.41,0,0,0,10,40v0H35.17a2,2,0,0,0,1.42-.59l6.82-6.82A2,2,0,0,0,44,31.17V22A6,6,0,0,0,38,16Z"/></g></svg>