<svg xmlns="http://www.w3.org/2000/svg" xmlns:xlink="http://www.w3.org/1999/xlink" viewBox="0 0 48 48"><defs><style>.cls-1{fill:#ffffff;}.cls-2{opacity:0;}.cls-3{clip-path:url(#clip-path);}</style><clipPath id="clip-path"><rect class="cls-1" width="48" height="48"/></clipPath></defs><g id="icones"><g class="cls-2"><rect class="cls-1" width="48" height="48"/><g class="cls-3"><rect class="cls-1" width="48" height="48"/></g></g><path class="cls-1" d="M19.21,8H39a5,5,0,0,1,5,5V35a5,5,0,0,1-5,5H19.21A7,7,0,0,1,14,37.71L5.35,28.18a6,6,0,0,1,.06-8.42L14,10.29A7,7,0,0,1,19.21,8M39,36a1,1,0,0,0,1-1V13a1,1,0,0,0-1-1H19.21A3,3,0,0,0,17,13L8.31,22.52a2,2,0,0,0-.07,2.9L17,35a3,3,0,0,0,2.22,1Z"/><path class="cls-1" d="M25.17,24,21,28.17A2,2,0,0,0,23.83,31L28,26.83,32.17,31A2,2,0,0,0,35,28.17L30.83,24,35,19.83A2,2,0,0,0,32.17,17L28,21.17,23.83,17A2,2,0,0,0,21,19.83Z"/></g></svg>