<svg xmlns="http://www.w3.org/2000/svg" xmlns:xlink="http://www.w3.org/1999/xlink" viewBox="0 0 48 48"><defs><style>.cls-1{fill:#fff333;}.cls-2{opacity:0;}.cls-3{clip-path:url(#clip-path);}</style><clipPath id="clip-path"><rect class="cls-1" width="48" height="48"/></clipPath></defs><g id="icones"><path class="cls-1" d="M38,8H10a5.82,5.82,0,0,0-6,5.6V30.33A5.85,5.85,0,0,0,10,36h2v4a2,2,0,0,0,1.23,1.85A2.07,2.07,0,0,0,14,42a2,2,0,0,0,1.4-.57L20.92,36H38a5.85,5.85,0,0,0,6-5.67V13.6A5.82,5.82,0,0,0,38,8m2,22.33A1.86,1.86,0,0,1,38,32H20.1a2,2,0,0,0-1.4.57L16,35.23V34a2,2,0,0,0-2-2H10a1.86,1.86,0,0,1-2-1.67V13.6A1.82,1.82,0,0,1,10,12H38a1.82,1.82,0,0,1,2,1.6Z"/><g class="cls-2"><rect class="cls-1" width="48" height="48"/><g class="cls-3"><g class="cls-2"><rect class="cls-1" width="48" height="48"/><g class="cls-3"><rect class="cls-1" width="48" height="48"/></g></g></g></g></g></svg>