<svg xmlns="http://www.w3.org/2000/svg" xmlns:xlink="http://www.w3.org/1999/xlink" viewBox="0 0 48 48"><defs><style>.cls-1{fill:#ffffff;}.cls-2{opacity:0;}.cls-3{clip-path:url(#clip-path);}</style><clipPath id="clip-path"><rect class="cls-1" width="48" height="48"/></clipPath></defs><g id="icones"><g class="cls-2"><rect class="cls-1" width="48" height="48"/><g class="cls-3"><g class="cls-2"><rect class="cls-1" width="48" height="48"/><g class="cls-3"><rect class="cls-1" width="48" height="48"/></g></g></g></g><path class="cls-1" d="M42.77,14.15a2,2,0,0,0-2.18.44l-2,2A2,2,0,0,0,40,20V33.59L30,37.16V32a2,2,0,0,0-4,0v5.22l-8-2.66V16a.13.13,0,0,0,0-.06,1.64,1.64,0,0,0,0-.22,1.13,1.13,0,0,0,0-.18,1.21,1.21,0,0,0-.05-.18l-.08-.2s0,0,0-.05L17.72,15a1,1,0,0,0-.11-.17l-.12-.16-.13-.13-.16-.13-.15-.11-.17-.09-.18-.08-.18-.05L16.33,14l-.21,0h-.18l-.22,0a1.13,1.13,0,0,0-.18,0l-.18,0-.2.08-.05,0-10,5A2,2,0,0,0,4,21V40a2,2,0,0,0,.88,1.66A2,2,0,0,0,6,42a2.11,2.11,0,0,0,.74-.14l9.32-3.73L27.37,41.9h.06A2.12,2.12,0,0,0,28,42h.05a2.06,2.06,0,0,0,.56-.11h.06l14-5A2,2,0,0,0,44,35V16a2,2,0,0,0-1.23-1.85M8,22.24l6-3V34.65l-6,2.4Z"/><path class="cls-1" d="M28,28a2,2,0,0,0,1.71-1C32.58,22.25,36,16.11,36,14a7.57,7.57,0,0,0-8-8,7.57,7.57,0,0,0-8,8c0,2.11,3.42,8.25,6.29,13A2,2,0,0,0,28,28m0-18c1.49,0,4,.51,4,3.95-.16,1-2,4.52-4,8.08-2.05-3.61-3.88-7.17-4-8,0-3.48,2.51-4,4-4"/></g></svg>