<svg xmlns="http://www.w3.org/2000/svg" xmlns:xlink="http://www.w3.org/1999/xlink" viewBox="0 0 48 48"><defs><style>.cls-1{fill:#000000;}.cls-2{opacity:0;}.cls-3{clip-path:url(#clip-path);}</style><clipPath id="clip-path"><rect class="cls-1" width="48" height="48"/></clipPath></defs><g id="icones"><path class="cls-1" d="M43.93,15.51a2,2,0,0,0-1.52-2.46,4,4,0,0,0-.62-.39l-16-8a4,4,0,0,0-3.58,0l-16,8a5,5,0,0,0-.62.39,2,2,0,0,0-1.38,1.06,2,2,0,0,0-.14,1.4,4.4,4.4,0,0,0-.07.73V31.76a4,4,0,0,0,2.21,3.58h0l16,8a3.09,3.09,0,0,0,.51.18A2,2,0,0,0,24,44a2,2,0,0,0,1.28-.47,4.45,4.45,0,0,0,.51-.19l16-8A4,4,0,0,0,44,31.76V16.24a4.4,4.4,0,0,0-.07-.73M24,8.24,37.53,15l-4.32,2.16L19.83,10.32Zm0,13.52L10.47,15l4.7-2.35L29,19.25ZM8,18.24l14,7V38.76l-14-7ZM26,38.76V25.24l5-2.5V29a1,1,0,0,0,1.6.8l2-1.5a1,1,0,0,0,.4-.8V20.74l5-2.5V31.76Z"/><g class="cls-2"><rect class="cls-1" width="48" height="48"/><g class="cls-3"><g class="cls-2"><rect class="cls-1" width="48" height="48"/><g class="cls-3"><rect class="cls-1" width="48" height="48"/></g></g></g></g></g></svg>