<svg xmlns="http://www.w3.org/2000/svg" xmlns:xlink="http://www.w3.org/1999/xlink" viewBox="0 0 48 48"><defs><style>.cls-1{fill:#000000;}.cls-2{opacity:0;}.cls-3{clip-path:url(#clip-path);}</style><clipPath id="clip-path"><rect class="cls-1" width="48" height="48"/></clipPath></defs><g id="icones"><path class="cls-1" d="M43.87,21.3l-3-8a2,2,0,0,0-1.16-1.17l-.23-.06a3.48,3.48,0,0,0-.6-.4l-13-6.93a4,4,0,0,0-3.76,0l-13,6.93a3.48,3.48,0,0,0-.6.4l-.23.06A2,2,0,0,0,7.13,13.3l-3,8a2,2,0,0,0,.93,2.46L7,24.8v8a4,4,0,0,0,2.12,3.53h0l13,6.93a4.23,4.23,0,0,0,.58.25,2,2,0,0,0,2.6,0,4.23,4.23,0,0,0,.58-.25l13-6.93A4,4,0,0,0,41,32.8V24.87l2-1.13a2,2,0,0,0,.88-2.44m-15,5.91-2.18-4.36,11.27-6,1.6,4.27ZM24,8.27,34.75,14,24,19.73,13.25,14ZM8.49,21.06l1.58-4.22,11.44,6.1-1.58,4.22ZM11,26.93l9.06,4.83a2,2,0,0,0,1.65.11,1.59,1.59,0,0,0,.29-.15v7L11,32.8ZM37,32.8,26,38.67v-8.2l.21.42a2,2,0,0,0,1.21,1A1.9,1.9,0,0,0,28,32a2,2,0,0,0,1-.26l8-4.58Z"/><g class="cls-2"><rect class="cls-1" width="48" height="48"/><g class="cls-3"><g class="cls-2"><rect class="cls-1" width="48" height="48"/><g class="cls-3"><rect class="cls-1" width="48" height="48"/></g></g></g></g></g></svg>