<svg xmlns="http://www.w3.org/2000/svg" xmlns:xlink="http://www.w3.org/1999/xlink" viewBox="0 0 48 48"><defs><style>.cls-1{fill:#ffffff;}.cls-2{opacity:0;}.cls-3{clip-path:url(#clip-path);}</style><clipPath id="clip-path"><rect class="cls-1" width="48" height="48"/></clipPath></defs><g id="icones"><g class="cls-2"><rect class="cls-1" width="48" height="48"/><g class="cls-3"><g class="cls-2"><rect class="cls-1" width="48" height="48"/><g class="cls-3"><rect class="cls-1" width="48" height="48"/></g></g></g></g><path class="cls-1" d="M34,4H14a6,6,0,0,0-6,6V38a6,6,0,0,0,6,6H34a6,6,0,0,0,6-6V10a6,6,0,0,0-6-6M14,8H34a2,2,0,0,1,2,2v6H12V10a2,2,0,0,1,2-2M34,40H14a2,2,0,0,1-2-2V20H36V38a2,2,0,0,1-2,2"/><path class="cls-1" d="M15,26h0a2,2,0,1,1,2,2,2,2,0,0,1-2-2"/><path class="cls-1" d="M15,34h0a2,2,0,1,1,2,2,2,2,0,0,1-2-2"/><path class="cls-1" d="M22,26h0a2,2,0,1,1,2,2,2,2,0,0,1-2-2"/><path class="cls-1" d="M22,34h0a2,2,0,1,1,2,2,2,2,0,0,1-2-2"/><path class="cls-1" d="M29,34V26a2,2,0,0,1,4,0v8a2,2,0,0,1-4,0"/></g></svg>