<svg xmlns="http://www.w3.org/2000/svg" xmlns:xlink="http://www.w3.org/1999/xlink" viewBox="0 0 48 48"><defs><style>.cls-1{fill:#fff333;}.cls-2{opacity:0;}.cls-3{clip-path:url(#clip-path);}</style><clipPath id="clip-path"><rect class="cls-1" width="48" height="48"/></clipPath></defs><g id="icones"><g class="cls-2"><rect class="cls-1" width="48" height="48"/><g class="cls-3"><g class="cls-2"><rect class="cls-1" width="48" height="48"/><g class="cls-3"><rect class="cls-1" width="48" height="48"/></g></g></g></g><path class="cls-1" d="M24.14,37.9V25.14l9.6-5.54v4.27a2.13,2.13,0,0,0,4.26,0V17a3.49,3.49,0,0,0-.06-.65,2.1,2.1,0,0,0-1.39-2.46,4,4,0,0,0-.47-.33l-12.3-7.1a3.48,3.48,0,0,0-3.5,0L8,13.57a4.14,4.14,0,0,0-.48.34,2.09,2.09,0,0,0-1.14.93,2.13,2.13,0,0,0-.24,1.45A4.18,4.18,0,0,0,6,17V30.79A4,4,0,0,0,8,34.22l12.31,7.1a3.45,3.45,0,0,0,.34.14A2.1,2.1,0,0,0,22,42a2.07,2.07,0,0,0,1.39-.53,2.5,2.5,0,0,0,.38-.15,2.13,2.13,0,0,0,.78-2.91,1.91,1.91,0,0,0-.42-.51M22,10.38l9.57,5.53L22,21.44l-9.58-5.53Zm-11.74,9.2,9.59,5.54V36.17l-9.59-5.53Z"/><path class="cls-1" d="M41.41,38.59,38.79,36l2.59-2.59a2,2,0,1,0-2.83-2.83L36,33.14l-2.59-2.59a2,2,0,0,0-2.83,2.83L33.14,36l-2.59,2.58a2,2,0,1,0,2.83,2.83L36,38.79l2.62,2.62a2,2,0,0,0,2.82-2.82Z"/></g></svg>