<svg xmlns="http://www.w3.org/2000/svg" xmlns:xlink="http://www.w3.org/1999/xlink" viewBox="0 0 48 48"><defs><style>.cls-1{fill:#000000;}.cls-2{opacity:0;}.cls-3{clip-path:url(#clip-path);}</style><clipPath id="clip-path"><rect class="cls-1" width="48" height="48"/></clipPath></defs><g id="icones"><g class="cls-2"><rect class="cls-1" width="48" height="48"/><g class="cls-3"><g class="cls-2"><rect class="cls-1" width="48" height="48"/><g class="cls-3"><rect class="cls-1" width="48" height="48"/></g></g></g></g><path class="cls-1" d="M15.07,31.91,34,30.19a6,6,0,0,0,4.83-3.29l.09-.22,4-11.33A4,4,0,0,0,39.16,10H12.32A6,6,0,0,0,6.67,6H6a2,2,0,0,0,0,4h.67a2,2,0,0,1,2,1.64l3.15,17.13a2,2,0,0,1-.31,1.41L8.34,34.89A2,2,0,0,0,10,38h2.18a3,3,0,1,0,5.64,0H30.18a3,3,0,1,0,5.64,0H38a2,2,0,0,0,0-4H13.74l1.06-1.6a3.84,3.84,0,0,0,.27-.49M39.16,14l-4,11.2a2,2,0,0,1-1.56,1L15.68,27.84,13.14,14Z"/></g></svg>