<svg xmlns="http://www.w3.org/2000/svg" xmlns:xlink="http://www.w3.org/1999/xlink" viewBox="0 0 48 48"><defs><style>.cls-1{fill:#ffffff;}.cls-2{opacity:0;}.cls-3{clip-path:url(#clip-path);}</style><clipPath id="clip-path"><rect class="cls-1" width="48" height="48"/></clipPath></defs><g id="icones"><path class="cls-1" d="M38,10H10a6,6,0,0,0-6,6V32a6,6,0,0,0,6,6H38a6,6,0,0,0,6-6V16a6,6,0,0,0-6-6m-1.16,4L25.32,24.16a2,2,0,0,1-2.64,0L11.16,14ZM38,34H10a2,2,0,0,1-2-2V16.55L20,27.16a6,6,0,0,0,7.94,0L40,16.55V32a2,2,0,0,1-2,2"/><g class="cls-2"><rect class="cls-1" width="48" height="48"/><g class="cls-3"><g class="cls-2"><rect class="cls-1" width="48" height="48"/><g class="cls-3"><rect class="cls-1" width="48" height="48"/></g></g></g></g></g></svg>