<svg xmlns="http://www.w3.org/2000/svg" xmlns:xlink="http://www.w3.org/1999/xlink" viewBox="0 0 48 48"><defs><style>.cls-1{fill:#ffffff;}.cls-2{opacity:0;}.cls-3{clip-path:url(#clip-path);}</style><clipPath id="clip-path"><rect class="cls-1" width="48" height="48"/></clipPath></defs><g id="icones"><path class="cls-1" d="M38,8H10a6,6,0,0,0-6,6V34a6,6,0,0,0,6,6H38a6,6,0,0,0,6-6V14a6,6,0,0,0-6-6m2,26a2,2,0,0,1-2,2H10a2,2,0,0,1-2-2V23H40Zm0-19H8V14a2,2,0,0,1,2-2H38a2,2,0,0,1,2,2Z"/><path class="cls-1" d="M13,32h9a2,2,0,0,0,0-4H13a2,2,0,0,0,0,4"/><path class="cls-1" d="M34,32h1a2,2,0,0,0,0-4H34a2,2,0,0,0,0,4"/><g class="cls-2"><rect class="cls-1" width="48" height="48"/><g class="cls-3"><g class="cls-2"><rect class="cls-1" width="48" height="48"/><g class="cls-3"><rect class="cls-1" width="48" height="48"/></g></g></g></g></g></svg>