<svg xmlns="http://www.w3.org/2000/svg" xmlns:xlink="http://www.w3.org/1999/xlink" viewBox="0 0 48 48"><defs><style>.cls-1{fill:#ffffff;}.cls-2{opacity:0;}.cls-3{clip-path:url(#clip-path);}</style><clipPath id="clip-path"><rect class="cls-1" width="48" height="48"/></clipPath></defs><g id="icones"><path class="cls-1" d="M41,19.14V18a6,6,0,0,0-6-6H30a2,2,0,0,0,0-4H10a6,6,0,0,0-6,6V34a6,6,0,0,0,6,6H35a6,6,0,0,0,6-6V32.86A4,4,0,0,0,44,29V23a4,4,0,0,0-3-3.86M28,29V23H40v6Zm7,7H10a2,2,0,0,1-2-2V14a1.89,1.89,0,0,1,.18-.82A4,4,0,0,0,12,16H35a2,2,0,0,1,2,2v1H28a4,4,0,0,0-4,4v6a4,4,0,0,0,4,4h9v1a2,2,0,0,1-2,2"/><path class="cls-1" d="M34,24a2,2,0,1,0,2,2,2,2,0,0,0-2-2"/><g class="cls-2"><rect class="cls-1" width="48" height="48"/><g class="cls-3"><g class="cls-2"><rect class="cls-1" width="48" height="48"/><g class="cls-3"><rect class="cls-1" width="48" height="48"/></g></g></g></g></g></svg>