<svg xmlns="http://www.w3.org/2000/svg" xmlns:xlink="http://www.w3.org/1999/xlink" viewBox="0 0 48 48"><defs><style>.cls-1{fill:#000000;}.cls-2{opacity:0;}.cls-3{clip-path:url(#clip-path);}</style><clipPath id="clip-path"><rect class="cls-1" width="48" height="48"/></clipPath></defs><g id="icones"><path class="cls-1" d="M34,4H15a6,6,0,0,0-6,6v4H8a2,2,0,0,0,0,4H9v4H8a2,2,0,0,0,0,4H9v4H8a2,2,0,0,0,0,4H9v4a6,6,0,0,0,6,6H34a6,6,0,0,0,6-6V10a6,6,0,0,0-6-6m2,34a2,2,0,0,1-2,2H15a2,2,0,0,1-2-2V34h1a2,2,0,0,0,0-4H13V26h1a2,2,0,0,0,0-4H13V18h1a2,2,0,0,0,0-4H13V10a2,2,0,0,1,2-2H34a2,2,0,0,1,2,2Z"/><path class="cls-1" d="M30,21a4,4,0,1,0-4,4,4,4,0,0,0,4-4"/><path class="cls-1" d="M26,25c-4,0-7,1.62-7,5H33c0-3.38-3-5-7-5"/><g class="cls-2"><rect class="cls-1" width="48" height="48"/><g class="cls-3"><g class="cls-2"><rect class="cls-1" width="48" height="48"/><g class="cls-3"><rect class="cls-1" width="48" height="48"/></g></g></g></g></g></svg>