<svg xmlns="http://www.w3.org/2000/svg" xmlns:xlink="http://www.w3.org/1999/xlink" viewBox="0 0 48 48"><defs><style>.cls-1{fill:#a65718;}.cls-2{opacity:0;}.cls-3{clip-path:url(#clip-path);}.cls-4{clip-path:url(#clip-path-2);}</style><clipPath id="clip-path"><rect class="cls-1" width="48" height="48"/></clipPath><clipPath id="clip-path-2"><rect class="cls-1" width="47.93" height="47.93"/></clipPath></defs><g id="icones"><g class="cls-2"><rect class="cls-1" width="48" height="48"/><g class="cls-3"><rect class="cls-1" width="48" height="48"/></g></g><g class="cls-2"><rect class="cls-1" width="47.93" height="47.93"/><g class="cls-4"><g class="cls-2"><rect class="cls-1" width="47.93" height="47.93"/><g class="cls-4"><rect class="cls-1" width="47.93" height="47.93"/></g></g></g></g><path class="cls-1" d="M38,20H32a4,4,0,0,1-4-4V10a4,4,0,0,1,4-4h6a4,4,0,0,1,4,4v6A4,4,0,0,1,38,20ZM32,10h0v6h6V10Z"/><path class="cls-1" d="M18,20H12a4,4,0,0,1-4-4V10a4,4,0,0,1,4-4h6a4,4,0,0,1,4,4v6A4,4,0,0,1,18,20ZM12,10h0v6h6V10Z"/><path class="cls-1" d="M18,44H12a4,4,0,0,1-4-4V34a4,4,0,0,1,4-4h6a4,4,0,0,1,4,4v6A4,4,0,0,1,18,44ZM12,34h0v6h6V34Z"/><path class="cls-1" d="M40,33H37V30a2,2,0,0,0-4,0v3H30a2,2,0,0,0,0,4h3v3a2,2,0,0,0,4,0V37h3a2,2,0,0,0,0-4"/></g></svg>