<svg xmlns="http://www.w3.org/2000/svg" xmlns:xlink="http://www.w3.org/1999/xlink" viewBox="0 0 48 48"><defs><style>.cls-1,.cls-4{fill:#000000;}.cls-2{opacity:0;}.cls-3{clip-path:url(#clip-path);}.cls-4{fill-rule:evenodd;}</style><clipPath id="clip-path"><rect class="cls-1" width="48" height="48"/></clipPath></defs><g id="icones"><g class="cls-2"><rect class="cls-1" width="48" height="48"/><g class="cls-3"><g class="cls-2"><rect class="cls-1" width="48" height="48"/><g class="cls-3"><rect class="cls-1" width="48" height="48"/></g></g></g></g><path class="cls-4" d="M14.05,29.71a3,3,0,1,1,0,4.24A3,3,0,0,1,14.05,29.71Zm-2.29,6.53a6,6,0,0,0,8.48,0l12.2-12.19a1,1,0,0,0,.29-.71,1.05,1.05,0,0,0-.29-.71l-7.07-7.07a1.05,1.05,0,0,0-.71-.29,1,1,0,0,0-.71.29L11.76,27.76a6,6,0,0,0,0,8.48M8.93,39.07a10,10,0,0,1,0-14.14L23.24,10.61a2,2,0,0,1,2.83,0L27.49,12l5.1-5.1a2,2,0,0,1,2.82,0l5.66,5.66a2,2,0,0,1,0,2.82L36,20.51l1.42,1.42a2,2,0,0,1,0,2.83L23.07,39.07a10,10,0,0,1-14.14,0"/></g></svg>