<svg xmlns="http://www.w3.org/2000/svg" viewBox="0 0 48 48"><defs><style>.cls-1{opacity:0;}.cls-2{fill:#ffffff;}</style></defs><g id="icones"><g class="cls-1"><g class="cls-1"><rect class="cls-2" width="48" height="48"/></g></g><path class="cls-2" d="M36.56,6a4,4,0,0,1,3.79,3L43.9,20.7a2.38,2.38,0,0,1-.28,2A1.93,1.93,0,0,1,42,23.6H12v14h4V29.1a2.46,2.46,0,0,1,.11-.72,2.08,2.08,0,0,1,.46-.82,2,2,0,0,1,.77-.54A1.78,1.78,0,0,1,18,26.9h6a2.1,2.1,0,0,1,2,2.2h0a2.11,2.11,0,0,1-2,2.2H20v8.5A2.11,2.11,0,0,1,18,42H10a2.11,2.11,0,0,1-2-2.2V23.6H6a1.93,1.93,0,0,1-1.62-.92,2.38,2.38,0,0,1-.28-2L7.65,9a4,4,0,0,1,3.79-3Zm-.06,4.4h-25s-1.27,4-2.73,8.8H39.23Z"/><path class="cls-2" d="M32.6,40.37l2.92-4.85,4.85-2.92a1,1,0,0,0-.32-1.83l-9-.77A1,1,0,0,0,30,31.08l.77,9A1,1,0,0,0,32.6,40.37Z"/><path class="cls-2" d="M34.94,32h4a0,0,0,0,1,0,0v8a2,2,0,0,1-2,2h0a2,2,0,0,1-2-2V32A0,0,0,0,1,34.94,32Z" transform="translate(-15.34 36.96) rotate(-45)"/></g></svg>