<svg xmlns="http://www.w3.org/2000/svg" xmlns:xlink="http://www.w3.org/1999/xlink" viewBox="0 0 48 48"><defs><style>.cls-1{fill:#ffffff;}.cls-2{opacity:0;}.cls-3{clip-path:url(#clip-path);}</style><clipPath id="clip-path"><rect class="cls-1" width="48" height="48"/></clipPath></defs><g id="icones"><path class="cls-1" d="M6,10a2,2,0,0,0-2,2V36a2,2,0,0,0,4,0V12a2,2,0,0,0-2-2"/><path class="cls-1" d="M14,10a2,2,0,0,0-2,2V36a2,2,0,0,0,4,0V12a2,2,0,0,0-2-2"/><path class="cls-1" d="M22,10a2,2,0,0,0-2,2V36a2,2,0,0,0,4,0V12a2,2,0,0,0-2-2"/><path class="cls-1" d="M34,10H30a2,2,0,0,0-2,2V36a2,2,0,0,0,2,2h4a2,2,0,0,0,2-2V12a2,2,0,0,0-2-2"/><path class="cls-1" d="M42,10a2,2,0,0,0-2,2V36a2,2,0,0,0,4,0V12a2,2,0,0,0-2-2"/><g class="cls-2"><rect class="cls-1" width="48" height="48"/><g class="cls-3"><g class="cls-2"><rect class="cls-1" width="48" height="48"/><g class="cls-3"><rect class="cls-1" width="48" height="48"/></g></g></g></g></g></svg>