<svg xmlns="http://www.w3.org/2000/svg" xmlns:xlink="http://www.w3.org/1999/xlink" viewBox="0 0 48 48"><defs><style>.cls-1{fill:#a65718;}.cls-2{opacity:0;}.cls-3{clip-path:url(#clip-path);}</style><clipPath id="clip-path"><rect class="cls-1" width="48" height="48"/></clipPath></defs><g id="icones"><g class="cls-2"><rect class="cls-1" width="48" height="48"/><g class="cls-3"><g class="cls-2"><rect class="cls-1" width="48" height="48"/><g class="cls-3"><rect class="cls-1" width="48" height="48"/></g></g></g></g><path class="cls-1" d="M34,25a8,8,0,0,0-6,2.75l-6.16-3.08A7.7,7.7,0,0,0,22,23a8.07,8.07,0,0,0-.17-1.64L26,18.85A7,7,0,1,0,24,14a7.31,7.31,0,0,0,.13,1.33l-4.08,2.45a8,8,0,1,0,0,10.47l6.16,3.08A7.7,7.7,0,0,0,26,33a8,8,0,1,0,8-8ZM31,11a3,3,0,1,1-3,3A3,3,0,0,1,31,11ZM14,27a4,4,0,1,1,4-4A4,4,0,0,1,14,27ZM34,37a4,4,0,1,1,4-4A4,4,0,0,1,34,37Z"/></g></svg>