<svg xmlns="http://www.w3.org/2000/svg" xmlns:xlink="http://www.w3.org/1999/xlink" viewBox="0 0 48 48"><defs><style>.cls-1{fill:#000000;}.cls-2{opacity:0;}.cls-3{clip-path:url(#clip-path);}</style><clipPath id="clip-path"><rect class="cls-1" width="48" height="48"/></clipPath></defs><g id="icones"><g class="cls-2"><rect class="cls-1" width="48" height="48"/><g class="cls-3"><g class="cls-2"><rect class="cls-1" width="48" height="48"/><g class="cls-3"><rect class="cls-1" width="48" height="48"/></g></g></g></g><path class="cls-1" d="M41.36,25.94,40,25.13c0-.39,0-.76,0-1.13s0-.74,0-1.13l1.41-.81a4,4,0,0,0,1.46-5.46l-3-5.2a4,4,0,0,0-5.46-1.46l-1.4.81a16.59,16.59,0,0,0-2-1.13V8a4,4,0,0,0-4-4H21a4,4,0,0,0-4,4V9.62a16.59,16.59,0,0,0-2,1.13l-1.4-.81A4,4,0,0,0,8.18,11.4l-3,5.2a4,4,0,0,0,1.46,5.46l1.41.81a12.79,12.79,0,0,0,0,2.26l-1.41.81A4,4,0,0,0,5.18,31.4l3,5.2a4,4,0,0,0,5.46,1.46l1.4-.81a16.59,16.59,0,0,0,2,1.13V40a4,4,0,0,0,4,4h6a4,4,0,0,0,4-4V38.38a16.59,16.59,0,0,0,2-1.13l1.4.81a4,4,0,0,0,5.46-1.46l3-5.2a4,4,0,0,0-1.46-5.46m-5.52-3.83a11.24,11.24,0,0,1,0,3.78l-.22,1.36,3.74,2.15-3,5.2-3.73-2.15-1.07.86a11.94,11.94,0,0,1-3.27,1.89L27,35.69V40H21V35.69l-1.29-.49a11.94,11.94,0,0,1-3.27-1.89l-1.07-.86L11.64,34.6l-3-5.2,3.74-2.15-.22-1.36a11.24,11.24,0,0,1,0-3.78l.22-1.35L8.64,18.6l3-5.2,3.73,2.15,1.07-.86a11.94,11.94,0,0,1,3.27-1.89L21,12.31V8h6v4.31l1.29.49a11.94,11.94,0,0,1,3.27,1.89l1.07.86,3.73-2.15,3,5.2-3.74,2.16Z"/><path class="cls-1" d="M24,16a8,8,0,1,0,8,8,8,8,0,0,0-8-8m0,12a4,4,0,1,1,4-4,4,4,0,0,1-4,4"/></g></svg>