<svg xmlns="http://www.w3.org/2000/svg" xmlns:xlink="http://www.w3.org/1999/xlink" viewBox="0 0 48 48"><defs><style>.cls-1{fill:#a65718;}.cls-2{opacity:0;}.cls-3{clip-path:url(#clip-path);}</style><clipPath id="clip-path"><rect class="cls-1" width="48" height="48"/></clipPath></defs><g id="icones"><g class="cls-2"><rect class="cls-1" width="48" height="48"/><g class="cls-3"><g class="cls-2"><rect class="cls-1" width="48" height="48"/><g class="cls-3"><rect class="cls-1" width="48" height="48"/></g></g></g></g><path class="cls-1" d="M39.41,12.59l-8-8A2,2,0,0,0,30,4H18a6,6,0,0,0-6,6v2a2,2,0,0,0,4,0V10a2,2,0,0,1,2-2h9v5a4,4,0,0,0,4,4h5V38a2,2,0,0,1-2,2H18a2,2,0,0,1-2-2V34a2,2,0,0,0-4,0v4a6,6,0,0,0,6,6H34a6,6,0,0,0,6-6V14a2,2,0,0,0-.59-1.41"/><path class="cls-1" d="M28,36V32L12.41,16.41a2,2,0,0,0-2.82,0L8.41,17.59a2,2,0,0,0,0,2.82L24,36Z"/></g></svg>