<svg xmlns="http://www.w3.org/2000/svg" xmlns:xlink="http://www.w3.org/1999/xlink" viewBox="0 0 48 48"><defs><style>.cls-1{fill:#fff333;}.cls-2{opacity:0;}.cls-3{clip-path:url(#clip-path);}</style><clipPath id="clip-path"><rect class="cls-1" width="48" height="48"/></clipPath></defs><g id="icones"><g class="cls-2"><rect class="cls-1" width="48" height="48"/><g class="cls-3"><rect class="cls-1" width="48" height="48"/></g></g><path class="cls-1" d="M22,19v6a2,2,0,0,0,4,0V19a2,2,0,0,0-4,0"/><path class="cls-1" d="M36,15,37.5,13.5a2.12,2.12,0,0,0-3-3l-1.88,1.88A16.69,16.69,0,0,0,26,10.13V8h3a2,2,0,0,0,0-4H19a2,2,0,0,0,0,4h3v2.13A17,17,0,1,0,36,15M24,40A13,13,0,1,1,37,27,13,13,0,0,1,24,40"/></g></svg>