<svg xmlns="http://www.w3.org/2000/svg" xmlns:xlink="http://www.w3.org/1999/xlink" viewBox="0 0 48 48"><defs><style>.cls-1{fill:#a65718;}.cls-2{opacity:0;}.cls-3{clip-path:url(#clip-path);}</style><clipPath id="clip-path"><rect class="cls-1" width="48" height="48"/></clipPath></defs><g id="icones"><path class="cls-1" d="M28.79,40H9a5,5,0,0,1-5-5V13A5,5,0,0,1,9,8H28.79A7,7,0,0,1,34,10.29l8.68,9.53a6,6,0,0,1-.06,8.42L34,37.71A7,7,0,0,1,28.79,40M9,12a1,1,0,0,0-1,1V35a1,1,0,0,0,1,1H28.79A3,3,0,0,0,31,35l8.68-9.54a2,2,0,0,0,.07-2.9L31,13a3,3,0,0,0-2.22-1Z"/><g class="cls-2"><rect class="cls-1" width="48" height="48"/><g class="cls-3"><rect class="cls-1" width="48" height="48"/></g></g></g></svg>