<svg xmlns="http://www.w3.org/2000/svg" xmlns:xlink="http://www.w3.org/1999/xlink" viewBox="0 0 48 48"><defs><style>.cls-1{fill:#ffffff;}.cls-2{opacity:0;}.cls-3{clip-path:url(#clip-path);}</style><clipPath id="clip-path"><rect class="cls-1" width="48" height="48"/></clipPath></defs><g id="icones"><g class="cls-2"><rect class="cls-1" width="48" height="48"/><g class="cls-3"><g class="cls-2"><rect class="cls-1" width="48" height="48"/><g class="cls-3"><rect class="cls-1" width="48" height="48"/></g></g></g></g><path class="cls-1" d="M38,6H17a5.82,5.82,0,0,0-6,5.6V23.33A5.85,5.85,0,0,0,17,29H29.08l5.52,5.43A2,2,0,0,0,36,35a2.07,2.07,0,0,0,.77-.15A2,2,0,0,0,38,33V29a5.85,5.85,0,0,0,6-5.67V11.6A5.75,5.75,0,0,0,38,6m2,17.33A1.86,1.86,0,0,1,38,25H36a2,2,0,0,0-2,2v1.23l-2.7-2.66A2,2,0,0,0,29.9,25H17a1.86,1.86,0,0,1-2-1.67V11.6A1.82,1.82,0,0,1,17,10H38a1.82,1.82,0,0,1,2,1.6Z"/><path class="cls-1" d="M26,32H18.1a2,2,0,0,0-1.4.57L14,35.23V34a2,2,0,0,0-2-2H10a1.86,1.86,0,0,1-2-1.67V16a2,2,0,0,0-4,0V30.33A5.85,5.85,0,0,0,10,36v4a2,2,0,0,0,1.23,1.85A2.07,2.07,0,0,0,12,42a2,2,0,0,0,1.4-.57L18.92,36H26a2,2,0,0,0,0-4"/><polygon class="cls-1" points="27 12 23 19 27 19 27 23 31 16 27 16 27 12"/></g></svg>