<svg xmlns="http://www.w3.org/2000/svg" xmlns:xlink="http://www.w3.org/1999/xlink" viewBox="0 0 48 48"><defs><style>.cls-1{fill:#fff333;}.cls-2{opacity:0;}.cls-3{clip-path:url(#clip-path);}</style><clipPath id="clip-path"><rect class="cls-1" width="48" height="48"/></clipPath></defs><g id="icones"><g class="cls-2"><rect class="cls-1" width="48" height="48"/><g class="cls-3"><g class="cls-2"><rect class="cls-1" width="48" height="48"/><g class="cls-3"><rect class="cls-1" width="48" height="48"/></g></g></g></g><path class="cls-1" d="M37.41,12.59l-8-8A2,2,0,0,0,28,4H16a6,6,0,0,0-6,6V38a6,6,0,0,0,6,6H32a6,6,0,0,0,6-6V14a2,2,0,0,0-.59-1.41M32,40H16a2,2,0,0,1-2-2V10a2,2,0,0,1,2-2h9v5a4,4,0,0,0,4,4h5V38a2,2,0,0,1-2,2"/><path class="cls-1" d="M29,21H19a2,2,0,0,0,0,4H29a2,2,0,0,0,0-4"/><path class="cls-1" d="M29,28H19a2,2,0,0,0,0,4H29a2,2,0,0,0,0-4"/></g></svg>