<svg xmlns="http://www.w3.org/2000/svg" xmlns:xlink="http://www.w3.org/1999/xlink" viewBox="0 0 48 48"><defs><style>.cls-1{fill:#ffffff;}.cls-2{opacity:0;}.cls-3{clip-path:url(#clip-path);}</style><clipPath id="clip-path"><rect class="cls-1" width="48" height="48"/></clipPath></defs><g id="icones"><g class="cls-2"><rect class="cls-1" width="48" height="48"/><g class="cls-3"><g class="cls-2"><rect class="cls-1" width="48" height="48"/><g class="cls-3"><rect class="cls-1" width="48" height="48"/></g></g></g></g><path class="cls-1" d="M14,40h0a2,2,0,0,1-2-2V10a2,2,0,0,1,2-2h9v5a4,4,0,0,0,4,4h5v9a2,2,0,0,0,2,2h0a2,2,0,0,0,2-2V14a2,2,0,0,0-.59-1.41l-8-8A2,2,0,0,0,26,4H14a6,6,0,0,0-6,6V38a6,6,0,0,0,6,6h0a2,2,0,0,0,2-2h0A2,2,0,0,0,14,40Z"/><path class="cls-1" d="M19,35v5a4,4,0,0,0,4,4h0a2,2,0,0,0,2-2h0a2,2,0,0,0-2-2h0V35h6a2,2,0,0,0,2,2h0a2,2,0,0,0,2-2h0a4,4,0,0,0-4-4H23A4,4,0,0,0,19,35Z"/><path class="cls-1" d="M40,40V35a4,4,0,0,0-4-4h0a2,2,0,0,0-2,2h0a2,2,0,0,0,2,2h0v5H30a2,2,0,0,0-2-2h0a2,2,0,0,0-2,2h0a4,4,0,0,0,4,4h6A4,4,0,0,0,40,40Z"/></g></svg>