<svg xmlns="http://www.w3.org/2000/svg" xmlns:xlink="http://www.w3.org/1999/xlink" viewBox="0 0 48 48"><defs><style>.cls-1{fill:#a65718;}.cls-2{opacity:0;}.cls-3{clip-path:url(#clip-path);}</style><clipPath id="clip-path"><rect class="cls-1" width="48" height="48"/></clipPath></defs><g id="icones"><g class="cls-2"><rect class="cls-1" width="48" height="48"/><g class="cls-3"><g class="cls-2"><rect class="cls-1" width="48" height="48"/><g class="cls-3"><rect class="cls-1" width="48" height="48"/></g></g></g></g><rect class="cls-1" x="16" y="16" width="4" height="10" rx="2"/><rect class="cls-1" x="16" y="28" width="4" height="4" rx="2"/><path class="cls-1" d="M25.17,4H14a6,6,0,0,0-6,6V33a6,6,0,0,0,6,6h2a2,2,0,0,0,2-2h0a2,2,0,0,0-2-2H14a2,2,0,0,1-2-2V10a2,2,0,0,1,2-2h8v5a4,4,0,0,0,4,4h5v8a2,2,0,0,0,2,2h0a2,2,0,0,0,2-2V13.83a2,2,0,0,0-.59-1.42L26.59,4.59A2,2,0,0,0,25.17,4Z"/><path class="cls-1" d="M29,44h0a2,2,0,0,1-1.42-.59l-5-5a2,2,0,1,1,2.82-2.83L29,39.17l7.59-7.58a2,2,0,0,1,2.82,2.82l-9,9A2,2,0,0,1,29,44Z"/></g></svg>