<svg xmlns="http://www.w3.org/2000/svg" xmlns:xlink="http://www.w3.org/1999/xlink" viewBox="0 0 48 48"><defs><style>.cls-1{fill:#fff333;}.cls-2{opacity:0;}.cls-3{clip-path:url(#clip-path);}</style><clipPath id="clip-path"><rect class="cls-1" width="48" height="48"/></clipPath></defs><g id="icones"><g class="cls-2"><rect class="cls-1" width="48" height="48"/><g class="cls-3"><g class="cls-2"><rect class="cls-1" width="48" height="48"/><g class="cls-3"><rect class="cls-1" width="48" height="48"/></g></g></g></g><path class="cls-1" d="M25.17,4H14a6,6,0,0,0-6,6V33a6,6,0,0,0,6,6h7a2,2,0,0,0,2-2h0a2,2,0,0,0-2-2H14a2,2,0,0,1-2-2V10a2,2,0,0,1,2-2h8v5a4,4,0,0,0,4,4h5v7a2,2,0,0,0,2,2h0a2,2,0,0,0,2-2V13.83a2,2,0,0,0-.59-1.42L26.59,4.59A2,2,0,0,0,25.17,4Z"/><rect class="cls-1" x="26" y="35" width="14" height="4" rx="2"/><rect class="cls-1" x="31" y="30" width="4" height="14" rx="2"/></g></svg>