<svg xmlns="http://www.w3.org/2000/svg" xmlns:xlink="http://www.w3.org/1999/xlink" viewBox="0 0 48 48"><defs><style>.cls-1{fill:#a65718;}.cls-2{opacity:0;}.cls-3{clip-path:url(#clip-path);}</style><clipPath id="clip-path"><rect class="cls-1" width="48" height="48"/></clipPath></defs><g id="icones"><path class="cls-1" d="M14.8,25.6l8,6A2,2,0,0,0,24,32a2,2,0,0,0,1.2-.4l8-6a2,2,0,0,0-2.4-3.2L26,26V10a2,2,0,0,0-4,0V26l-4.8-3.6a2,2,0,0,0-2.4,3.2"/><path class="cls-1" d="M42,26a2,2,0,0,0-2,2v6a2,2,0,0,1-2,2H10a2,2,0,0,1-2-2V28a2,2,0,0,0-4,0v6a6,6,0,0,0,6,6H38a6,6,0,0,0,6-6V28a2,2,0,0,0-2-2"/><g class="cls-2"><rect class="cls-1" width="48" height="48"/><g class="cls-3"><g class="cls-2"><rect class="cls-1" width="48" height="48"/><g class="cls-3"><rect class="cls-1" width="48" height="48"/></g></g></g></g></g></svg>