<svg xmlns="http://www.w3.org/2000/svg" xmlns:xlink="http://www.w3.org/1999/xlink" viewBox="0 0 48 48"><defs><style>.cls-1{fill:#a65718;}.cls-2{opacity:0;}.cls-3{clip-path:url(#clip-path);}</style><clipPath id="clip-path"><rect class="cls-1" width="48" height="48"/></clipPath></defs><g id="icones"><g class="cls-2"><rect class="cls-1" width="48" height="48"/><g class="cls-3"><g class="cls-2"><rect class="cls-1" width="48" height="48"/><g class="cls-3"><rect class="cls-1" width="48" height="48"/></g></g></g></g><path class="cls-1" d="M24,4A20,20,0,1,0,44,24,20,20,0,0,0,24,4m0,36A16,16,0,1,1,40,24,16,16,0,0,1,24,40"/><path class="cls-1" d="M24,12a7,7,0,0,0-7,7h4a3,3,0,0,1,6,0c0,.54-1.12,1.68-1.85,2.43C23.67,22.94,22,24.65,22,27v2h4V27c0-.72,1.11-1.85,2-2.77,1.4-1.44,3-3.06,3-5.23a7,7,0,0,0-7-7"/><path class="cls-1" d="M24,32a2,2,0,1,0,2,2,2,2,0,0,0-2-2"/></g></svg>