<svg xmlns="http://www.w3.org/2000/svg" xmlns:xlink="http://www.w3.org/1999/xlink" viewBox="0 0 48 48"><defs><style>.cls-1{fill:#a65718;}.cls-2{opacity:0;}.cls-3{clip-path:url(#clip-path);}</style><clipPath id="clip-path"><rect class="cls-1" width="48" height="48"/></clipPath></defs><g id="icones"><path class="cls-1" d="M40.59,8.76,39.24,7.41a6,6,0,0,0-8.48,0L9.56,28.62a6,6,0,0,0-1.71,3.49l-.67,5.37a3,3,0,0,0,3,3.37l.37,0,5.37-.68a6,6,0,0,0,3.49-1.71l21.21-21.2a6,6,0,0,0,0-8.48m-24,26.86a2.09,2.09,0,0,1-1.17.57l-.3,0-3.31-3.31,0-.3a2.09,2.09,0,0,1,.57-1.17L28,15.83,32.17,20Zm21.2-21.21L35,17.17,30.83,13l2.76-2.76h0a2,2,0,0,1,2.82,0l1.35,1.35a2,2,0,0,1,0,2.82"/><g class="cls-2"><rect class="cls-1" width="48" height="48"/><g class="cls-3"><g class="cls-2"><rect class="cls-1" width="48" height="48"/><g class="cls-3"><rect class="cls-1" width="48" height="48"/></g></g></g></g></g></svg>