<svg xmlns="http://www.w3.org/2000/svg" xmlns:xlink="http://www.w3.org/1999/xlink" viewBox="0 0 48 48"><defs><style>.cls-1{fill:#a65718;}.cls-2{opacity:0;}.cls-3{clip-path:url(#clip-path);}</style><clipPath id="clip-path"><rect class="cls-1" width="48" height="48"/></clipPath></defs><g id="icones"><g class="cls-2"><rect class="cls-1" width="48" height="48"/><g class="cls-3"><rect class="cls-1" width="48" height="48"/></g></g><path class="cls-1" d="M40.34,8.3a2,2,0,0,0-2.08-.16L7.92,23.73a2,2,0,0,0-1.09,1.92A2,2,0,0,0,8.18,27.4l9.58,3.32v7.36A2,2,0,0,0,19.17,40a2.06,2.06,0,0,0,.59.09,2,2,0,0,0,1.65-.87l4-5.83,9.36,3.24a2.06,2.06,0,0,0,.65.11,2,2,0,0,0,1-.29A2,2,0,0,0,37.42,35l3.73-24.81A2,2,0,0,0,40.34,8.3Zm-8.78,7.78L19.31,27,13.9,25.15Zm2.26,16L23.63,28.52,36,17.46Z"/></g></svg>