<svg xmlns="http://www.w3.org/2000/svg" xmlns:xlink="http://www.w3.org/1999/xlink" viewBox="0 0 48 48"><defs><style>.cls-1{fill:#fff333;}.cls-2{opacity:0;}.cls-3{clip-path:url(#clip-path);}</style><clipPath id="clip-path"><rect class="cls-1" width="48" height="48"/></clipPath></defs><g id="icones"><path class="cls-1" d="M38,11H17a6,6,0,0,0-5.65,4H6a2,2,0,0,0,0,4h5v3H8a2,2,0,0,0,0,4h3v3H6a2,2,0,0,0,0,4h5.35A6,6,0,0,0,17,37H38a6,6,0,0,0,6-6V17a6,6,0,0,0-6-6m0,4,.16,0-9.27,7.43a2.44,2.44,0,0,1-2.78,0L16.84,15,17,15Zm0,18H17a2,2,0,0,1-2-2V18.67l8.61,6.9a6.43,6.43,0,0,0,7.78,0L40,18.67V31a2,2,0,0,1-2,2"/><g class="cls-2"><rect class="cls-1" width="48" height="48"/><g class="cls-3"><g class="cls-2"><rect class="cls-1" width="48" height="48"/><g class="cls-3"><rect class="cls-1" width="48" height="48"/></g></g></g></g></g></svg>