<svg xmlns="http://www.w3.org/2000/svg" xmlns:xlink="http://www.w3.org/1999/xlink" viewBox="0 0 48 48"><defs><style>.cls-1{fill:#fff333;}.cls-2{opacity:0;}.cls-3{clip-path:url(#clip-path);}</style><clipPath id="clip-path"><rect class="cls-1" width="48" height="48"/></clipPath></defs><g id="icones"><g class="cls-2"><rect class="cls-1" width="48" height="48"/><g class="cls-3"><g class="cls-2"><rect class="cls-1" width="48" height="48"/><g class="cls-3"><rect class="cls-1" width="48" height="48"/></g></g></g></g><path class="cls-1" d="M41,35.49,31.39,23.94A6,6,0,0,1,30,20.1V10h2a2,2,0,0,0,0-4H16a2,2,0,0,0,0,4h2V20.1a6,6,0,0,1-1.39,3.84L6.93,35.54A4,4,0,0,0,10.09,42H37.91a4,4,0,0,0,3.59-2.24A4,4,0,0,0,41,35.49M10.09,38l9.59-11.49A10,10,0,0,0,22,20.1V10h4V20.1a10,10,0,0,0,2.32,6.41L37.91,38Z"/><rect class="cls-1" x="10" y="33" width="28" height="5"/></g></svg>