<svg xmlns="http://www.w3.org/2000/svg" xmlns:xlink="http://www.w3.org/1999/xlink" viewBox="0 0 48 48"><defs><style>.cls-1{fill:#ffffff;}.cls-2{opacity:0;}.cls-3{clip-path:url(#clip-path);}</style><clipPath id="clip-path"><rect class="cls-1" width="48" height="48"/></clipPath></defs><g id="icones"><path class="cls-1" d="M33.79,40.37a2,2,0,0,1-.93-.23L24,35.48l-8.86,4.66A2,2,0,0,1,13,40a2,2,0,0,1-.8-2l1.7-9.87-7.18-7a2,2,0,0,1,1.11-3.41l9.91-1.44,4.44-9a2,2,0,0,1,3.58,0l4.44,9,9.91,1.44a2,2,0,0,1,1.11,3.41l-7.18,7L35.77,38a2,2,0,0,1-2,2.34M24,31.22a2,2,0,0,1,.93.23l6.21,3.27L30,27.8A2,2,0,0,1,30.53,26l5-4.89-6.94-1A2,2,0,0,1,27.1,19L24,12.75,20.9,19a2,2,0,0,1-1.51,1.1l-6.94,1,5,4.89a2,2,0,0,1,.58,1.77l-1.19,6.92,6.21-3.27a2,2,0,0,1,.93-.23"/><g class="cls-2"><rect class="cls-1" width="48" height="48"/><g class="cls-3"><rect class="cls-1" width="48" height="48"/></g></g></g></svg>