<svg xmlns="http://www.w3.org/2000/svg" xmlns:xlink="http://www.w3.org/1999/xlink" viewBox="0 0 48 48"><defs><style>.cls-1{fill:#a65718;}.cls-2{opacity:0;}.cls-3{clip-path:url(#clip-path);}</style><clipPath id="clip-path"><rect class="cls-1" width="48" height="48"/></clipPath></defs><g id="icones"><g class="cls-2"><rect class="cls-1" width="48" height="48"/><g class="cls-3"><rect class="cls-1" width="48" height="48"/></g></g><path class="cls-1" d="M42.2,22.4,26.56,6.76A6,6,0,0,0,21.77,5L11.4,6A6,6,0,0,0,6,11.4L5,21.77a6,6,0,0,0,1.74,4.79L22.4,42.2a6,6,0,0,0,8.49,0L42.2,30.89a6,6,0,0,0,0-8.49m-2.82,5.66L28.06,39.37a2,2,0,0,1-2.83,0L9.59,23.73A2,2,0,0,1,9,22.13L10,11.76A2,2,0,0,1,11.76,10L22.13,9a2,2,0,0,1,1.6.57L39.38,25.23a2,2,0,0,1,0,2.83"/><path class="cls-1" d="M19.58,13.57a6,6,0,1,0,4.24,1.76,6,6,0,0,0-4.24-1.76M21,21a2.06,2.06,0,0,1-2.83,0A2,2,0,1,1,21,21"/></g></svg>