<svg xmlns="http://www.w3.org/2000/svg" xmlns:xlink="http://www.w3.org/1999/xlink" viewBox="0 0 48 48"><defs><style>.cls-1{fill:#a65718;}.cls-2{opacity:0;}.cls-3{clip-path:url(#clip-path);}</style><clipPath id="clip-path"><rect class="cls-1" width="48" height="48"/></clipPath></defs><g id="icones"><g class="cls-2"><rect class="cls-1" width="48" height="48"/><g class="cls-3"><g class="cls-2"><rect class="cls-1" width="48" height="48"/><g class="cls-3"><rect class="cls-1" width="48" height="48"/></g></g></g></g><rect class="cls-1" x="32.21" y="22" width="4" height="10" rx="1"/><rect class="cls-1" x="26.21" y="22" width="4" height="10" rx="1"/><rect class="cls-1" x="20.21" y="22" width="4" height="10" rx="1"/><path class="cls-1" d="M40.21,8h-32a4,4,0,0,0-4,4h0V36h0a4,4,0,0,0,4,4h32a4,4,0,0,0,4-4h0V12h0a4,4,0,0,0-4-4Zm-2,28h-28a2,2,0,0,1-2-2V14a2,2,0,0,1,2-2h28a2,2,0,0,1,2,2V34A2,2,0,0,1,38.21,36Z"/></g></svg>