<svg xmlns="http://www.w3.org/2000/svg" xmlns:xlink="http://www.w3.org/1999/xlink" viewBox="0 0 48 48"><defs><style>.cls-1{fill:#fff333;}.cls-2{opacity:0;}.cls-3{clip-path:url(#clip-path);}</style><clipPath id="clip-path"><rect class="cls-1" width="48" height="48"/></clipPath></defs><g id="icones"><g class="cls-2"><rect class="cls-1" width="48" height="48"/><g class="cls-3"><g class="cls-2"><rect class="cls-1" width="48" height="48"/><g class="cls-3"><rect class="cls-1" width="48" height="48"/></g></g></g></g><path class="cls-1" d="M26.83,24,38.41,12.41a2,2,0,0,0-2.82-2.82L24,21.17,12.41,9.59a2,2,0,0,0-2.82,2.82L21.17,24,9.59,35.59a2,2,0,0,0,0,2.82,2,2,0,0,0,2.82,0L24,26.83,35.59,38.41a2,2,0,0,0,2.82,0,2,2,0,0,0,0-2.82Z"/></g></svg>