<svg xmlns="http://www.w3.org/2000/svg" xmlns:xlink="http://www.w3.org/1999/xlink" viewBox="0 0 48 48"><defs><style>.cls-1{fill:#fff333;}.cls-2{opacity:0;}.cls-3{clip-path:url(#clip-path);}</style><clipPath id="clip-path"><rect class="cls-1" width="48" height="48"/></clipPath></defs><g id="icones"><g class="cls-2"><rect class="cls-1" width="48" height="48"/><g class="cls-3"><g class="cls-2"><rect class="cls-1" width="48" height="48"/><g class="cls-3"><rect class="cls-1" width="48" height="48"/></g></g></g></g><path class="cls-1" d="M36,25a2,2,0,0,0-2,2v8a2,2,0,0,1-2,2H12a2,2,0,0,1-2-2V15a2,2,0,0,1,2-2h8a2,2,0,0,0,0-4H12a6,6,0,0,0-6,6V35a6,6,0,0,0,6,6H32a6,6,0,0,0,6-6V27a2,2,0,0,0-2-2"/><path class="cls-1" d="M41,19l-1.41-9.9a2,2,0,0,0-1.7-1.7L28,6a2,2,0,0,0-.57,4l5.94.85L18.59,25.59a2,2,0,1,0,2.82,2.82L36.17,13.66,37,19.6a2,2,0,0,0,2,1.71,1.32,1.32,0,0,0,.28,0A2,2,0,0,0,41,19"/></g></svg>