<svg xmlns="http://www.w3.org/2000/svg" xmlns:xlink="http://www.w3.org/1999/xlink" viewBox="0 0 48 48"><defs><style>.cls-1{fill:#fff333;}.cls-2{opacity:0;}.cls-3{clip-path:url(#clip-path);}</style><clipPath id="clip-path"><rect class="cls-1" width="48" height="48"/></clipPath></defs><g id="icones"><path class="cls-1" d="M37.58,18h.84A1.58,1.58,0,0,0,40,16.42v-.84A1.58,1.58,0,0,0,38.42,14h-.84A1.58,1.58,0,0,1,36,12.42v-.84A1.58,1.58,0,0,1,37.58,10h.54a1.59,1.59,0,0,0,1.49-2.14A6.13,6.13,0,0,0,37.5,5.13,1.58,1.58,0,0,0,35,6.42,1.58,1.58,0,0,1,33.42,8h-.84A1.58,1.58,0,0,1,31,6.42V5.58A1.58,1.58,0,0,0,29.42,4H27.58A1.58,1.58,0,0,0,26,5.58v.84A1.58,1.58,0,0,1,24.42,8h-.84A1.58,1.58,0,0,1,22,6.42V5.58A1.58,1.58,0,0,0,20.42,4H18.58A1.58,1.58,0,0,0,17,5.58v.84A1.58,1.58,0,0,1,15.42,8h-.84a1.36,1.36,0,0,1-1.1-.66l-.79-1.52a1.55,1.55,0,0,0-2.34-.57A6,6,0,0,0,8.4,7.86,1.58,1.58,0,0,0,9.88,10h.46A1.6,1.6,0,0,1,12,11.58v.84A1.58,1.58,0,0,1,10.42,14H9.58A1.58,1.58,0,0,0,8,15.58v.84A1.58,1.58,0,0,0,9.58,18h.84A1.58,1.58,0,0,1,12,19.58v.84A1.58,1.58,0,0,1,10.42,22H9.58A1.58,1.58,0,0,0,8,23.58v.84A1.58,1.58,0,0,0,9.58,26h.84A1.58,1.58,0,0,1,12,27.58v.84A1.58,1.58,0,0,1,10.42,30H9.58A1.58,1.58,0,0,0,8,31.58v.84A1.58,1.58,0,0,0,9.58,34h.84A1.58,1.58,0,0,1,12,35.58v.84A1.58,1.58,0,0,1,10.42,38H9.88a1.59,1.59,0,0,0-1.49,2.14,6.13,6.13,0,0,0,2.11,2.73A1.59,1.59,0,0,0,13,41.58,1.58,1.58,0,0,1,14.58,40h.84A1.58,1.58,0,0,1,17,41.58v.84A1.58,1.58,0,0,0,18.58,44h1.84A1.58,1.58,0,0,0,22,42.42v-.84A1.58,1.58,0,0,1,23.58,40h.84A1.58,1.58,0,0,1,26,41.58v.84A1.58,1.58,0,0,0,27.58,44h1.84A1.58,1.58,0,0,0,31,42.42v-.84A1.58,1.58,0,0,1,32.58,40h.84A1.58,1.58,0,0,1,35,41.58a1.59,1.59,0,0,0,2.5,1.29,6.13,6.13,0,0,0,2.11-2.73A1.59,1.59,0,0,0,38.12,38h-.46A1.6,1.6,0,0,1,36,36.42v-.84A1.58,1.58,0,0,1,37.58,34h.84A1.58,1.58,0,0,0,40,32.42v-.84A1.58,1.58,0,0,0,38.42,30h-.84A1.58,1.58,0,0,1,36,28.42v-.84A1.58,1.58,0,0,1,37.58,26h.84A1.58,1.58,0,0,0,40,24.42v-.84A1.58,1.58,0,0,0,38.42,22h-.84A1.58,1.58,0,0,1,36,20.42v-.84A1.58,1.58,0,0,1,37.58,18M32,34.42A1.58,1.58,0,0,1,30.42,36H17.58A1.58,1.58,0,0,1,16,34.42V13.58A1.58,1.58,0,0,1,17.58,12H30.42A1.58,1.58,0,0,1,32,13.58Z"/><g class="cls-2"><rect class="cls-1" width="48" height="48"/><g class="cls-3"><g class="cls-2"><rect class="cls-1" width="48" height="48"/><g class="cls-3"><rect class="cls-1" width="48" height="48"/></g></g></g></g></g></svg>