<svg xmlns="http://www.w3.org/2000/svg" xmlns:xlink="http://www.w3.org/1999/xlink" viewBox="0 0 48 48"><defs><style>.cls-1{fill:#000000;}.cls-2{opacity:0;}.cls-3{clip-path:url(#clip-path);}</style><clipPath id="clip-path"><rect class="cls-1" width="48" height="48"/></clipPath></defs><g id="icones"><path class="cls-1" d="M42.15,17.64a3,3,0,0,0-3.27.65L35.17,22H33a6,6,0,0,0-5-5.91V14a6,6,0,0,0-6-6H13a6,6,0,0,0-6,6v2.81A6,6,0,0,0,4,22V34a6,6,0,0,0,6,6H27a6,6,0,0,0,6-6h2.17l3.71,3.71a3,3,0,0,0,2.12.88,3.14,3.14,0,0,0,1.15-.23A3,3,0,0,0,44,35.59V20.41a3,3,0,0,0-1.85-2.77M11,14a2,2,0,0,1,2-2h9a2,2,0,0,1,2,2v2H11ZM29,34a2,2,0,0,1-2,2H10a2,2,0,0,1-2-2V22a2,2,0,0,1,2-2H27a2,2,0,0,1,2,2V34Zm11-.83-2.59-2.58A2,2,0,0,0,36,30H33V26h3a2,2,0,0,0,1.41-.59L40,22.83Z"/><g class="cls-2"><rect class="cls-1" width="48" height="48"/><g class="cls-3"><rect class="cls-1" width="48" height="48"/></g></g></g></svg>