<svg xmlns="http://www.w3.org/2000/svg" xmlns:xlink="http://www.w3.org/1999/xlink" viewBox="0 0 48 48"><defs><style>.cls-1{fill:#a65718;}.cls-2{opacity:0;}.cls-3{clip-path:url(#clip-path);}</style><clipPath id="clip-path"><rect class="cls-1" width="48" height="48"/></clipPath></defs><g id="icones"><path class="cls-1" d="M36,4H12A4,4,0,0,0,8,8v2.72a6,6,0,0,0,1.12,3.49L18,26.64v9.14a6,6,0,0,0,2.82,5.09l3.06,1.91a4,4,0,0,0,2.12.61,4,4,0,0,0,4-4V26.64l8.88-12.43A6,6,0,0,0,40,10.72V8a4,4,0,0,0-4-4m0,6.72a2,2,0,0,1-.37,1.16l-9.26,13A2,2,0,0,0,26,26V39.39l-3.06-1.91a2,2,0,0,1-.94-1.7V26a2,2,0,0,0-.37-1.16l-9.26-13A2,2,0,0,1,12,10.72V8H36Z"/><g class="cls-2"><rect class="cls-1" width="48" height="48"/><g class="cls-3"><g class="cls-2"><rect class="cls-1" width="48" height="48"/><g class="cls-3"><rect class="cls-1" width="48" height="48"/></g></g></g></g></g></svg>