<svg xmlns="http://www.w3.org/2000/svg" viewBox="0 0 48 48"><defs><style>.cls-1{opacity:0;}.cls-2,.cls-3{fill:#a65718;}.cls-3{fill-rule:evenodd;}</style></defs><g id="icones"><g class="cls-1"><g class="cls-1"><rect class="cls-2" y="-1" width="48" height="48"/></g></g><path class="cls-2" d="M38,38H10a6,6,0,0,1-6-6V16a6,6,0,0,1,6-6H38a6,6,0,0,1,6,6V32A6,6,0,0,1,38,38ZM10,14a2,2,0,0,0-2,2V32a2,2,0,0,0,2,2H38a2,2,0,0,0,2-2V16a2,2,0,0,0-2-2Z"/><path class="cls-3" d="M14.86,19.28A2.86,2.86,0,0,0,12,22.14a2.83,2.83,0,0,0,.86,2v1.95a2,2,0,0,0,4,0V24.18a2.83,2.83,0,0,0,.86-2,2.86,2.86,0,0,0-2.86-2.86"/><rect class="cls-2" x="38" y="17" width="4" height="5" rx="2"/><rect class="cls-2" x="38" y="26" width="4" height="5" rx="2"/></g></svg>