<svg xmlns="http://www.w3.org/2000/svg" xmlns:xlink="http://www.w3.org/1999/xlink" viewBox="0 0 48 48"><defs><style>.cls-1{fill:#a65718;}.cls-2{opacity:0;}.cls-3{clip-path:url(#clip-path);}</style><clipPath id="clip-path"><rect class="cls-1" width="48" height="48"/></clipPath></defs><g id="icones"><g class="cls-2"><rect class="cls-1" width="48" height="48"/><g class="cls-3"><g class="cls-2"><rect class="cls-1" width="48" height="48"/><g class="cls-3"><rect class="cls-1" width="48" height="48"/></g></g></g></g><path class="cls-1" d="M42.6,20.8a2,2,0,0,0-2.8-.4L35,24A15,15,0,1,0,20,39a2,2,0,0,0,0-4A11,11,0,1,1,31,24l-4.8-3.6a2,2,0,0,0-2.4,3.2l8,6a2,2,0,0,0,2.4,0l8-6a2,2,0,0,0,.4-2.8"/></g></svg>