<svg xmlns="http://www.w3.org/2000/svg" xmlns:xlink="http://www.w3.org/1999/xlink" viewBox="0 0 48 48"><defs><style>.cls-1{fill:#000000;}.cls-2{opacity:0;}.cls-3{clip-path:url(#clip-path);}</style><clipPath id="clip-path"><rect class="cls-1" width="48" height="48"/></clipPath></defs><g id="icones"><path class="cls-1" d="M24,4A20,20,0,1,0,44,24,20,20,0,0,0,24,4M38.37,17H33.54a24.29,24.29,0,0,0-2.73-7.46A16.14,16.14,0,0,1,38.37,17m-8.12,7c0,1-.05,2-.14,3H17.89c-.09-1-.14-2-.14-3s.05-2,.14-3H30.11c.09,1,.14,2,.14,3M24,39.81c-2.48-1.29-4.44-4.54-5.46-8.81H29.46c-1,4.27-3,7.52-5.46,8.81M18.54,17c1-4.27,3-7.52,5.46-8.81,2.48,1.29,4.44,4.54,5.46,8.81ZM17.19,9.54A24.29,24.29,0,0,0,14.46,17H9.63a16.14,16.14,0,0,1,7.56-7.46M8.29,21h5.59c-.09,1-.13,2-.13,3s0,2,.13,3H8.29a15.66,15.66,0,0,1,0-6M9.63,31h4.83a24.29,24.29,0,0,0,2.73,7.46A16.14,16.14,0,0,1,9.63,31m21.18,7.46A24.29,24.29,0,0,0,33.54,31h4.83a16.14,16.14,0,0,1-7.56,7.46M39.71,27H34.12c.09-1,.13-2,.13-3s0-2-.13-3h5.59a15.66,15.66,0,0,1,0,6"/><g class="cls-2"><rect class="cls-1" width="48" height="48"/><g class="cls-3"><g class="cls-2"><rect class="cls-1" width="48" height="48"/><g class="cls-3"><rect class="cls-1" width="48" height="48"/></g></g></g></g></g></svg>