<svg xmlns="http://www.w3.org/2000/svg" xmlns:xlink="http://www.w3.org/1999/xlink" viewBox="0 0 48 48"><defs><style>.cls-1{fill:#fff333;}.cls-2{opacity:0;}.cls-3{clip-path:url(#clip-path);}</style><clipPath id="clip-path"><rect class="cls-1" width="48" height="48"/></clipPath></defs><g id="icones"><path class="cls-1" d="M41.54,26H24a2,2,0,0,1-2-2V6.46a2,2,0,0,0-2.44-1.95A20,20,0,1,0,43.49,28.44a2,2,0,0,0-2-2.44M24,40A16,16,0,0,1,18,9.17V24a6,6,0,0,0,6,6H38.83A15.89,15.89,0,0,1,24,40"/><path class="cls-1" d="M30,22H41.54a2,2,0,0,0,2-2.44,20.06,20.06,0,0,0-15-15,2,2,0,0,0-1.69.39A2,2,0,0,0,26,6.46V18a4,4,0,0,0,4,4M30,9.18A16.1,16.1,0,0,1,38.82,18H30Z"/><g class="cls-2"><rect class="cls-1" width="48" height="48"/><g class="cls-3"><rect class="cls-1" width="48" height="48"/></g></g></g></svg>