<svg xmlns="http://www.w3.org/2000/svg" xmlns:xlink="http://www.w3.org/1999/xlink" viewBox="0 0 48 48"><defs><style>.cls-1{fill:#a65718;}.cls-2{opacity:0;}.cls-3{clip-path:url(#clip-path);}</style><clipPath id="clip-path"><rect class="cls-1" width="48" height="48"/></clipPath></defs><g id="icones"><path class="cls-1" d="M42,36H6a2,2,0,0,0,0,4H42a2,2,0,0,0,0-4"/><path class="cls-1" d="M6,25a1.94,1.94,0,0,0,1.08-.32l13.16-8.45,7.06,2.64a2,2,0,0,0,1.9-.27l12-9a2,2,0,1,0-2.4-3.2L27.68,14.74l-7-2.61a2,2,0,0,0-1.78.19l-14,9A2,2,0,0,0,6,25"/><path class="cls-1" d="M18,24v6a2,2,0,0,0,4,0V24a2,2,0,0,0-4,0"/><path class="cls-1" d="M10,29v1a2,2,0,0,0,4,0V29a2,2,0,0,0-4,0"/><path class="cls-1" d="M26,26v4a2,2,0,0,0,4,0V26a2,2,0,0,0-4,0"/><path class="cls-1" d="M34,21v9a2,2,0,0,0,4,0V21a2,2,0,0,0-4,0"/><g class="cls-2"><rect class="cls-1" width="48" height="48"/><g class="cls-3"><rect class="cls-1" width="48" height="48"/></g></g></g></svg>