<svg xmlns="http://www.w3.org/2000/svg" xmlns:xlink="http://www.w3.org/1999/xlink" viewBox="0 0 48 48"><defs><style>.cls-1{fill:#fff333;}.cls-2{opacity:0;}.cls-3{clip-path:url(#clip-path);}</style><clipPath id="clip-path"><rect class="cls-1" width="48" height="48"/></clipPath></defs><g id="icones"><path class="cls-1" d="M30.54,27.46a8.61,8.61,0,0,0-6.29-14.13A8.42,8.42,0,0,0,18,15.75a8.58,8.58,0,0,0-.56,11.71,12.53,12.53,0,0,0-6.23,8.42A3.47,3.47,0,0,0,14.64,40H33.36a3.47,3.47,0,0,0,3.41-4.12,12.53,12.53,0,0,0-6.23-8.42M15.31,36a8.71,8.71,0,0,1,4.54-5.28,3.46,3.46,0,0,0,1.89-2.54,3.52,3.52,0,0,0-1-3,4.59,4.59,0,0,1,.06-6.52,4.54,4.54,0,0,1,6.51.17,4.54,4.54,0,0,1-.1,6.38,3.41,3.41,0,0,0-1,3,3.49,3.49,0,0,0,1.91,2.58A8.71,8.71,0,0,1,32.69,36Z"/><path class="cls-1" d="M13.13,25.72a3.46,3.46,0,0,0,.9-5.58,4.58,4.58,0,0,1,3.38-7.81,2,2,0,0,0,2.05-1.95,2,2,0,0,0-1.94-2.05,8.43,8.43,0,0,0-6.23,2.42,8.58,8.58,0,0,0-.56,11.71,12.55,12.55,0,0,0-6.22,8.42A3.47,3.47,0,0,0,7.91,35a2,2,0,0,0,.65-3.89,8.63,8.63,0,0,1,4.57-5.39"/><path class="cls-1" d="M43.49,30.88a12.55,12.55,0,0,0-6.22-8.42,8.58,8.58,0,0,0-.56-11.71,8.39,8.39,0,0,0-6.23-2.42,2,2,0,0,0,.11,4A4.58,4.58,0,0,1,34,20.14a3.52,3.52,0,0,0-1,3,3.45,3.45,0,0,0,1.9,2.54,8.64,8.64,0,0,1,4.56,5.39A2,2,0,0,0,40.09,35a3.48,3.48,0,0,0,3.4-4.12"/><g class="cls-2"><rect class="cls-1" width="48" height="48"/><g class="cls-3"><g class="cls-2"><rect class="cls-1" width="48" height="48"/><g class="cls-3"><rect class="cls-1" width="48" height="48"/></g></g></g></g></g></svg>