<svg xmlns="http://www.w3.org/2000/svg" xmlns:xlink="http://www.w3.org/1999/xlink" viewBox="0 0 48 48"><defs><style>.cls-1,.cls-4{fill:#a65718;}.cls-2{opacity:0;}.cls-3{clip-path:url(#clip-path);}.cls-4{fill-rule:evenodd;}</style><clipPath id="clip-path"><rect class="cls-1" width="48" height="48"/></clipPath></defs><g id="icones"><g class="cls-2"><rect class="cls-1" width="48" height="48"/><g class="cls-3"><rect class="cls-1" width="48" height="48"/></g></g><path class="cls-4" d="M40.83,19.17a4,4,0,0,0-2.12-1.1,15,15,0,0,0-29.42,0,4,4,0,0,0-2.12,1.1A4,4,0,0,0,6,22v2a6,6,0,0,0,1.76,4.24A5.53,5.53,0,0,0,9.2,29.3,15,15,0,0,0,23,42a4.36,4.36,0,0,0,.52,0h1a3.5,3.5,0,1,0,0-7h-1A3.5,3.5,0,0,0,21,36a3.46,3.46,0,0,0-.8,1.29A11,11,0,0,1,13.43,30H15a2,2,0,0,0,2-2V20a2,2,0,0,0-2-2H13.43a11,11,0,0,1,21.14,0H33a2,2,0,0,0-2,2v8a2,2,0,0,0,2,2h3a6,6,0,0,0,6-6V22A4,4,0,0,0,40.83,19.17Z"/></g></svg>