<svg xmlns="http://www.w3.org/2000/svg" xmlns:xlink="http://www.w3.org/1999/xlink" viewBox="0 0 48 48"><defs><style>.cls-1{fill:#000000;}.cls-2{opacity:0;}.cls-3{clip-path:url(#clip-path);}</style><clipPath id="clip-path"><rect class="cls-1" width="48" height="48"/></clipPath></defs><g id="icones"><g class="cls-2"><rect class="cls-1" width="48" height="48"/><g class="cls-3"><g class="cls-2"><rect class="cls-1" width="48" height="48"/><g class="cls-3"><rect class="cls-1" width="48" height="48"/></g></g></g></g><path class="cls-1" d="M43.41,22.59,38,17.17V12a2,2,0,0,0-4,0v1.17L28.24,7.41a6,6,0,0,0-8.48,0L4.59,22.59a2,2,0,0,0-.44,2.18A2,2,0,0,0,6,26h4V40a2,2,0,0,0,2,2H36a2,2,0,0,0,2-2V26h4a2,2,0,0,0,1.85-1.23,2,2,0,0,0-.44-2.18M36,22a2,2,0,0,0-2,2V38H28V28a2,2,0,0,0-2-2H22a2,2,0,0,0-2,2V38H14V24a2,2,0,0,0-2-2H10.83L22.59,10.24a2,2,0,0,1,2.82,0l9.18,9.17h0L37.17,22Z"/></g></svg>