<svg xmlns="http://www.w3.org/2000/svg" xmlns:xlink="http://www.w3.org/1999/xlink" viewBox="0 0 48 48"><defs><style>.cls-1{fill:#000000;}.cls-2{opacity:0;}.cls-3{clip-path:url(#clip-path);}</style><clipPath id="clip-path"><rect class="cls-1" width="48" height="48"/></clipPath></defs><g id="icones"><g class="cls-2"><rect class="cls-1" width="48" height="48"/><g class="cls-3"><g class="cls-2"><rect class="cls-1" width="48" height="48"/><g class="cls-3"><rect class="cls-1" width="48" height="48"/></g></g></g></g><path class="cls-1" d="M43.41,25.59,38,20.17V9a2,2,0,0,0-2-2H30a2,2,0,0,0-2,2v1.17L25.41,7.59a2,2,0,0,0-2.82,0l-18,18a2,2,0,0,0-.44,2.18A2,2,0,0,0,6,29h4V39a2,2,0,0,0,2,2h8a2,2,0,0,0,2-2V31h4v8a2,2,0,0,0,2,2h8a2,2,0,0,0,2-2V29h4a2,2,0,0,0,1.85-1.23,2,2,0,0,0-.44-2.18M36,25a2,2,0,0,0-2,2V37H30V29a2,2,0,0,0-2-2H20a2,2,0,0,0-2,2v8H14V27a2,2,0,0,0-2-2H10.83L24,11.83l4.59,4.58a2,2,0,0,0,2.18.44A2,2,0,0,0,32,15V11h2V21a2,2,0,0,0,.59,1.41L37.17,25Z"/></g></svg>