<svg xmlns="http://www.w3.org/2000/svg" xmlns:xlink="http://www.w3.org/1999/xlink" viewBox="0 0 48 48"><defs><style>.cls-1{fill:#a65718;}.cls-2{opacity:0;}.cls-3{clip-path:url(#clip-path);}</style><clipPath id="clip-path"><rect class="cls-1" width="48" height="48"/></clipPath></defs><g id="icones"><path class="cls-1" d="M18,25a4,4,0,1,0-4-4,4,4,0,0,0,4,4"/><path class="cls-1" d="M18,25c-3.43,0-6,1.95-6,6H24c0-4.05-2.57-6-6-6"/><path class="cls-1" d="M38,8H10a6,6,0,0,0-6,6V34a6,6,0,0,0,6,6H38a6,6,0,0,0,6-6V14a6,6,0,0,0-6-6m2,26a2,2,0,0,1-2,2H10a2,2,0,0,1-2-2V14a2,2,0,0,1,2-2H38a2,2,0,0,1,2,2Z"/><path class="cls-1" d="M33.94,26H29a2,2,0,0,0,0,4h4.94a2,2,0,0,0,0-4"/><path class="cls-1" d="M33.94,18H29a2,2,0,0,0,0,4h4.94a2,2,0,0,0,0-4"/><g class="cls-2"><rect class="cls-1" width="48" height="48"/><g class="cls-3"><rect class="cls-1" width="48" height="48"/></g></g></g></svg>