<svg xmlns="http://www.w3.org/2000/svg" xmlns:xlink="http://www.w3.org/1999/xlink" viewBox="0 0 48 48"><defs><style>.cls-1{fill:#a65718;}.cls-2{opacity:0;}.cls-3{clip-path:url(#clip-path);}</style><clipPath id="clip-path"><rect class="cls-1" width="48" height="48"/></clipPath></defs><g id="icones"><path class="cls-1" d="M38,8H10a6,6,0,0,0-6,6V34a6,6,0,0,0,6,6H38a6,6,0,0,0,6-6V14a6,6,0,0,0-6-6m2,26a2,2,0,0,1-2,2H10a2,2,0,0,1-2-2V14a2,2,0,0,1,2-2H38a2,2,0,0,1,2,2Z"/><path class="cls-1" d="M31.22,25.46a2,2,0,0,0-2.62-.55L26.73,26A2,2,0,0,1,24,25.28l-3.81-6.55a2,2,0,0,0-3.62.34l-4.09,11.6A1,1,0,0,0,13.41,32H34a1,1,0,0,0,.81-1.59Z"/><path class="cls-1" d="M33,16a3,3,0,1,0,3,3,3,3,0,0,0-3-3"/><g class="cls-2"><rect class="cls-1" width="48" height="48"/><g class="cls-3"><g class="cls-2"><rect class="cls-1" width="48" height="48"/><g class="cls-3"><rect class="cls-1" width="48" height="48"/></g></g></g></g></g></svg>