<svg xmlns="http://www.w3.org/2000/svg" xmlns:xlink="http://www.w3.org/1999/xlink" viewBox="0 0 48 48"><defs><style>.cls-1{fill:#ffffff;}.cls-2{opacity:0;}.cls-3{clip-path:url(#clip-path);}</style><clipPath id="clip-path"><rect class="cls-1" width="48" height="48"/></clipPath></defs><g id="icones"><path class="cls-1" d="M40,16V14a6,6,0,0,0-6-6H10a6,6,0,0,0-6,6V34a6,6,0,0,0,6,6H38a6,6,0,0,0,6-6V20a4,4,0,0,0-4-4M27,36H10a2,2,0,0,1-2-2V14a2,2,0,0,1,2-2H34a2,2,0,0,1,2,2V32a4,4,0,0,0,2.82,3.82h0a2.14,2.14,0,0,1-.27.09l-.11,0A3,3,0,0,1,38,36Z"/><rect class="cls-1" x="11" y="22" width="8" height="11"/><rect class="cls-1" x="11" y="15" width="22" height="4"/><rect class="cls-1" x="22" y="22" width="11" height="4"/><rect class="cls-1" x="22" y="29" width="7" height="4"/><g class="cls-2"><rect class="cls-1" width="48" height="48"/><g class="cls-3"><g class="cls-2"><rect class="cls-1" width="48" height="48"/><g class="cls-3"><rect class="cls-1" width="48" height="48"/></g></g></g></g></g></svg>