<svg xmlns="http://www.w3.org/2000/svg" xmlns:xlink="http://www.w3.org/1999/xlink" viewBox="0 0 48 48"><defs><style>.cls-1{fill:#ffffff;}.cls-2{opacity:0;}.cls-3{clip-path:url(#clip-path);}</style><clipPath id="clip-path"><rect class="cls-1" width="48" height="48"/></clipPath></defs><g id="icones"><path class="cls-1" d="M15,21a2,2,0,1,0,2,2,2,2,0,0,0-2-2"/><path class="cls-1" d="M37.5,14H37V9a4,4,0,0,0-4-4H15a4,4,0,0,0-4,4v5h-.5A6.27,6.27,0,0,0,4,20V30a6.27,6.27,0,0,0,6.5,6H11v3a4,4,0,0,0,4,4H33a4,4,0,0,0,4-4V36h.5A6.27,6.27,0,0,0,44,30V20a6.27,6.27,0,0,0-6.5-6M15,9H33v5H15Zm0,30V32H33v7Zm25-9a2.3,2.3,0,0,1-2.5,2H37V30a2,2,0,0,0-2-2H13a2,2,0,0,0-2,2v2h-.5A2.3,2.3,0,0,1,8,30V20a2.3,2.3,0,0,1,2.5-2h27A2.3,2.3,0,0,1,40,20Z"/><g class="cls-2"><rect class="cls-1" width="48" height="48"/><g class="cls-3"><g class="cls-2"><rect class="cls-1" width="48" height="48"/><g class="cls-3"><rect class="cls-1" width="48" height="48"/></g></g></g></g></g></svg>