<svg xmlns="http://www.w3.org/2000/svg" xmlns:xlink="http://www.w3.org/1999/xlink" viewBox="0 0 48 48"><defs><style>.cls-1{fill:#a65718;}.cls-2{opacity:0;}.cls-3{clip-path:url(#clip-path);}</style><clipPath id="clip-path"><rect class="cls-1" width="48" height="48"/></clipPath></defs><g id="icones"><path class="cls-1" d="M31,4H17a6,6,0,0,0-6,6V38a6,6,0,0,0,6,6H31a6,6,0,0,0,6-6V10a6,6,0,0,0-6-6m2,34a2,2,0,0,1-2,2H17a2,2,0,0,1-2-2V10a2,2,0,0,1,2-2h2.14A4,4,0,0,0,23,11h2a4,4,0,0,0,3.86-3H31a2,2,0,0,1,2,2Z"/><g class="cls-2"><rect class="cls-1" width="48" height="48"/><g class="cls-3"><g class="cls-2"><rect class="cls-1" width="48" height="48"/><g class="cls-3"><rect class="cls-1" width="48" height="48"/></g></g></g></g></g></svg>