<svg xmlns="http://www.w3.org/2000/svg" xmlns:xlink="http://www.w3.org/1999/xlink" viewBox="0 0 48 48"><defs><style>.cls-1{fill:#000000;}.cls-2{opacity:0;}.cls-3{clip-path:url(#clip-path);}</style><clipPath id="clip-path"><rect class="cls-1" width="48" height="48"/></clipPath></defs><g id="icones"><g class="cls-2"><rect class="cls-1" width="48" height="48"/><g class="cls-3"><g class="cls-2"><rect class="cls-1" width="48" height="48"/><g class="cls-3"><rect class="cls-1" width="48" height="48"/></g></g></g></g><path class="cls-1" d="M10,38a4,4,0,0,0,5.65,0l3.85-3.85a4,4,0,0,0,1-3.85l4.63-4.63L27,27.48a3.88,3.88,0,0,0-.15,1A3.94,3.94,0,0,0,28,31.33l2.83,2.83a4,4,0,0,0,5.65,0l6.37-6.36a4,4,0,0,0,0-5.66L40,19.31a4,4,0,0,0-3.85-1l-6.44-6.44a4,4,0,0,0-1-3.85L25.86,5.17a4.1,4.1,0,0,0-5.66,0l-6.36,6.37a4,4,0,0,0,0,5.65L16.67,20a3.89,3.89,0,0,0,3.85,1l1.8,1.8-4.63,4.63a4,4,0,0,0-3.85,1L10,32.34A4,4,0,0,0,10,38M25.86,10.83l-6.37,6.36-2.83-2.83L23,8Zm7.07,9.9-3.54,3.53-5.65-5.65,3.53-3.54Zm.71,10.61L30.81,28.5l6.36-6.36L40,25Z"/></g></svg>