<svg xmlns="http://www.w3.org/2000/svg" xmlns:xlink="http://www.w3.org/1999/xlink" viewBox="0 0 48 48"><defs><style>.cls-1{fill:#ffffff;}.cls-2{opacity:0;}.cls-3{clip-path:url(#clip-path);}</style><clipPath id="clip-path"><rect class="cls-1" width="48" height="48"/></clipPath></defs><g id="icones"><path class="cls-1" d="M17.68,37.39a2,2,0,0,1-2.91,0l-4.21-4.2a2,2,0,0,1,0-2.83l8.49-8.48a4,4,0,0,0-5.66,0L7.74,27.54A6,6,0,0,0,6.08,32.9a6.15,6.15,0,0,0,1.8,3.26l4.1,4.1a6,6,0,0,0,8.48,0l5-5a3.92,3.92,0,0,0,0-5.57Z"/><path class="cls-1" d="M41.92,15.09a6.25,6.25,0,0,0-1.79-3.24L36,7.74a6,6,0,0,0-8.48,0l-5.66,5.65a4,4,0,0,0,0,5.66l8.48-8.49a2,2,0,0,1,2.83,0l4.25,4.25a2,2,0,0,1,0,2.83L29,26.12a4,4,0,0,0,5.66,0l5.65-5.66a6,6,0,0,0,1.66-5.37"/><path class="cls-1" d="M16.93,31.07a2,2,0,0,0,2.83,0L31.07,19.76a2,2,0,1,0-2.83-2.83L16.93,28.24a2,2,0,0,0,0,2.83"/><g class="cls-2"><rect class="cls-1" width="48" height="48"/><g class="cls-3"><g class="cls-2"><rect class="cls-1" width="48" height="48"/><g class="cls-3"><rect class="cls-1" width="48" height="48"/></g></g></g></g></g></svg>