<svg xmlns="http://www.w3.org/2000/svg" xmlns:xlink="http://www.w3.org/1999/xlink" viewBox="0 0 48 48"><defs><style>.cls-1{fill:#a65718;}.cls-2{opacity:0;}.cls-3{clip-path:url(#clip-path);}</style><clipPath id="clip-path"><rect class="cls-1" width="48" height="48"/></clipPath></defs><g id="icones"><g class="cls-2"><rect class="cls-1" width="48" height="48"/><g class="cls-3"><g class="cls-2"><rect class="cls-1" width="48" height="48"/><g class="cls-3"><rect class="cls-1" width="48" height="48"/></g></g></g></g><path class="cls-1" d="M35.24,28.51,36.61,34l-1.37,5.49a1,1,0,0,0,1.53,1.08l6.87-5.81a1,1,0,0,0,0-1.52l-6.87-5.81A1,1,0,0,0,35.24,28.51Z"/><path class="cls-1" d="M32,29h4a0,0,0,0,1,0,0v8a2,2,0,0,1-2,2h0a2,2,0,0,1-2-2V29A0,0,0,0,1,32,29Z" transform="translate(68 0) rotate(90)"/><path class="cls-1" d="M8,34a2,2,0,1,1-2-2,2,2,0,0,1,2,2"/><path class="cls-1" d="M8,26a2,2,0,1,1-2-2,2,2,0,0,1,2,2"/><path class="cls-1" d="M8,18a2,2,0,1,1-2-2,2,2,0,0,1,2,2"/><path class="cls-1" d="M8,10A2,2,0,1,1,6,8a2,2,0,0,1,2,2"/><rect class="cls-1" x="12" y="8" width="32" height="4" rx="2"/><rect class="cls-1" x="12" y="16" width="32" height="4" rx="2"/><rect class="cls-1" x="12" y="24" width="19" height="4" rx="2"/><rect class="cls-1" x="12" y="32" width="13" height="4" rx="2"/></g></svg>