<svg xmlns="http://www.w3.org/2000/svg" xmlns:xlink="http://www.w3.org/1999/xlink" viewBox="0 0 48 48"><defs><style>.cls-1{fill:#fff333;}.cls-2{opacity:0;}.cls-3{clip-path:url(#clip-path);}</style><clipPath id="clip-path"><rect class="cls-1" width="48" height="48"/></clipPath></defs><g id="icones"><g class="cls-2"><rect class="cls-1" width="48" height="48"/><g class="cls-3"><g class="cls-2"><rect class="cls-1" width="48" height="48"/><g class="cls-3"><rect class="cls-1" width="48" height="48"/></g></g></g></g><path class="cls-1" d="M8,36a2,2,0,1,1-2-2,2,2,0,0,1,2,2"/><path class="cls-1" d="M8,28a2,2,0,1,1-2-2,2,2,0,0,1,2,2"/><path class="cls-1" d="M8,20a2,2,0,1,1-2-2,2,2,0,0,1,2,2"/><path class="cls-1" d="M8,12a2,2,0,1,1-2-2,2,2,0,0,1,2,2"/><rect class="cls-1" x="12" y="10" width="32" height="4" rx="2"/><rect class="cls-1" x="12" y="18" width="32" height="4" rx="2"/><rect class="cls-1" x="12" y="26" width="32" height="4" rx="2"/><rect class="cls-1" x="12" y="34" width="32" height="4" rx="2"/></g></svg>