<svg xmlns="http://www.w3.org/2000/svg" xmlns:xlink="http://www.w3.org/1999/xlink" viewBox="0 0 48 48"><defs><style>.cls-1{fill:#a65718;}.cls-2{opacity:0;}.cls-3{clip-path:url(#clip-path);}</style><clipPath id="clip-path"><rect class="cls-1" width="48" height="48"/></clipPath></defs><g id="icones"><g class="cls-2"><rect class="cls-1" width="48" height="48"/><g class="cls-3"><g class="cls-2"><rect class="cls-1" width="48" height="48"/><g class="cls-3"><rect class="cls-1" width="48" height="48"/></g></g></g></g><path class="cls-1" d="M42,31H39V28a2,2,0,0,0-4,0v3H32a2,2,0,0,0,0,4h3v3a2,2,0,0,0,4,0V35h3a2,2,0,0,0,0-4"/><path class="cls-1" d="M8,34.12a2,2,0,1,1-2-2,2,2,0,0,1,2,2"/><path class="cls-1" d="M8,26.12a2,2,0,1,1-2-2,2,2,0,0,1,2,2"/><path class="cls-1" d="M8,18.12a2,2,0,1,1-2-2,2,2,0,0,1,2,2"/><path class="cls-1" d="M8,10.12a2,2,0,1,1-2-2,2,2,0,0,1,2,2"/><rect class="cls-1" x="12" y="8.13" width="32" height="4" rx="2"/><rect class="cls-1" x="12" y="16.12" width="32" height="4" rx="2"/><rect class="cls-1" x="12" y="24.12" width="18" height="4" rx="2"/><rect class="cls-1" x="12" y="32.12" width="13" height="4" rx="2"/></g></svg>