<svg xmlns="http://www.w3.org/2000/svg" xmlns:xlink="http://www.w3.org/1999/xlink" viewBox="0 0 48 48"><defs><style>.cls-1{fill:#ffffff;}.cls-2{opacity:0;}.cls-3{clip-path:url(#clip-path);}</style><clipPath id="clip-path"><rect class="cls-1" width="48" height="48"/></clipPath></defs><g id="icones"><path class="cls-1" d="M40,13.5A5.51,5.51,0,0,0,34.5,8H29a4,4,0,0,0-4-4H23a4,4,0,0,0-4,4H13.5A5.5,5.5,0,0,0,10,17.74V38a6,6,0,0,0,6,6H32a6,6,0,0,0,6-6V17.74a5.5,5.5,0,0,0,2-4.24M13.5,12h21a1.5,1.5,0,0,1,0,3h-21a1.5,1.5,0,0,1,0-3M34,38a2,2,0,0,1-2,2H16a2,2,0,0,1-2-2V19H34Z"/><path class="cls-1" d="M20,36a2,2,0,0,0,2-2V25a2,2,0,0,0-4,0v9a2,2,0,0,0,2,2"/><path class="cls-1" d="M28,36a2,2,0,0,0,2-2V25a2,2,0,0,0-4,0v9a2,2,0,0,0,2,2"/><g class="cls-2"><rect class="cls-1" width="48" height="48"/><g class="cls-3"><g class="cls-2"><rect class="cls-1" width="48" height="48"/><g class="cls-3"><rect class="cls-1" width="48" height="48"/></g></g></g></g></g></svg>