<svg xmlns="http://www.w3.org/2000/svg" xmlns:xlink="http://www.w3.org/1999/xlink" viewBox="0 0 48 48"><defs><style>.cls-1{fill:#a65718;}.cls-2{opacity:0;}.cls-3{clip-path:url(#clip-path);}</style><clipPath id="clip-path"><rect class="cls-1" width="48" height="48"/></clipPath></defs><g id="icones"><path class="cls-1" d="M24,15a9,9,0,1,0,9,9,9,9,0,0,0-9-9m0,14a5,5,0,1,1,5-5,5,5,0,0,1-5,5"/><path class="cls-1" d="M42,21H40.72A17,17,0,0,0,26,7.13V6a2,2,0,0,0-4,0V7.13A17,17,0,0,0,7.28,21H6a2,2,0,0,0,0,4h1A17,17,0,0,0,22,40.87V42a2,2,0,0,0,4,0V40.87A17,17,0,0,0,41,25h1a2,2,0,0,0,0-4M26,36.83a2,2,0,0,0-4,0A13,13,0,0,1,11.05,25a2,2,0,0,0,.3-4A13,13,0,0,1,22,11.17a2,2,0,0,0,4,0A13,13,0,0,1,36.65,21a2,2,0,0,0,.3,4A13,13,0,0,1,26,36.83"/><path class="cls-1" d="M24,21a3,3,0,1,0,3,3,3,3,0,0,0-3-3"/><g class="cls-2"><rect class="cls-1" width="48" height="48"/><g class="cls-3"><g class="cls-2"><rect class="cls-1" width="48" height="48"/><g class="cls-3"><rect class="cls-1" width="48" height="48"/></g></g></g></g></g></svg>