<svg xmlns="http://www.w3.org/2000/svg" viewBox="0 0 48 48"><defs><style>.cls-1{opacity:0;}.cls-2{fill:#000000;}</style></defs><g id="icones"><g class="cls-1"><g class="cls-1"><rect class="cls-2" width="48" height="48"/></g></g><rect class="cls-2" x="14" y="11" width="4" height="26"/><rect class="cls-2" x="30" y="11" width="4" height="26"/><rect class="cls-2" x="22" y="16" width="4" height="8"/><rect class="cls-2" x="15.25" y="28" width="16.75" height="4"/><rect class="cls-2" x="6" y="22" width="10" height="4"/><rect class="cls-2" x="30.99" y="22" width="10" height="4"/><path class="cls-2" d="M11,41.73A2,2,0,0,1,10,42h0a2,2,0,0,1-2-2V38h4v2a2,2,0,0,1-1,1.73"/><path class="cls-2" d="M38,38h2a0,0,0,0,1,0,0v4a0,0,0,0,1,0,0H38a2,2,0,0,1-2-2v0A2,2,0,0,1,38,38Z" transform="translate(-2 78) rotate(-90)"/><path class="cls-2" d="M40,40H8a4,4,0,0,1-4-4V12A4,4,0,0,1,8,8H40a4,4,0,0,1,4,4V36A4,4,0,0,1,40,40ZM8,12V36H40V12Z"/></g></svg>