<svg xmlns="http://www.w3.org/2000/svg" xmlns:xlink="http://www.w3.org/1999/xlink" viewBox="0 0 48 48"><defs><style>.cls-1{fill:#000000;}.cls-2{opacity:0;}.cls-3{clip-path:url(#clip-path);}</style><clipPath id="clip-path"><rect class="cls-1" width="48" height="48"/></clipPath></defs><g id="icones"><path class="cls-1" d="M6,17H42a2,2,0,0,0,0-4H6a2,2,0,0,0,0,4"/><path class="cls-1" d="M42,22H6a2,2,0,0,0,0,4H42a2,2,0,0,0,0-4"/><path class="cls-1" d="M42,31H6a2,2,0,0,0,0,4H42a2,2,0,0,0,0-4"/><g class="cls-2"><rect class="cls-1" width="48" height="48"/><g class="cls-3"><g class="cls-2"><rect class="cls-1" width="48" height="48"/><g class="cls-3"><rect class="cls-1" width="48" height="48"/></g></g></g></g></g></svg>