<svg xmlns="http://www.w3.org/2000/svg" xmlns:xlink="http://www.w3.org/1999/xlink" viewBox="0 0 48 48"><defs><style>.cls-1{fill:#fff333;}.cls-2{opacity:0;}.cls-3{clip-path:url(#clip-path);}</style><clipPath id="clip-path"><rect class="cls-1" width="48" height="48"/></clipPath></defs><g id="icones"><path class="cls-1" d="M24,4A14,14,0,0,0,10,18V30a14,14,0,0,0,28,0V18A14,14,0,0,0,24,4M34,30a10,10,0,0,1-20,0V18a10,10,0,0,1,20,0Z"/><path class="cls-1" d="M24,13a2,2,0,0,0-2,2v5a2,2,0,0,0,4,0V15a2,2,0,0,0-2-2"/><g class="cls-2"><rect class="cls-1" width="48" height="48"/><g class="cls-3"><rect class="cls-1" width="48" height="48"/></g></g></g></svg>