<svg xmlns="http://www.w3.org/2000/svg" xmlns:xlink="http://www.w3.org/1999/xlink" viewBox="0 0 48 48"><defs><style>.cls-1{fill:#a65718;}.cls-2{opacity:0;}.cls-3{clip-path:url(#clip-path);}</style><clipPath id="clip-path"><rect class="cls-1" width="48" height="48"/></clipPath></defs><g id="icones"><path class="cls-1" d="M24,4A20,20,0,1,0,44,24,20,20,0,0,0,24,4m-7.62,6.59a4.48,4.48,0,0,1,1.19.4,3.63,3.63,0,0,1-2-.54l.64-.39c.63.06,0,0,.21.53M8,24a15.88,15.88,0,0,1,.49-3.86,2.73,2.73,0,0,0,2.07,1.33c-.17-.81.57,1,1.22,1.44.85.65,1.72.21,2.65.74,1.09.62,3,1.41,3,2.51,0,.25-1.09,1.07-1,1.89A4,4,0,0,0,17.65,30c1.06,1.26,1.12,1.76,1.35,3.65A31.09,31.09,0,0,0,20.09,37,10.62,10.62,0,0,0,21,39.71,16,16,0,0,1,8,24M24,40c-.45,0-.89,0-1.32-.07a2.59,2.59,0,0,1-.27-1.65c-.31-.08-.53-.27-.77-.34a2.5,2.5,0,0,0,.05-1.14c.15-.22,1.69-.83,2.09-1.23.84-.83.72-1.87,1.22-2.46s1.09-.6,1.59-1.4c-.05.07,1-3.08,1-3-.29-1.3-1.74-.71-2.58-1.27-.3-.19-.71-.21-1-.38-.47-.27,0-.89-.46-1.3-.65-.62-1.68-.8-2.48-1.63-.5.41-2.23.07-2.93.14s-.84.64-1.84.07c-.73-.42.65-1.61-1.09-1.53.22-.43-3.16-.9-1.52-2.43A4.37,4.37,0,0,1,18,20c-.51-1.9,3.57-4.48,4.7-4.8-.22-.07.72-.29,1.3-.53-.33.79,1.14-.65,2-.67-.22-.16,0,0-1.78-1.46-.37.29-.91.27-1.24.46.12-.88-.4-1.08-1-1a2.45,2.45,0,0,0-1,.43c-.06,0-.35-.44-.43-.51a4.12,4.12,0,0,0,.86-.33c0-.2,1.56-.2,1.09-.09,1.63.7,1.68-.41,2.95-.77l-.47.11c-.06-1.46-4.2-.38-3.58-1.19-1-.2-1.11-.08-1.62.43.14,0-.83,0-.17-.4-.69.25-1.33-.35-1.76-.47a15.89,15.89,0,0,1,16.88,3,1.73,1.73,0,0,0-.56.5,3,3,0,0,0,1.42.65l.12.66c-1.64.43-3.31,1.2-2.77,2.65-1.66-.36-2.63,1.34-1,1.59,1.34.21,2.11-1.38,3.19-1.92.38.45,1,.8,1.42,1.27.05.43.36-.61-.81-1.59A3.21,3.21,0,0,1,38,18.21a1.56,1.56,0,0,0,.75-.37,13.41,13.41,0,0,1,.54,1.5,5.5,5.5,0,0,0-2.3-.18c.08.39,0,.64.16.84-.8-.69-2.62-.42-2.16-1.87a22.23,22.23,0,0,0-2.21.87c-.75.21-.93-.46-1.68,0-.3.2.09.77-.11,1s-.85.5-1.19.83-1.33.89-.31,1.15a3,3,0,0,0,1.24,4c2.16,1,2-1.89,3.76-.31.37.32.49.39.53.39s0,.14.19.56c.05.11-.06.63,0,.82.12.56.76,1,.87,1.56.14.73-.08.25-.1,1a6.12,6.12,0,0,0,0,1.86,2.74,2.74,0,0,0,.73,1.75A16,16,0,0,1,24,40"/><polygon class="cls-1" points="32.34 14.3 32.37 13.93 32.05 13.79 31.59 13.9 31.25 14.44 31.25 14.79 31.64 14.79 32.34 14.3"/><g class="cls-2"><rect class="cls-1" width="48" height="48"/><g class="cls-3"><g class="cls-2"><rect class="cls-1" width="48" height="48"/><g class="cls-3"><rect class="cls-1" width="48" height="48"/></g></g></g></g></g></svg>