<svg xmlns="http://www.w3.org/2000/svg" xmlns:xlink="http://www.w3.org/1999/xlink" viewBox="0 0 48 48"><defs><style>.cls-1,.cls-4{fill:#a65718;}.cls-2{opacity:0;}.cls-3{clip-path:url(#clip-path);}.cls-4{fill-rule:evenodd;}</style><clipPath id="clip-path"><rect class="cls-1" width="48" height="48"/></clipPath></defs><g id="icones"><g class="cls-2"><rect class="cls-1" width="48" height="48"/><g class="cls-3"><g class="cls-2"><rect class="cls-1" width="48" height="48"/><g class="cls-3"><rect class="cls-1" width="48" height="48"/></g></g></g></g><g class="cls-2"><rect class="cls-1" width="48" height="48"/><g class="cls-3"><rect class="cls-1" width="48" height="48"/></g></g><path class="cls-4" d="M8,24H40V19H8Zm12-9h8V12H20ZM8,28v8H40V28H28v1a2,2,0,0,1-2,2H22a2,2,0,0,1-2-2V28Zm8-13V12a4,4,0,0,1,4-4h8a4,4,0,0,1,4,4v3h8a4,4,0,0,1,4,4V36a4,4,0,0,1-4,4H8a4,4,0,0,1-4-4V19a4,4,0,0,1,4-4Z"/></g></svg>