<svg xmlns="http://www.w3.org/2000/svg" xmlns:xlink="http://www.w3.org/1999/xlink" viewBox="0 0 48 48"><defs><style>.cls-1{fill:#fff333;}.cls-2{opacity:0;}.cls-3{clip-path:url(#clip-path);}</style><clipPath id="clip-path"><rect class="cls-1" width="48" height="48"/></clipPath></defs><g id="icones"><g class="cls-2"><rect class="cls-1" width="48" height="48"/><g class="cls-3"><g class="cls-2"><rect class="cls-1" width="48" height="48"/><g class="cls-3"><rect class="cls-1" width="48" height="48"/></g></g></g></g><path class="cls-1" d="M29.09,36.45a5.47,5.47,0,0,1,0-7.24h0a4.19,4.19,0,0,1,6.34,0l.26.28.14-.15a4.36,4.36,0,0,1,6.58,0h0a5.3,5.3,0,0,1,0,7l-6.72,7.39Z"/><path class="cls-1" d="M43.79,14.09c-.29-.57-.47-.65-.47-.65a10.07,10.07,0,0,1-1.11-.55c-.11-.07-.82-.45-1.32-.69L26.68,5.09a10.15,10.15,0,0,0-1.87-.67H23.19a10.15,10.15,0,0,0-1.87.67L7.1,12.2c-.49.24-1,.5-1.1.57s-.82.45-1.32.67c0,0-.19.08-.47.65L4,14.54A8.91,8.91,0,0,1,4,15.73c0,.13,0,.94,0,1.49V30.75a8.66,8.66,0,0,0,.28,2l1.2,1.94.73.68.9.44,14.2,7.11c.5.24,1.3.65,1.79.9a2.29,2.29,0,0,0,.9.2h.49a3.83,3.83,0,0,0,1.15-1.11A4.06,4.06,0,0,0,26,41.22V25.67c0-.24.4-.65.89-.9l3.22-1.6c.49-.25.89-.36.89-.25v2.21a.56.56,0,0,0,.89.55l2.22-1.1A1.79,1.79,0,0,0,35,23.13V20.92c0-.11.4-.4.89-.65l3.22-1.6a.56.56,0,0,1,.89.55v2.7a5,5,0,0,0,.41,1.7,1.7,1.7,0,0,0,3.18,0,5,5,0,0,0,.41-1.7v-5.2c0-.28,0-.95,0-1.5A3.09,3.09,0,0,0,43.79,14.09ZM22,37.75a.56.56,0,0,1-.89.55L8.89,32.2A1.79,1.79,0,0,1,8,30.75V19.22a.56.56,0,0,1,.89-.55l12.22,6.1A1.79,1.79,0,0,1,22,26.22ZM24.89,21.3a2.21,2.21,0,0,1-1.78,0L11.37,15.43c-.49-.24-.49-.65,0-.89l2.91-1.46a2.34,2.34,0,0,1,1.8,0l12,5.75c.49.24.5.63,0,.88Zm9.21-4.6a2.25,2.25,0,0,1-1.78,0l-11.6-5.93c-.49-.25-.49-.66,0-.9l2.38-1.19a2.21,2.21,0,0,1,1.78,0l11.74,5.87c.49.24.49.65,0,.89Z"/></g></svg>