<svg xmlns="http://www.w3.org/2000/svg" xmlns:xlink="http://www.w3.org/1999/xlink" viewBox="0 0 48 48"><defs><style>.cls-1{fill:#000000;}.cls-2{opacity:0;}.cls-3{clip-path:url(#clip-path);}</style><clipPath id="clip-path"><rect class="cls-1" width="48" height="48"/></clipPath></defs><g id="icones"><g class="cls-2"><rect class="cls-1" width="48" height="48"/><g class="cls-3"><g class="cls-2"><rect class="cls-1" width="48" height="48"/><g class="cls-3"><rect class="cls-1" width="48" height="48"/></g></g></g></g><path class="cls-1" d="M21,34.15v-12L30,17V19.3a2,2,0,0,0,4,0V14.55a4.07,4.07,0,0,0,0-.61,2,2,0,0,0-1.31-2.31,3.41,3.41,0,0,0-.44-.3L20.66,4.67a3.23,3.23,0,0,0-3.29,0L5.81,11.33a3.58,3.58,0,0,0-.45.31,2,2,0,0,0-1.07.88,2,2,0,0,0-.22,1.35,3.82,3.82,0,0,0-.07.68V27.48A3.71,3.71,0,0,0,5.81,30.7l11.55,6.66a2.15,2.15,0,0,0,.32.13A2,2,0,0,0,19,38a2.21,2.21,0,0,0,1.3-.49c.8-.59.76-2.53.7-3.36M19,8.34l9,5.18L19,18.7l-9-5.18ZM8,17l9,5.19V32.53L8,27.34Z"/><path class="cls-1" d="M23,29v5a4,4,0,0,0,4,4h0a2,2,0,0,0,2-2h0a2,2,0,0,0-2-2h0V29h6a2,2,0,0,0,2,2h0a2,2,0,0,0,2-2h0a4,4,0,0,0-4-4H27A4,4,0,0,0,23,29Z"/><path class="cls-1" d="M44,34V29a4,4,0,0,0-4-4h0a2,2,0,0,0-2,2h0a2,2,0,0,0,2,2h0v5H34a2,2,0,0,0-2-2h0a2,2,0,0,0-2,2h0a4,4,0,0,0,4,4h6A4,4,0,0,0,44,34Z"/></g></svg>