<svg xmlns="http://www.w3.org/2000/svg" xmlns:xlink="http://www.w3.org/1999/xlink" viewBox="0 0 48 48"><defs><style>.cls-1{fill:#ffffff;}.cls-2{opacity:0;}.cls-3{clip-path:url(#clip-path);}</style><clipPath id="clip-path"><rect class="cls-1" width="48" height="48"/></clipPath></defs><g id="icones"><g class="cls-2"><rect class="cls-1" width="48" height="48"/><g class="cls-3"><g class="cls-2"><rect class="cls-1" width="48" height="48"/><g class="cls-3"><rect class="cls-1" width="48" height="48"/></g></g></g></g><path class="cls-1" d="M6.8,35.6l8,6a2,2,0,0,0,2.4,0l8-6a2,2,0,1,0-2.4-3.2L18,36V8a2,2,0,0,0-2-2,2,2,0,0,0-2,2V36L9.2,32.4a2,2,0,1,0-2.4,3.2"/><path class="cls-1" d="M40,42H28a2,2,0,0,1-1.85-1.23,2,2,0,0,1,.44-2.18L35.17,30H28a2,2,0,0,1,0-4H40a2,2,0,0,1,1.85,1.23,2,2,0,0,1-.44,2.18L32.83,38H40a2,2,0,0,1,0,4Z"/><path class="cls-1" d="M41.79,19.1l-6-12a2,2,0,0,0-3.58,0l-6,12a2,2,0,1,0,3.58,1.78L31.24,18h5.52l1.45,2.89a2,2,0,1,0,3.58-1.79ZM33.24,14,34,12.47,34.76,14Z"/></g></svg>