<svg xmlns="http://www.w3.org/2000/svg" xmlns:xlink="http://www.w3.org/1999/xlink" viewBox="0 0 48 48"><defs><style>.cls-1{fill:#fff333;}.cls-2{opacity:0;}.cls-3{clip-path:url(#clip-path);}</style><clipPath id="clip-path"><rect class="cls-1" width="48" height="48"/></clipPath></defs><g id="icones"><g class="cls-2"><rect class="cls-1" width="48" height="48"/><g class="cls-3"><g class="cls-2"><rect class="cls-1" width="48" height="48"/><g class="cls-3"><rect class="cls-1" width="48" height="48"/></g></g></g></g><path class="cls-1" d="M4.8,33.6l8,6a2,2,0,0,0,2.4,0l8-6a2,2,0,1,0-2.4-3.2L16,34V13.13a2,2,0,0,0-2-2,2,2,0,0,0-2,2V34L7.2,30.4a2,2,0,1,0-2.4,3.2"/><path class="cls-1" d="M43.2,14.4l-8-6a2,2,0,0,0-2.4,0l-8,6a2,2,0,1,0,2.4,3.2L32,14V34.87a2,2,0,0,0,2,2,2,2,0,0,0,1.41-.59A2,2,0,0,0,36,34.87V14l4.79,3.6a2,2,0,0,0,2.62-.18c.06-.07.13-.14.19-.22a2,2,0,0,0-.4-2.8"/></g></svg>