<svg xmlns="http://www.w3.org/2000/svg" xmlns:xlink="http://www.w3.org/1999/xlink" viewBox="0 0 48 48"><defs><style>.cls-1{fill:#a65718;}.cls-2{opacity:0;}.cls-3{clip-path:url(#clip-path);}</style><clipPath id="clip-path"><rect class="cls-1" width="48" height="48"/></clipPath></defs><g id="icones"><g class="cls-2"><rect class="cls-1" width="48" height="48"/><g class="cls-3"><g class="cls-2"><rect class="cls-1" width="48" height="48"/><g class="cls-3"><rect class="cls-1" width="48" height="48"/></g></g></g></g><path class="cls-1" d="M6.8,35.6l8,6a2,2,0,0,0,2.4,0l8-6a2,2,0,1,0-2.4-3.2L18,36V8a2,2,0,0,0-2-2,2,2,0,0,0-1.41.59A2,2,0,0,0,14,8V36L9.2,32.4a2,2,0,1,0-2.4,3.2"/><rect class="cls-1" x="24" y="8" width="10" height="4" rx="2"/><rect class="cls-1" x="24" y="16" width="14" height="4" rx="2"/><rect class="cls-1" x="24" y="24" width="18" height="4" rx="2"/></g></svg>