<svg xmlns="http://www.w3.org/2000/svg" xmlns:xlink="http://www.w3.org/1999/xlink" viewBox="0 0 48 48"><defs><style>.cls-1,.cls-4{fill:#000000;}.cls-2{opacity:0;}.cls-3{clip-path:url(#clip-path);}.cls-4{fill-rule:evenodd;}</style><clipPath id="clip-path"><rect class="cls-1" width="48" height="48"/></clipPath></defs><g id="icones"><g class="cls-2"><rect class="cls-1" width="48" height="48"/><g class="cls-3"><g class="cls-2"><rect class="cls-1" width="48" height="48"/><g class="cls-3"><rect class="cls-1" width="48" height="48"/></g></g></g></g><path class="cls-1" d="M42,31H39V28a2,2,0,0,0-4,0v3H32a2,2,0,0,0,0,4h3v3a2,2,0,0,0,4,0V35h3a2,2,0,0,0,0-4"/><rect class="cls-1" x="4" y="20" width="8" height="8" rx="2"/><rect class="cls-1" x="32" y="14" width="8" height="8" rx="2"/><rect class="cls-1" x="10" y="8" width="8" height="8" rx="2"/><rect class="cls-1" x="10" y="32" width="8" height="8" rx="2"/><path class="cls-4" d="M34,16H27a1,1,0,0,1-1-1V12a2,2,0,0,0-2-2H14v4h7a1,1,0,0,1,1,1v6a1,1,0,0,1-1,1H10v4H21a1,1,0,0,1,1,1v6a1,1,0,0,1-1,1H14v4H24a2,2,0,0,0,2-2V21a1,1,0,0,1,1-1h7Z"/></g></svg>