<svg xmlns="http://www.w3.org/2000/svg" xmlns:xlink="http://www.w3.org/1999/xlink" viewBox="0 0 48 48"><defs><style>.cls-1{fill:#a65718;}.cls-2{opacity:0;}.cls-3{clip-path:url(#clip-path);}</style><clipPath id="clip-path"><rect class="cls-1" width="48" height="48"/></clipPath></defs><g id="icones"><path class="cls-1" d="M38,7H10a5.82,5.82,0,0,0-6,5.6V29.33A5.85,5.85,0,0,0,10,35H27.08l5.52,5.43A2,2,0,0,0,34,41a2.07,2.07,0,0,0,.77-.15A2,2,0,0,0,36,39V35h2a5.85,5.85,0,0,0,6-5.67V12.6A5.75,5.75,0,0,0,38,7m2,22.33A1.86,1.86,0,0,1,38,31H34a2,2,0,0,0-2,2v1.23l-2.7-2.66A2,2,0,0,0,27.9,31H10a1.86,1.86,0,0,1-2-1.67V12.6A1.82,1.82,0,0,1,10,11H38a1.82,1.82,0,0,1,2,1.6Z"/><path class="cls-1" d="M16,19a2,2,0,1,0,2,2,2,2,0,0,0-2-2"/><path class="cls-1" d="M24,19a2,2,0,1,0,2,2,2,2,0,0,0-2-2"/><path class="cls-1" d="M32,19a2,2,0,1,0,2,2,2,2,0,0,0-2-2"/><g class="cls-2"><rect class="cls-1" width="48" height="48"/><g class="cls-3"><g class="cls-2"><rect class="cls-1" width="48" height="48"/><g class="cls-3"><rect class="cls-1" width="48" height="48"/></g></g></g></g></g></svg>