<svg xmlns="http://www.w3.org/2000/svg" xmlns:xlink="http://www.w3.org/1999/xlink" viewBox="0 0 48 48"><defs><style>.cls-1{fill:#ffffff;}.cls-2{opacity:0;}.cls-3{clip-path:url(#clip-path);}</style><clipPath id="clip-path"><rect class="cls-1" width="48" height="48"/></clipPath></defs><g id="icones"><path class="cls-1" d="M39.28,9.46l-6-5A2,2,0,0,0,32,4H20.5A5.37,5.37,0,0,0,15,9.22V31.78A5.37,5.37,0,0,0,20.5,37h14A5.37,5.37,0,0,0,40,31.78V11a2,2,0,0,0-.72-1.54M34.5,33h-14A1.4,1.4,0,0,1,19,31.78V9.22A1.4,1.4,0,0,1,20.5,8H29v4a3,3,0,0,0,3,3h4V31.78A1.4,1.4,0,0,1,34.5,33"/><path class="cls-1" d="M12,38.35V14a4,4,0,0,0-4,4V38.35A5.63,5.63,0,0,0,13.6,44H26a4,4,0,0,0,4-4H13.6A1.63,1.63,0,0,1,12,38.35"/><g class="cls-2"><rect class="cls-1" width="48" height="48"/><g class="cls-3"><g class="cls-2"><rect class="cls-1" width="48" height="48"/><g class="cls-3"><rect class="cls-1" width="48" height="48"/></g></g></g></g></g></svg>