<svg xmlns="http://www.w3.org/2000/svg" xmlns:xlink="http://www.w3.org/1999/xlink" viewBox="0 0 48 48"><defs><style>.cls-1{fill:#fff333;}.cls-2{opacity:0;}.cls-3{clip-path:url(#clip-path);}</style><clipPath id="clip-path"><rect class="cls-1" width="48" height="48"/></clipPath></defs><g id="icones"><path class="cls-1" d="M38,13H25l-2.8-3.5A4,4,0,0,0,19,8H10a6,6,0,0,0-6,6V34a6,6,0,0,0,6,6H38a6,6,0,0,0,6-6V19a6,6,0,0,0-6-6m2,21a2,2,0,0,1-2,2H10a2,2,0,0,1-2-2V14a2,2,0,0,1,2-2h9l2.8,3.5A4,4,0,0,0,25,17H38a2,2,0,0,1,2,2Z"/><g class="cls-2"><rect class="cls-1" width="48" height="48"/><g class="cls-3"><g class="cls-2"><rect class="cls-1" width="48" height="48"/><g class="cls-3"><rect class="cls-1" width="48" height="48"/></g></g></g></g></g></svg>