<svg xmlns="http://www.w3.org/2000/svg" xmlns:xlink="http://www.w3.org/1999/xlink" viewBox="0 0 48 48"><defs><style>.cls-1{fill:#000000;}.cls-2{opacity:0;}.cls-3{clip-path:url(#clip-path);}</style><clipPath id="clip-path"><rect class="cls-1" width="48" height="48"/></clipPath></defs><g id="icones"><path class="cls-1" d="M42.86,23.3A4,4,0,0,0,40,21.53v-2A5.52,5.52,0,0,0,34.44,14H23l-2.42-2.8A3.55,3.55,0,0,0,17.59,10h-8C6.49,10,4,12,4,15.06V32.83a5,5,0,0,0,1.19,3.29,8.25,8.25,0,0,0,.38.93,4.29,4.29,0,0,0,3.28,2H35.62a4.24,4.24,0,0,0,3.67-2.66l3.9-9.13a4.24,4.24,0,0,0-.33-3.91M39.52,26l-3.9,8.75-26.77.13L12.09,26Zm-30-12h7.92l2.42,2.8a3.55,3.55,0,0,0,3,1.2H34.44A1.51,1.51,0,0,1,36,19.5V22H12.09a3.79,3.79,0,0,0-3.76,2.39L8,25.06v-10C8,14.2,8.7,14,9.56,14"/><g class="cls-2"><rect class="cls-1" width="48" height="48"/><g class="cls-3"><g class="cls-2"><rect class="cls-1" width="48" height="48"/><g class="cls-3"><rect class="cls-1" width="48" height="48"/></g></g></g></g></g></svg>