<svg xmlns="http://www.w3.org/2000/svg" xmlns:xlink="http://www.w3.org/1999/xlink" viewBox="0 0 48 48"><defs><style>.cls-1{fill:#a65718;}.cls-2{opacity:0;}.cls-3{clip-path:url(#clip-path);}</style><clipPath id="clip-path"><rect class="cls-1" width="48" height="48"/></clipPath></defs><g id="icones"><g class="cls-2"><rect class="cls-1" width="48" height="48"/><g class="cls-3"><g class="cls-2"><rect class="cls-1" width="48" height="48"/><g class="cls-3"><rect class="cls-1" width="48" height="48"/></g></g></g></g><path class="cls-1" d="M10,16h2a2,2,0,0,1,2,2h0a2,2,0,0,1-2,2H10a2.22,2.22,0,0,0-2,2.21v11.6A2.2,2.2,0,0,0,10,36H32V34a4,4,0,0,1,4-4h4V22a2,2,0,0,0-2-2H36.11A2.07,2.07,0,0,1,34,18.34,2,2,0,0,1,36,16h2a6,6,0,0,1,6,6v9.17a2,2,0,0,1-.59,1.42l-6.82,6.82a2,2,0,0,1-1.42.59H9.71A6,6,0,0,1,4,34V22A6,6,0,0,1,10,16Z"/><path class="cls-1" d="M24,30a2,2,0,0,0,1.71-1C28.58,24.25,32,18.11,32,16a7.57,7.57,0,0,0-8-8,7.57,7.57,0,0,0-8,8c0,2.11,3.42,8.25,6.29,13A2,2,0,0,0,24,30m0-18c1.49,0,4,.52,4,4-.12.86-1.95,4.42-4,8-2-3.56-3.84-7.09-4-8.08C20,12.51,22.51,12,24,12"/></g></svg>