<svg xmlns="http://www.w3.org/2000/svg" xmlns:xlink="http://www.w3.org/1999/xlink" viewBox="0 0 48 48"><defs><style>.cls-1{fill:#a65718;}.cls-2{opacity:0;}.cls-3{clip-path:url(#clip-path);}</style><clipPath id="clip-path"><rect class="cls-1" width="48" height="48"/></clipPath></defs><g id="icones"><path class="cls-1" d="M24,4A14,14,0,0,0,10,18c0,4.05,6.39,15.86,10.53,23.1a4,4,0,0,0,6.94,0C31.61,33.86,38,22.05,38,18A14,14,0,0,0,24,4m0,35.11C16.13,25.37,14,19.38,14,18a10,10,0,0,1,20,0c0,1.38-2.13,7.37-10,21.11"/><path class="cls-1" d="M24,12a6,6,0,1,0,6,6,6,6,0,0,0-6-6m0,8a2,2,0,1,1,2-2,2,2,0,0,1-2,2"/><g class="cls-2"><rect class="cls-1" width="48" height="48"/><g class="cls-3"><g class="cls-2"><rect class="cls-1" width="48" height="48"/><g class="cls-3"><rect class="cls-1" width="48" height="48"/></g></g></g></g></g></svg>