<svg xmlns="http://www.w3.org/2000/svg" xmlns:xlink="http://www.w3.org/1999/xlink" viewBox="0 0 48 48"><defs><style>.cls-1{fill:#a65718;}.cls-2{opacity:0;}.cls-3{clip-path:url(#clip-path);}</style><clipPath id="clip-path"><rect class="cls-1" width="48" height="48"/></clipPath></defs><g id="icones"><g class="cls-2"><rect class="cls-1" width="48" height="48"/><g class="cls-3"><g class="cls-2"><rect class="cls-1" width="48" height="48"/><g class="cls-3"><rect class="cls-1" width="48" height="48"/></g></g></g></g><path class="cls-1" d="M33.13,20,19.5,4.67A2,2,0,0,0,16,6V42a2,2,0,0,0,1.29,1.87A1.94,1.94,0,0,0,18,44a2,2,0,0,0,1.5-.67L33.13,28a6,6,0,0,0,0-8m-3,5.32L20,36.74V11.26L30.14,22.67a2,2,0,0,1,0,2.66"/></g></svg>