<svg xmlns="http://www.w3.org/2000/svg" xmlns:xlink="http://www.w3.org/1999/xlink" viewBox="0 0 48 48"><defs><style>.cls-1{fill:#000000;}.cls-2{opacity:0;}.cls-3{clip-path:url(#clip-path);}</style><clipPath id="clip-path"><rect class="cls-1" width="48" height="48"/></clipPath></defs><g id="icones"><path class="cls-1" d="M44,16.94a2,2,0,0,0-1.31-2.31,3.41,3.41,0,0,0-.44-.3L30.66,7.67a3.23,3.23,0,0,0-3.29,0L15.81,14.33a3.58,3.58,0,0,0-.45.31,2,2,0,0,0-1.07.88,2,2,0,0,0-.22,1.35,3.82,3.82,0,0,0-.07.68V22H8a2,2,0,0,0,0,4h6v3H6a2,2,0,0,0,0,4h9a3.82,3.82,0,0,0,.85.7l11.55,6.66c.1.06.22.08.32.13a2,2,0,0,0,2.62,0,3.68,3.68,0,0,0,.35-.15L42.2,33.7A3.71,3.71,0,0,0,44,30.48V17.55a4.07,4.07,0,0,0,0-.61M29,11.34l9,5.18L29,21.7l-9-5.18ZM17.81,30.23ZM18,20l9,5.19V35.53l-9-5.19ZM31,35.54V25.18L40,20V30.35Z"/><g class="cls-2"><rect class="cls-1" width="48" height="48"/><g class="cls-3"><g class="cls-2"><rect class="cls-1" width="48" height="48"/><g class="cls-3"><rect class="cls-1" width="48" height="48"/></g></g></g></g></g></svg>