<svg xmlns="http://www.w3.org/2000/svg" xmlns:xlink="http://www.w3.org/1999/xlink" viewBox="0 0 48 48"><defs><style>.cls-1{fill:#000000;}.cls-2{opacity:0;}.cls-3{clip-path:url(#clip-path);}</style><clipPath id="clip-path"><rect class="cls-1" width="48" height="48"/></clipPath></defs><g id="icones"><path class="cls-1" d="M36,15,37.5,13.5a2.12,2.12,0,0,0-3-3l-1.88,1.88A16.69,16.69,0,0,0,26,10.13V8h3a2,2,0,0,0,0-4H19a2,2,0,0,0,0,4h3v2.13A17,17,0,1,0,36,15M24,40A13,13,0,1,1,37,27,13,13,0,0,1,24,40"/><path class="cls-1" d="M24,22.25c1.43,0,2.5.75,2.5,1.75h4A5.76,5.76,0,0,0,26,18.27V18a2,2,0,0,0-4,0v.27a5.69,5.69,0,0,0-4.5,5.23c0,3,2.92,5.5,6.5,5.5,1.43,0,2.5.79,2.5,1.5s-1.07,1.75-2.5,1.75A3.74,3.74,0,0,1,21.5,31h-4c0,2,1.89,4,4.5,4.73V36a2,2,0,0,0,4,0v-.27a5.68,5.68,0,0,0,4.5-5.23c0-3-2.92-5.5-6.5-5.5-1.43,0-2.5-.67-2.5-1.38s1.07-1.37,2.5-1.37"/><g class="cls-2"><rect class="cls-1" width="48" height="48"/><g class="cls-3"><g class="cls-2"><rect class="cls-1" width="48" height="48"/><g class="cls-3"><rect class="cls-1" width="48" height="48"/></g></g></g></g></g></svg>