<svg xmlns="http://www.w3.org/2000/svg" xmlns:xlink="http://www.w3.org/1999/xlink" viewBox="0 0 48 48"><defs><style>.cls-1{fill:#a65718;}.cls-2{opacity:0;}.cls-3{clip-path:url(#clip-path);}</style><clipPath id="clip-path"><rect class="cls-1" width="48" height="48"/></clipPath></defs><g id="icones"><g class="cls-2"><rect class="cls-1" width="48" height="48"/><g class="cls-3"><g class="cls-2"><rect class="cls-1" width="48" height="48"/><g class="cls-3"><rect class="cls-1" width="48" height="48"/></g></g></g></g><path class="cls-1" d="M13.5,4.67a2,2,0,0,0-2.21-.54A2,2,0,0,0,10,6V42a2,2,0,0,0,1.29,1.87A1.94,1.94,0,0,0,12,44a2,2,0,0,0,1.5-.67L27.13,28a6,6,0,0,0,0-8ZM24.14,25.33,14,36.74V11.26L24.14,22.67a2,2,0,0,1,0,2.66"/><path class="cls-1" d="M36,4a2,2,0,0,0-2,2V42a2,2,0,0,0,4,0V6a2,2,0,0,0-2-2"/></g></svg>