<svg xmlns="http://www.w3.org/2000/svg" xmlns:xlink="http://www.w3.org/1999/xlink" viewBox="0 0 48 48"><defs><style>.cls-1{fill:#fff333;}.cls-2{opacity:0;}.cls-3{clip-path:url(#clip-path);}</style><clipPath id="clip-path"><rect class="cls-1" width="48" height="48"/></clipPath></defs><g id="icones"><path class="cls-1" d="M44,24.14a23.91,23.91,0,0,0-2.17-9.89A9.75,9.75,0,0,0,32.21,8H23a13,13,0,0,0-5.89,1.35c-1.16.57-3.92,1.79-5.84,2.57A3.94,3.94,0,0,0,8,10.24a4,4,0,0,0-4,4v17a4,4,0,0,0,7.85,1c2.94,1.44,6.93,3.76,8.49,6.08,1.4,2.11,4.08,3,7.18,2.46.91-.17,3.92-1,4.43-3.26.63-2.77-.66-5.58-2.19-7.58H37c5.79,0,7-3.13,7-5.86m-4,0C40,25.3,40,26,37,26H25a2.15,2.15,0,0,0-1.22,3.79c1.23.95,4.52,4.15,4.32,6.65a5.23,5.23,0,0,1-2.84.51,2.14,2.14,0,0,1-1.6-.79c-2.58-3.88-8.88-7-11.66-8.21V16c1.91-.77,5.44-2.36,6.89-3.08A8.74,8.74,0,0,1,23,12h9.21a5.87,5.87,0,0,1,6,3.89A20,20,0,0,1,40,24.14"/><g class="cls-2"><rect class="cls-1" width="48" height="48"/><g class="cls-3"><g class="cls-2"><rect class="cls-1" width="48" height="48"/><g class="cls-3"><rect class="cls-1" width="48" height="48"/></g></g></g></g></g></svg>