<svg xmlns="http://www.w3.org/2000/svg" xmlns:xlink="http://www.w3.org/1999/xlink" viewBox="0 0 48 48"><defs><style>.cls-1{fill:#a65718;}.cls-2{opacity:0;}.cls-3{clip-path:url(#clip-path);}</style><clipPath id="clip-path"><rect class="cls-1" width="48" height="48"/></clipPath></defs><g id="icones"><g class="cls-2"><rect class="cls-1" width="48" height="48"/><g class="cls-3"><g class="cls-2"><rect class="cls-1" width="48" height="48"/><g class="cls-3"><rect class="cls-1" width="48" height="48"/></g></g></g></g><path class="cls-1" d="M32,44a2.07,2.07,0,0,1-.77-.15A2,2,0,0,1,30,42V40H14a2,2,0,0,1-2-2V30a2,2,0,0,1,2-2H30V26a2,2,0,0,1,1.23-1.85,2,2,0,0,1,2.18.44L40,31.17a4,4,0,0,1,0,5.66l-6.59,6.58A2,2,0,0,1,32,44ZM16,36H30a4,4,0,0,1,3.35,1.82L37.17,34l-3.82-3.82A4,4,0,0,1,30,32H16Z"/><path class="cls-1" d="M16,24a2,2,0,0,1-1.41-.59L8,16.83a4,4,0,0,1,0-5.66l6.59-6.58a2,2,0,0,1,2.18-.44A2,2,0,0,1,18,6V8H34a2,2,0,0,1,2,2v8a2,2,0,0,1-2,2H18v2a2,2,0,0,1-1.23,1.85A2.07,2.07,0,0,1,16,24ZM14.65,10.18,10.83,14l3.82,3.82A4,4,0,0,1,18,16H32V12H18A4,4,0,0,1,14.65,10.18Z"/></g></svg>