<svg xmlns="http://www.w3.org/2000/svg" xmlns:xlink="http://www.w3.org/1999/xlink" viewBox="0 0 48 48"><defs><style>.cls-1{fill:#ffffff;}.cls-2{opacity:0;}.cls-3{clip-path:url(#clip-path);}</style><clipPath id="clip-path"><rect class="cls-1" width="48" height="48"/></clipPath></defs><g id="icones"><g class="cls-2"><rect class="cls-1" width="48" height="48"/><g class="cls-3"><g class="cls-2"><rect class="cls-1" width="48" height="48"/><g class="cls-3"><rect class="cls-1" width="48" height="48"/></g></g></g></g><path class="cls-1" d="M34,36a2,2,0,0,0-2,2,2,2,0,0,1-2,2H14a2,2,0,0,1-2-2V10a2,2,0,0,1,2-2H30a2,2,0,0,1,2,2,2,2,0,0,0,4,0,6,6,0,0,0-6-6H14a6,6,0,0,0-6,6V38a6,6,0,0,0,6,6H30a6,6,0,0,0,6-6,2,2,0,0,0-2-2"/><path class="cls-1" d="M39.6,22.8l-6-8a2,2,0,1,0-3.2,2.4L34,22H18a2,2,0,0,0,0,4H34l-3.6,4.8a2,2,0,0,0,3.2,2.4l6-8a2,2,0,0,0,0-2.4"/></g></svg>