<svg xmlns="http://www.w3.org/2000/svg" xmlns:xlink="http://www.w3.org/1999/xlink" viewBox="0 0 48 48"><defs><style>.cls-1{fill:#fff333;}.cls-2{opacity:0;}.cls-3{clip-path:url(#clip-path);}</style><clipPath id="clip-path"><rect class="cls-1" width="48" height="48"/></clipPath></defs><g id="icones"><g class="cls-2"><rect class="cls-1" width="48" height="48"/><g class="cls-3"><g class="cls-2"><rect class="cls-1" width="48" height="48"/><g class="cls-3"><rect class="cls-1" width="48" height="48"/></g></g></g></g><path class="cls-1" d="M34.42,4h-.31a1.58,1.58,0,0,0-1.58,1.58v.84A1.57,1.57,0,0,1,31,8h-.4A1.57,1.57,0,0,1,29,6.42V5.58A1.58,1.58,0,0,0,27.41,4H27a1.57,1.57,0,0,0-1.48,1.06h0a1.55,1.55,0,0,0-.1.52v.84A1.57,1.57,0,0,1,23.86,8H23.6a1.56,1.56,0,0,1-1.55-1.34V5.58A1.58,1.58,0,0,0,20.47,4h-.18a1.58,1.58,0,0,0-1.58,1.58v.94A1.58,1.58,0,0,1,17.14,8h-.23a1.58,1.58,0,0,1-1.58-1.58V5.58A1.77,1.77,0,0,0,13.66,4,1.76,1.76,0,0,0,12,5.58V42.42A1.76,1.76,0,0,0,13.66,44a1.77,1.77,0,0,0,1.67-1.57v-.84A1.58,1.58,0,0,1,16.91,40h.23a1.58,1.58,0,0,1,1.57,1.48v.94A1.58,1.58,0,0,0,20.29,44h.18a1.58,1.58,0,0,0,1.58-1.58V41.34A1.56,1.56,0,0,1,23.6,40h.26a1.57,1.57,0,0,1,1.57,1.58v.84a1.55,1.55,0,0,0,.1.52h0A1.57,1.57,0,0,0,27,44h.4A1.58,1.58,0,0,0,29,42.42v-.84A1.57,1.57,0,0,1,30.56,40H31a1.57,1.57,0,0,1,1.57,1.58v.84A1.58,1.58,0,0,0,34.11,44h.31A1.58,1.58,0,0,0,36,42.42V5.58A1.58,1.58,0,0,0,34.42,4ZM32,27.75v6.67A1.58,1.58,0,0,1,30.42,36H17.58A1.58,1.58,0,0,1,16,34.42V13.58A1.58,1.58,0,0,1,17.58,12H30.42A1.58,1.58,0,0,1,32,13.58V27.75Z"/></g></svg>