<svg xmlns="http://www.w3.org/2000/svg" xmlns:xlink="http://www.w3.org/1999/xlink" viewBox="0 0 48 48"><defs><style>.cls-1{fill:#ffffff;}.cls-2{opacity:0;}.cls-3{clip-path:url(#clip-path);}</style><clipPath id="clip-path"><rect class="cls-1" width="48" height="48"/></clipPath></defs><g id="icones"><g class="cls-2"><rect class="cls-1" width="48" height="48"/><g class="cls-3"><g class="cls-2"><rect class="cls-1" width="48" height="48"/><g class="cls-3"><rect class="cls-1" width="48" height="48"/></g></g></g></g><path class="cls-1" d="M39.05,20,25.5,4.68A2,2,0,0,0,22,6v7.94A2.06,2.06,0,0,1,20,16H12a3.93,3.93,0,0,0-4,3.94v8.25A3.82,3.82,0,0,0,12,32h8a2.18,2.18,0,0,1,2,2.19V42a2,2,0,0,0,1.29,1.87A1.94,1.94,0,0,0,24,44a2,2,0,0,0,1.5-.67L39.09,28a6,6,0,0,0,0-8M36.1,25.33,26,36.73V34.19A6.18,6.18,0,0,0,20,28H12V20h8a6,6,0,0,0,6-6.06V11.28L36.06,22.67h0a2,2,0,0,1,0,2.66"/></g></svg>