<svg xmlns="http://www.w3.org/2000/svg" viewBox="0 0 48 48"><defs><style>.cls-1{opacity:0;}.cls-2{fill:#a65718;}</style></defs><g id="icones"><g class="cls-1"><rect class="cls-2" width="48" height="48"/></g><path class="cls-2" d="M24,4A20,20,0,1,0,44,24,20,20,0,0,0,24,4m0,36A16,16,0,1,1,40,24,16,16,0,0,1,24,40"/><path class="cls-2" d="M17,21a2,2,0,1,0-2-2,2,2,0,0,0,2,2"/><path class="cls-2" d="M31,21a2,2,0,1,0-2-2,2,2,0,0,0,2,2"/><path class="cls-2" d="M20,34a7,7,0,0,1-6.9-4.37,2,2,0,0,1,3.79-1.3C17,28.62,17.67,30,20,30c1.12,0,1.61-.43,2.59-1.41A7.12,7.12,0,0,1,28,26h0a7,7,0,0,1,6.9,4.37,2,2,0,0,1-3.8,1.26C31,31.39,30.35,30,28,30h0c-1.12,0-1.6.43-2.59,1.41A7.09,7.09,0,0,1,20,34Z"/></g></svg>