<svg xmlns="http://www.w3.org/2000/svg" xmlns:xlink="http://www.w3.org/1999/xlink" viewBox="0 0 48 48"><defs><style>.cls-1{fill:#fff333;}.cls-2{opacity:0;}.cls-3{clip-path:url(#clip-path);}</style><clipPath id="clip-path"><rect class="cls-1" width="48" height="48"/></clipPath></defs><g id="icones"><g class="cls-2"><rect class="cls-1" width="48" height="48"/><g class="cls-3"><rect class="cls-1" width="48" height="48"/></g></g><path class="cls-1" d="M24,4A20,20,0,1,0,44,24,20,20,0,0,0,24,4m0,36A16,16,0,1,1,40,24,16,16,0,0,1,24,40"/><path class="cls-1" d="M32.06,26.17a1.69,1.69,0,0,0-2.19.67A7,7,0,0,1,24,30.2a7,7,0,0,1-5.87-3.36,1.69,1.69,0,0,0-2.19-.67,2.11,2.11,0,0,0-.76,3A10.54,10.54,0,0,0,24,34.2a10.54,10.54,0,0,0,8.82-5.07,2.11,2.11,0,0,0-.76-3"/><path class="cls-1" d="M17,21a2,2,0,1,0-2-2,2,2,0,0,0,2,2"/><path class="cls-1" d="M31,21a2,2,0,1,0-2-2,2,2,0,0,0,2,2"/></g></svg>