<svg xmlns="http://www.w3.org/2000/svg" xmlns:xlink="http://www.w3.org/1999/xlink" viewBox="0 0 48 48"><defs><style>.cls-1,.cls-4{fill:#000000;}.cls-2{opacity:0;}.cls-3{clip-path:url(#clip-path);}.cls-4{stroke:#000;stroke-linecap:round;stroke-miterlimit:10;stroke-width:4px;}</style><clipPath id="clip-path"><rect class="cls-1" x="0.05" y="-0.05" width="48" height="48"/></clipPath></defs><g id="icones"><g class="cls-2"><rect class="cls-1" x="0.05" y="-0.05" width="48" height="48"/><g class="cls-3"><rect class="cls-1" x="-0.05" y="0.05" width="48" height="48"/></g></g><path class="cls-1" d="M24.05,4a20,20,0,1,0,20,20,20,20,0,0,0-20-20m0,36a16,16,0,1,1,16-16,16,16,0,0,1-16,16"/><path class="cls-1" d="M17.05,21a2,2,0,1,0-2-2,2,2,0,0,0,2,2"/><path class="cls-1" d="M31.05,21a2,2,0,1,0-2-2,2,2,0,0,0,2,2"/><line class="cls-4" x1="20.05" y1="29.95" x2="28.05" y2="29.95"/></g></svg>