<svg xmlns="http://www.w3.org/2000/svg" xmlns:xlink="http://www.w3.org/1999/xlink" viewBox="0 0 48 48"><defs><style>.cls-1{fill:#000000;}.cls-2{opacity:0;}.cls-3{clip-path:url(#clip-path);}</style><clipPath id="clip-path"><rect class="cls-1" width="48" height="48"/></clipPath></defs><g id="icones"><g class="cls-2"><rect class="cls-1" width="48" height="48"/><g class="cls-3"><g class="cls-2"><rect class="cls-1" width="48" height="48"/><g class="cls-3"><rect class="cls-1" width="48" height="48"/></g></g></g></g><path class="cls-1" d="M34,8H14a6,6,0,0,0-6,6V34a6,6,0,0,0,6,6H34a6,6,0,0,0,6-6V14a6,6,0,0,0-6-6m2,26a2,2,0,0,1-2,2H14a2,2,0,0,1-2-2V14a2,2,0,0,1,2-2H34a2,2,0,0,1,2,2Z"/></g></svg>