<svg xmlns="http://www.w3.org/2000/svg" xmlns:xlink="http://www.w3.org/1999/xlink" viewBox="0 0 48 48"><defs><style>.cls-1{fill:#a65718;}.cls-2{opacity:0;}.cls-3{clip-path:url(#clip-path);}</style><clipPath id="clip-path"><rect class="cls-1" width="48" height="48"/></clipPath></defs><g id="icones"><g class="cls-2"><rect class="cls-1" width="48" height="48"/><g class="cls-3"><rect class="cls-1" width="48" height="48"/></g></g><rect class="cls-1" x="10" y="37.71" width="26" height="6.29" rx="3.15"/><path class="cls-1" d="M40.53,23.05A7.13,7.13,0,0,0,34,22.52v-.37h0V13.62a5.72,5.72,0,0,0-2.92-5.08A4.35,4.35,0,0,0,28,8.12s0,0,0,0a5,5,0,0,0-9.82,0A4.93,4.93,0,0,0,17,8c-3,0-5,2-4.91,4,0,0,0,2,0,2a4.35,4.35,0,0,0-3.13.42A5.71,5.71,0,0,0,6,19.53V26c0,4.33,5.24,13.28,6.29,15L15.71,39C13.51,35.29,10,28.51,10,26V24h0V18.91a1,1,0,0,1,2,0V22a2,2,0,0,0,4,0V13a1,1,0,0,1,2,0v5a2,2,0,0,0,4,0V9a1,1,0,0,1,2,0v9a2,2,0,0,0,4,0V13a1,1,0,0,1,2,0V26.15a2,2,0,0,0,3.41,1.42c1.77-1.77,4-1.87,4.78-1.27.13.09.31.22.13.7-6.11,6.29-8.17,12.17-8.26,12.52a2,2,0,0,0,1.45,2.42A2.12,2.12,0,0,0,32,42a2,2,0,0,0,1.94-1.51,32.86,32.86,0,0,1,7.47-10.92,2.1,2.1,0,0,0,.38-.52A4.56,4.56,0,0,0,40.53,23.05Z"/></g></svg>