<svg xmlns="http://www.w3.org/2000/svg" xmlns:xlink="http://www.w3.org/1999/xlink" viewBox="0 0 48 48"><defs><style>.cls-1{fill:#a65718;}.cls-2{opacity:0;}.cls-3{clip-path:url(#clip-path);}</style><clipPath id="clip-path"><rect class="cls-1" width="48" height="48"/></clipPath></defs><g id="icones"><path class="cls-1" d="M34,4H14a6,6,0,0,0-6,6V38a6,6,0,0,0,6,6H34a6,6,0,0,0,6-6V10a6,6,0,0,0-6-6m2,34a2,2,0,0,1-2,2H14a2,2,0,0,1-2-2V36H36Zm0-6H12V10a2,2,0,0,1,2-2H34a2,2,0,0,1,2,2Z"/><path class="cls-1" d="M26,38a2,2,0,1,0-2,2,2,2,0,0,0,2-2"/><g class="cls-2"><rect class="cls-1" width="48" height="48"/><g class="cls-3"><g class="cls-2"><rect class="cls-1" width="48" height="48"/><g class="cls-3"><rect class="cls-1" width="48" height="48"/></g></g></g></g></g></svg>