<svg xmlns="http://www.w3.org/2000/svg" xmlns:xlink="http://www.w3.org/1999/xlink" viewBox="0 0 48 48"><defs><style>.cls-1{fill:#a65718;}.cls-2{opacity:0;}.cls-3{clip-path:url(#clip-path);}</style><clipPath id="clip-path"><rect class="cls-1" width="48" height="48"/></clipPath></defs><g id="icones"><path class="cls-1" d="M38,10H10a6,6,0,0,0-6,6V32a6,6,0,0,0,6,6H38a6,6,0,0,0,6-6V16a6,6,0,0,0-6-6m2,22a2,2,0,0,1-2,2H10a2,2,0,0,1-2-2V16a2,2,0,0,1,2-2H38a2,2,0,0,1,2,2Z"/><path class="cls-1" d="M13,18a2,2,0,1,0,2,2,2,2,0,0,0-2-2"/><path class="cls-1" d="M20,22a2,2,0,1,0-2-2,2,2,0,0,0,2,2"/><path class="cls-1" d="M28,18a2,2,0,1,0,2,2,2,2,0,0,0-2-2"/><path class="cls-1" d="M35,18a2,2,0,1,0,2,2,2,2,0,0,0-2-2"/><path class="cls-1" d="M13,26a2,2,0,1,0,2,2,2,2,0,0,0-2-2"/><path class="cls-1" d="M28,26H20a2,2,0,0,0,0,4h8a2,2,0,0,0,0-4"/><path class="cls-1" d="M35,26a2,2,0,1,0,2,2,2,2,0,0,0-2-2"/><g class="cls-2"><rect class="cls-1" width="48" height="48"/><g class="cls-3"><rect class="cls-1" width="48" height="48"/></g></g></g></svg>