<svg xmlns="http://www.w3.org/2000/svg" xmlns:xlink="http://www.w3.org/1999/xlink" viewBox="0 0 48 48"><defs><style>.cls-1{fill:#a65718;}.cls-2{opacity:0;}.cls-3{clip-path:url(#clip-path);}</style><clipPath id="clip-path"><rect class="cls-1" width="48" height="48"/></clipPath></defs><g id="icones"><path class="cls-1" d="M34,30H14a2,2,0,0,0,0,4H34a2,2,0,0,0,0-4"/><path class="cls-1" d="M9,22H7a1,1,0,0,0-1,1v2a1,1,0,0,0,1,1H9a1,1,0,0,0,1-1V23a1,1,0,0,0-1-1"/><path class="cls-1" d="M15,26h2a1,1,0,0,0,1-1V23a1,1,0,0,0-1-1H15a1,1,0,0,0-1,1v2a1,1,0,0,0,1,1"/><path class="cls-1" d="M23,26h2a1,1,0,0,0,1-1V23a1,1,0,0,0-1-1H23a1,1,0,0,0-1,1v2a1,1,0,0,0,1,1"/><path class="cls-1" d="M31,26h2a1,1,0,0,0,1-1V23a1,1,0,0,0-1-1H31a1,1,0,0,0-1,1v2a1,1,0,0,0,1,1"/><path class="cls-1" d="M41,22H39a1,1,0,0,0-1,1v2a1,1,0,0,0,1,1h2a1,1,0,0,0,1-1V23a1,1,0,0,0-1-1"/><path class="cls-1" d="M9,14H7a1,1,0,0,0-1,1v2a1,1,0,0,0,1,1H9a1,1,0,0,0,1-1V15a1,1,0,0,0-1-1"/><path class="cls-1" d="M15,18h2a1,1,0,0,0,1-1V15a1,1,0,0,0-1-1H15a1,1,0,0,0-1,1v2a1,1,0,0,0,1,1"/><path class="cls-1" d="M23,18h2a1,1,0,0,0,1-1V15a1,1,0,0,0-1-1H23a1,1,0,0,0-1,1v2a1,1,0,0,0,1,1"/><path class="cls-1" d="M31,18h2a1,1,0,0,0,1-1V15a1,1,0,0,0-1-1H31a1,1,0,0,0-1,1v2a1,1,0,0,0,1,1"/><path class="cls-1" d="M41,14H39a1,1,0,0,0-1,1v2a1,1,0,0,0,1,1h2a1,1,0,0,0,1-1V15a1,1,0,0,0-1-1"/><g class="cls-2"><rect class="cls-1" width="48" height="48"/><g class="cls-3"><rect class="cls-1" width="48" height="48"/></g></g></g></svg>