<svg xmlns="http://www.w3.org/2000/svg" xmlns:xlink="http://www.w3.org/1999/xlink" viewBox="0 0 48 48"><defs><style>.cls-1{fill:#ffffff;}.cls-2{opacity:0;}.cls-3{clip-path:url(#clip-path);}</style><clipPath id="clip-path"><rect class="cls-1" width="48" height="48"/></clipPath></defs><g id="icones"><g class="cls-2"><rect class="cls-1" width="48" height="48"/><g class="cls-3"><g class="cls-2"><rect class="cls-1" width="48" height="48"/><g class="cls-3"><rect class="cls-1" width="48" height="48"/></g></g></g></g><path class="cls-1" d="M31.38,5.26a4.08,4.08,0,0,0-5.29,2.11l-2.35,5.16a4.06,4.06,0,0,0,.55,4.28,12.74,12.74,0,0,0,2,1.81c.24.19.56.44.8.65-.81,2.17-5.66,7-7.83,7.84-.21-.25-.46-.57-.65-.81a12.74,12.74,0,0,0-1.81-2,4.06,4.06,0,0,0-4.28-.55L7.37,26.08a4.1,4.1,0,0,0-2.11,5.3c3.35,8.13,4.8,9.06,6.22,9.06h.21A30.72,30.72,0,0,0,40.44,11.69c.07-1.5-.54-2.92-9.06-6.43M12.16,36.4A37.38,37.38,0,0,1,9,29.86.1.1,0,0,1,9,29.73l5.16-2.35h.05l.06,0a12.48,12.48,0,0,1,1.18,1.37c1,1.32,1.92,2.46,3.31,2.46,4.07,0,12.44-8.37,12.44-12.44,0-1.39-1.14-2.28-2.46-3.31a12.48,12.48,0,0,1-1.37-1.18.11.11,0,0,1,0-.11L29.73,9A.1.1,0,0,1,29.86,9a37.38,37.38,0,0,1,6.54,3.2A27.08,27.08,0,0,1,12.16,36.4"/></g></svg>