<svg xmlns="http://www.w3.org/2000/svg" xmlns:xlink="http://www.w3.org/1999/xlink" viewBox="0 0 48 48"><defs><style>.cls-1{fill:#a65718;}.cls-2{opacity:0;}.cls-3{clip-path:url(#clip-path);}</style><clipPath id="clip-path"><rect class="cls-1" width="48" height="48"/></clipPath></defs><g id="icones"><g class="cls-2"><rect class="cls-1" width="48" height="48"/><g class="cls-3"><g class="cls-2"><rect class="cls-1" width="48" height="48"/><g class="cls-3"><rect class="cls-1" width="48" height="48"/></g></g></g></g><path class="cls-1" d="M15.51,41.25a5.91,5.91,0,0,1-4.2-1.73L8.48,36.69a6,6,0,0,1,0-8.41L31.07,5.7,42.31,16.93,19.72,39.52A5.92,5.92,0,0,1,15.51,41.25ZM31.07,11.19,11.23,31a2.06,2.06,0,0,0,0,2.91l2.83,2.83a2.06,2.06,0,0,0,2.91,0L36.81,16.93Z"/><path class="cls-1" d="M39.91,21.53,26.47,8.09A2.5,2.5,0,0,1,30,4.55L43.45,18a2.5,2.5,0,0,1-3.54,3.54"/><path class="cls-1" d="M26.12,19.05,24,16.93a2,2,0,0,1,2.83-2.83L29,16.22a2,2,0,0,1-2.83,2.83"/><path class="cls-1" d="M20.46,24.71l-2.12-2.12a2,2,0,0,1,2.83-2.83l2.12,2.12a2,2,0,1,1-2.83,2.83"/><path class="cls-1" d="M14.81,30.36l-2.12-2.12a2,2,0,1,1,2.82-2.83l2.13,2.13a2,2,0,1,1-2.83,2.82"/></g></svg>