<svg xmlns="http://www.w3.org/2000/svg" xmlns:xlink="http://www.w3.org/1999/xlink" viewBox="0 0 48 48"><defs><style>.cls-1{fill:#ffffff;}.cls-2{opacity:0;}.cls-3{clip-path:url(#clip-path);}</style><clipPath id="clip-path"><rect class="cls-1" width="48" height="48"/></clipPath></defs><g id="icones"><path class="cls-1" d="M38,7H10a6,6,0,0,0-6,6V27a6,6,0,0,0,6,6H22v2a2,2,0,0,1-2,2H13a2,2,0,0,0,0,4H35a2,2,0,0,0,0-4H28a2,2,0,0,1-2-2V33H38a6,6,0,0,0,6-6V13a6,6,0,0,0-6-6m2,20a2,2,0,0,1-2,2H10a2,2,0,0,1-2-2V13a2,2,0,0,1,2-2H38a2,2,0,0,1,2,2Z"/><g class="cls-2"><rect class="cls-1" width="48" height="48"/><g class="cls-3"><g class="cls-2"><rect class="cls-1" width="48" height="48"/><g class="cls-3"><rect class="cls-1" width="48" height="48"/></g></g></g></g></g></svg>