<svg xmlns="http://www.w3.org/2000/svg" xmlns:xlink="http://www.w3.org/1999/xlink" viewBox="0 0 48 48"><defs><style>.cls-1{fill:#fff333;}.cls-2{opacity:0;}.cls-3{clip-path:url(#clip-path);}</style><clipPath id="clip-path"><rect class="cls-1" width="48" height="48"/></clipPath></defs><g id="icones"><g class="cls-2"><rect class="cls-1" width="48" height="48"/><g class="cls-3"><rect class="cls-1" width="48" height="48"/></g></g><path class="cls-1" d="M39,33H36V30a2,2,0,0,0-4,0v3H29a2,2,0,0,0,0,4h3v3a2,2,0,0,0,4,0V37h3a2,2,0,0,0,0-4"/><path class="cls-1" d="M30.09,24.85a2,2,0,0,0-.66-2.54,10,10,0,1,0-14.52,0A14.86,14.86,0,0,0,7.07,32.5a3.74,3.74,0,0,0,.79,3.12A3.78,3.78,0,0,0,10.79,37H21a2,2,0,0,0,0-4H11.05a10.9,10.9,0,0,1,5.89-7.24A3.74,3.74,0,0,0,19,23a3.86,3.86,0,0,0-1.08-3.33A6,6,0,0,1,18,11.12a6,6,0,0,1,4.36-1.7,6,6,0,0,1,4,10.28,3.65,3.65,0,0,0-1.06,3.24,3.81,3.81,0,0,0,2.08,2.82,2,2,0,0,0,2.68-.91"/></g></svg>