<svg xmlns="http://www.w3.org/2000/svg" xmlns:xlink="http://www.w3.org/1999/xlink" viewBox="0 0 48 48"><defs><style>.cls-1{fill:#ffffff;}.cls-2{opacity:0;}.cls-3{clip-path:url(#clip-path);}</style><clipPath id="clip-path"><rect class="cls-1" width="48" height="48"/></clipPath></defs><g id="icones"><path class="cls-1" d="M40.1,35a15.73,15.73,0,0,0-8.55-11,10.61,10.61,0,1,0-15.12,0A15.82,15.82,0,0,0,7.9,35a4.21,4.21,0,0,0,.82,3.39,4.07,4.07,0,0,0,3,1.59h24.5a4.07,4.07,0,0,0,3-1.59A4.21,4.21,0,0,0,40.1,35M11.85,36a11,11,0,0,1,6.45-8.24,4,4,0,0,0,2.13-3,4.07,4.07,0,0,0-1.11-3.49,6.63,6.63,0,0,1,.07-9.44,6.61,6.61,0,0,1,9.25,9.44,3.82,3.82,0,0,0-1.1,3.36,4.26,4.26,0,0,0,2.16,3.08A11,11,0,0,1,36.15,36Z"/><g class="cls-2"><rect class="cls-1" width="48" height="48"/><g class="cls-3"><g class="cls-2"><rect class="cls-1" width="48" height="48"/><g class="cls-3"><rect class="cls-1" width="48" height="48"/></g></g></g></g></g></svg>