<svg xmlns="http://www.w3.org/2000/svg" xmlns:xlink="http://www.w3.org/1999/xlink" viewBox="0 0 48 48"><defs><style>.cls-1{fill:#a65718;}.cls-2{opacity:0;}.cls-3{clip-path:url(#clip-path);}</style><clipPath id="clip-path"><rect class="cls-1" width="48" height="48"/></clipPath></defs><g id="icones"><path class="cls-1" d="M19.76,35.31l-2.12,2.13a2,2,0,0,1-2.83,0l-4.25-4.25a2,2,0,0,1,0-2.83l9.9-9.9a2,2,0,0,1,2.83,0l2.12,2.13a2,2,0,0,0,2.83-2.83l-2.12-2.13a6,6,0,0,0-8.48,0l-9.9,9.9a6,6,0,0,0,0,8.48L12,40.26a6,6,0,0,0,8.48,0l2.13-2.12a2,2,0,0,0-2.83-2.83"/><path class="cls-1" d="M40.26,12,36,7.74a6,6,0,0,0-8.48,0L25.41,9.86a2,2,0,0,0,2.83,2.83l2.12-2.13a2,2,0,0,1,2.83,0l4.25,4.25a2,2,0,0,1,0,2.83l-9.9,9.9a2,2,0,0,1-2.83,0l-2.12-2.13a2,2,0,0,0-2.83,2.83l2.12,2.13a6,6,0,0,0,8.48,0l9.9-9.9a6,6,0,0,0,0-8.48"/><g class="cls-2"><rect class="cls-1" width="48" height="48"/><g class="cls-3"><g class="cls-2"><rect class="cls-1" width="48" height="48"/><g class="cls-3"><rect class="cls-1" width="48" height="48"/></g></g></g></g></g></svg>