<svg xmlns="http://www.w3.org/2000/svg" xmlns:xlink="http://www.w3.org/1999/xlink" viewBox="0 0 48 48"><defs><style>.cls-1{fill:#000000;}.cls-2{opacity:0;}.cls-3{clip-path:url(#clip-path);}</style><clipPath id="clip-path"><rect class="cls-1" width="48" height="48"/></clipPath></defs><g id="icones"><path class="cls-1" d="M43.9,23.11a22.21,22.21,0,0,0-39.8,0,2,2,0,0,0,0,1.78,22.21,22.21,0,0,0,39.8,0,2,2,0,0,0,0-1.78M24,33.24A18.1,18.1,0,0,1,8.16,24a18.2,18.2,0,0,1,31.68,0A18.1,18.1,0,0,1,24,33.24"/><path class="cls-1" d="M28,25a3,3,0,0,1,0-6c.11,0,.21,0,.32,0A6.79,6.79,0,1,0,30.6,24.1a5.63,5.63,0,0,0,0-.58A3,3,0,0,1,28,25"/><g class="cls-2"><rect class="cls-1" width="48" height="48"/><g class="cls-3"><g class="cls-2"><rect class="cls-1" width="48" height="48"/><g class="cls-3"><rect class="cls-1" width="48" height="48"/></g></g></g></g></g></svg>